<?xml version="1.0" standalone="no"?>
<!DOCTYPE svg PUBLIC "-//W3C//DTD SVG 1.1//EN" "http://www.w3.org/Graphics/SVG/1.1/DTD/svg11.dtd" >
<svg>
<metadata>
Created by FontForge 20090914 at Wed Aug 14 07:13:31 2013
 By www-data
Copyright (c) 2012 by Dhanbisishthabongs Kliauklom. All rights reserved.
</metadata>
<defs>
<font id="ThaiSansNeue-Regular" horiz-adv-x="0" >
  <font-face 
    font-family="ThaiSans Neue"
    font-weight="400"
    font-stretch="normal"
    units-per-em="1000"
    panose-1="2 0 0 0 0 0 0 0 0 0"
    ascent="753"
    descent="-247"
    x-height="359.998"
    cap-height="490"
    bbox="-357.998 -337.999 1007 900.001"
    underline-thickness="50"
    underline-position="-49"
    unicode-range="U+0020-U+2122"
  />
<missing-glyph horiz-adv-x="344" 
d="M307 0h-270v350h270v-350z" />
    <glyph glyph-name="arm" unicode="&#x3b;&#x3b;arm&#x3b;&#x3b;" horiz-adv-x="1044" 
d="M517 450l-70 -190h-40l228 620h172l200 -620h-160l-61 190h-269zM207 -238l-25.998 0.000976562l-32 160l18 12c-1.33301 -0.666992 -3.33301 -1 -6 -1c-2.66699 -0.666992 -7.33398 -1 -14.001 -1c-6 0 -13.167 1.16699 -21.5 3.5s-16 6.16602 -23 11.499
s-13 12.333 -18 21s-7.5 19.334 -7.5 32.001c0 7.33301 1.33301 15.166 4 23.499s6.83398 16 12.501 23s12.834 12.667 21.501 17s19.334 6.5 32.001 6.5c20 0 36.667 -6.66699 50 -20s20 -30 20 -50c0 -2 -0.166992 -5.16699 -0.5 -9.5s-1.33301 -9.16602 -3 -14.499
s-4.33398 -10.833 -8.00098 -16.5s-8.83398 -10.834 -15.501 -15.501l22 -102l55 110h20l55 -110l35 208h50l-16 -83l11 20l65 14c0 34.667 2 64.167 6 88.5s10 43.833 18 58.5s18.333 25.334 31 32.001s27.667 10 45 10c20 0 35 -6.66699 45 -20s15 -30 15 -50h-20
c0 10 -2.5 19.167 -7.5 27.5s-12.5 12.5 -22.5 12.5c-25.333 0 -43.333 -12.333 -54 -37s-16 -62 -16 -112l73 18l9 -36l-82 -21v-40c0 -40 -1 -76.5 -3 -109.5s-6.83301 -61.5 -14.5 -85.5s-18.834 -42.5 -33.501 -55.5s-34.334 -19.5 -59.001 -19.5
c-20 0 -36.667 5 -50 15s-20 25 -20 45h20c0 -10 4.16699 -17.5 12.5 -22.5s17.5 -7.5 27.5 -7.5c20 0 35.333 6 46 18s18.5 28.5 23.5 49.5s8 46.167 9 75.5s1.5 61.666 1.5 96.999v30l-80 -20l-34 -180h-26l-70 150zM197.002 620.001h-160.001v40h160v80
c-7.33301 0 -14.666 2.16699 -21.999 6.5s-13.833 10.166 -19.5 17.499s-10.167 15.833 -13.5 25.5s-5 19.834 -5 30.501c0 12 2.33301 22.833 7 32.5s10.667 18 18 25s15.833 12.5 25.5 16.5s19.5 6 29.5 6c25.333 0 45 -7 59 -21s21 -33.667 21 -59
c0 -8.66699 -1.33301 -17.667 -4 -27s-6.5 -17.833 -11.5 -25.5s-11.167 -14 -18.5 -19s-16 -7.83301 -26 -8.5v-80h160v-40h-160v-120l107 -240h-40l-87 200l-87 -200h-40l107 240v120zM777.001 -97.999c0 24.667 2.99902 48.333 8.99902 71s14.333 42.667 25 60
s23.334 31.333 38.001 42s30.667 16 48 16c35.333 0 62.5 -12.167 81.5 -36.5s28.5 -58.5 28.5 -102.5c0 -65.333 -11.667 -113.333 -35 -144s-55 -46 -95 -46c-12.667 0 -25 2.66699 -37 8s-22.667 13.5 -32 24.5s-16.833 25.333 -22.5 43s-8.5 39.167 -8.5 64.5zM769 500
l-109 340l-123 -340h232zM817 -128c0 -7.33301 1.16699 -15.168 3.5 -23.501s6 -16 11 -23s11.333 -12.667 19 -17s16.5 -6.5 26.5 -6.5c20 0 35.333 6.66699 46 20s18.667 28.333 24 45c6 18.667 9.33301 40.334 10 65.001zM957 -18.002
c-1.33301 12.667 -3.99902 24 -7.99902 34c-4 8.66699 -9.83301 16.5 -17.5 23.5s-19.167 10.5 -34.5 10.5c-17.333 0 -31.333 -6.66699 -42 -20s-18.667 -28 -24 -44c-6.66699 -18.667 -11.334 -40 -14.001 -64zM177.001 819.998c0 -10 2.83301 -19.167 8.5 -27.5
s16.167 -12.5 31.5 -12.5s25.833 4.16699 31.5 12.5s8.5 17.5 8.5 27.5c0 15.333 -4.16699 25.833 -12.5 31.5s-17.5 8.5 -27.5 8.5s-19.167 -2.83301 -27.5 -8.5s-12.5 -16.167 -12.5 -31.5zM785.001 837.998l-56 -92l11 -36l56 94zM909.001 451.998l-6 21l-57 -93l6 -19z
M855.001 618.998l-7 24l-56 -93l7 -24zM736.001 19.998h-20l20 100h30zM666.001 19.998l20 100h30l-30 -100h-20zM117.001 -0.00195312c0 -7.33301 2.5 -13.833 7.5 -19.5s12.5 -8.5 22.5 -8.5c20 0 30 9.33301 30 28c0 20 -10 30 -30 30c-10 0 -17.5 -3 -22.5 -9
s-7.5 -13 -7.5 -21zM820.001 728.998l-56 -93l6 -20l56 93zM868.001 576.998l-5 20l-57 -93l7 -20zM722.001 764.998l52 85h-25l-35 -57zM812.001 752.998l-6 20l-56 -93l6 -20zM895.001 495.998l-6 17l-56 -93l6 -16zM841.001 661.998l-7 21l-55 -93l6 -20z
M915.001 432.998l-56 -93l7 -23l56 94zM882.001 533.998l-5 19l-57 -94l6 -16zM872.001 299.998l3 -10h13l47 79l-7 24zM707.001 810.998l23 39h-36zM948.001 330.998l-7 20l-37 -61h20zM960.001 289.998l-7 22l-13 -22h20z" />
    <glyph glyph-name=".notdef" horiz-adv-x="344" 
d="M307 0h-270v350h270v-350z" />
    <glyph glyph-name="space" unicode=" " horiz-adv-x="322" 
 />
    <glyph glyph-name="space" unicode="&#xa0;" horiz-adv-x="322" 
 />
    <glyph glyph-name="exclam" unicode="!" horiz-adv-x="134" 
d="M97 120h-60v400h60v-400zM97 0h-60v60h60v-60z" />
    <glyph glyph-name="quotedbl" unicode="&#x22;" horiz-adv-x="244" 
d="M37 360v160h60v-160h-60zM147 360v160h60v-160h-60z" />
    <glyph glyph-name="numbersign" unicode="#" horiz-adv-x="546" 
d="M154 301h-76l12 49h77l38 140h58l-38 -140h140l38 140h58l-38 -140h86l-13 -49h-86l-28 -105h86l-14 -49h-85l-39 -147h-58l39 147h-140l-39 -147h-58l39 147h-76l13 49h76zM352 301h-140l-28 -105h140z" />
    <glyph glyph-name="dollar" unicode="$" horiz-adv-x="394" 
d="M337 420c-10.667 5.33301 -22.668 10.333 -36.001 15c-12 3.33301 -26.5 6.66602 -43.5 9.99902s-37.167 5 -60.5 5c-11.333 0 -23 -1.66699 -35 -5s-22.833 -8 -32.5 -14s-17.5 -13.333 -23.5 -22s-9 -18.334 -9 -29.001c0 -18.667 6.5 -33.5 19.5 -44.5
s29 -20.333 48 -28s39.833 -15.167 62.5 -22.5s43.5 -16.666 62.5 -27.999s35 -26.166 48 -44.499s19.5 -42.5 19.5 -72.5c0 -17.333 -2 -34 -6 -50s-10.667 -30.5 -20 -43.5s-22.333 -24.167 -39 -33.5s-37.334 -15.333 -62.001 -18v-77h-57v74
c-22.667 0.666992 -42.5 3 -59.5 7s-31.167 8.33301 -42.5 13c-13.333 5.33301 -24.666 11.333 -33.999 18v50c13.333 -7.33301 28 -14 44 -20c13.333 -5.33301 28.833 -10 46.5 -14s36.167 -6 55.5 -6c36.667 0 64.834 8.83301 84.501 26.5s29.5 42.167 29.5 73.5
c0 22.667 -6.5 40.5 -19.5 53.5s-29 23.667 -48 32s-39.833 15.833 -62.5 22.5s-43.5 15 -62.5 25s-35 23.333 -48 40s-19.5 39 -19.5 67c0 17.333 3.83301 33 11.5 47s17.834 26 30.501 36s27.167 17.833 43.5 23.5s33.166 9.5 50.499 11.5v76h57v-76
c18 -1.33301 33.5 -3.5 46.5 -6.5s24.167 -6.16699 33.5 -9.5c10.667 -3.33301 19.667 -7.33301 27 -12v-50z" />
    <glyph glyph-name="percent" unicode="%" horiz-adv-x="573" 
d="M504 602l-336 -602h-63l336 602h63zM172 420c0 18.667 -1.16699 34.167 -3.5 46.5s-5.16602 21.833 -8.49902 28.5s-7.5 11.334 -12.5 14.001s-9.83301 4 -14.5 4c-5.33301 0 -10.333 -1.33301 -15 -4s-8.66699 -7.5 -12 -14.5s-6 -16.5 -8 -28.5s-3 -27.667 -3 -47
c0 -18.667 1 -33.834 3 -45.501s4.66699 -20.667 8 -27s7.33301 -10.5 12 -12.5s9.66699 -3 15 -3c4.66699 0 9.5 1.16699 14.5 3.5s9.16699 6.66602 12.5 12.999s6.16602 15.333 8.49902 27s3.5 26.834 3.5 45.501zM130 282c-27.333 0 -49.666 11.5 -66.999 34.5
s-26 56.5 -26 100.5c0 47.333 9.16699 83.333 27.5 108s41.833 37 70.5 37c27.333 0 49.666 -11.667 66.999 -35s26 -58 26 -104s-9.5 -81 -28.5 -105s-42.167 -36 -69.5 -36zM480 124c0 18.667 -1 34.167 -3 46.5s-4.83301 21.833 -8.5 28.5
s-7.83398 11.334 -12.501 14.001s-9.66699 4 -15 4s-10.333 -1.33301 -15 -4s-8.66699 -7.5 -12 -14.5s-6 -16.5 -8 -28.5s-3 -27.667 -3 -47c0 -18.667 1 -33.834 3 -45.501s4.66699 -20.667 8 -27s7.33301 -10.5 12 -12.5s9.66699 -3 15 -3s10.333 1.16699 15 3.5
s8.83398 6.66602 12.501 12.999s6.5 15.333 8.5 27s3 26.834 3 45.501zM438 -12c-26.667 0 -48.832 11.167 -66.499 33.5s-26.5 55.5 -26.5 99.5c0 47.333 9.16699 83.333 27.5 108s41.833 37 70.5 37c27.333 0 49.666 -11.667 66.999 -35s26 -58 26 -104
s-9.5 -80.667 -28.5 -104s-42.167 -35 -69.5 -35z" />
    <glyph glyph-name="ampersand" unicode="&#x26;" horiz-adv-x="554" 
d="M517 0c-34 0 -61.667 5.66504 -83 16.998s-39.666 25.666 -54.999 42.999c-46.667 -45.333 -106 -68 -178 -68c-52 0 -92.333 10.667 -121 32s-43 55.666 -43 102.999c0 36.667 9.16699 67.5 27.5 92.5s46.5 46.167 84.5 63.5c-14.667 9.33301 -28.667 22.833 -42 40.5
s-20 39.167 -20 64.5c0 36 13 63.667 39 83s58 29 96 29c16 0 31.667 -2.33301 47 -7s28.666 -11.5 39.999 -20.5s20.5 -19.833 27.5 -32.5s10.5 -26.667 10.5 -42c0 -30.667 -8.66699 -55 -26 -73s-42.333 -33.667 -75 -47c36 -19.333 64 -40.666 84 -63.999
s37.667 -46.333 53 -69c10.667 15.333 20 31.333 28 48s14.667 33.334 20 50.001s9.33301 32.667 12 48s4 29.333 4 42v17h60c-2 -39.333 -11.167 -81.166 -27.5 -125.499s-37.833 -85.166 -64.5 -122.499c12.667 -15.333 26.5 -27.833 41.5 -37.5s35.167 -14.5 60.5 -14.5
v-50zM201 39.998c58.667 0 107.001 19.6719 145.001 59.0049l-29.5 42.5c-9.66699 14.333 -20.334 28.166 -32.001 41.499s-25 25.666 -40 36.999s-32.5 20.666 -52.5 27.999c-16 -6.66699 -29.833 -13.334 -41.5 -20.001s-21.5 -14.5 -29.5 -23.5s-14 -19.667 -18 -32
s-6 -27.5 -6 -45.5c0 -32.667 9.5 -55.334 28.5 -68.001s44.167 -19 75.5 -19zM287.001 398.003c0 8.66699 -2.33203 16.167 -6.99902 22.5s-10.167 11.5 -16.5 15.5s-13.333 7 -21 9s-14.5 3 -20.5 3c-24.667 0 -43.334 -6 -56.001 -18s-19 -26 -19 -42
c0 -17.333 4.5 -33.5 13.5 -48.5s22.5 -27.5 40.5 -37.5c30 11.333 51.833 24.833 65.5 40.5s20.5 34.167 20.5 55.5z" />
    <glyph glyph-name="quotesingle" unicode="'" horiz-adv-x="134" 
d="M37 360v160h60v-160h-60z" />
    <glyph glyph-name="parenleft" unicode="(" horiz-adv-x="204" 
d="M142 -139c-39.333 44 -69.166 93.168 -89.499 147.501s-30.5 113.833 -30.5 178.5c0 66 10.167 127 30.5 183s50.166 107.333 89.499 154h55c-39.333 -48 -69 -100.167 -89 -156.5s-30 -116.5 -30 -180.5c0 -63.333 10 -121.833 30 -175.5s49.667 -103.834 89 -150.501
h-55z" />
    <glyph glyph-name="parenright" unicode=")" horiz-adv-x="204" 
d="M7 -139c39.333 46.667 69 96.833 89 150.5s30 112.167 30 175.5c0 64 -10 124.167 -30 180.5s-49.667 108.5 -89 156.5h55c39.333 -46.667 69.166 -98 89.499 -154s30.5 -117 30.5 -183c0 -64.667 -10.167 -124.167 -30.5 -178.5s-50.166 -103.5 -89.499 -147.5h-55z" />
    <glyph glyph-name="asterisk" unicode="*" horiz-adv-x="289" 
d="M70 340l-33 45l81 42l-81 42l33 45l57 -54l-11 79h56l-12 -80l59 55l33 -45l-82 -42l82 -42l-33 -45l-59 55l12 -80h-56l11 79z" />
    <glyph glyph-name="plus" unicode="+" horiz-adv-x="374" 
d="M162 230v132h50v-132h125v-50h-125v-120h-50v120h-125v50h125z" />
    <glyph glyph-name="comma" unicode="," horiz-adv-x="134" 
d="M37 60l60 -0.000976562v-60c0 -14.667 -3.66699 -28.5 -11 -41.5s-15.333 -24.5 -24 -34.5c-10.667 -12 -22.334 -22.667 -35.001 -32h-48c10.667 12 20.334 24 29.001 36c7.33301 10.667 14 22.334 20 35.001s9 25 9 37v60z" />
    <glyph glyph-name="hyphen" unicode="-" horiz-adv-x="269" 
d="M232 190h-195v50h195v-50z" />
    <glyph glyph-name="period" unicode="." horiz-adv-x="134" 
d="M97 0h-60v60h60v-60z" />
    <glyph glyph-name="slash" unicode="/" horiz-adv-x="231" 
d="M224 602l-161 -602h-56l161 602h56z" />
    <glyph glyph-name="zero" unicode="0" horiz-adv-x="414" 
d="M332 241c0 35.333 -3.33301 66.001 -10 92.001s-15.834 47.667 -27.501 65s-25.334 30.333 -41.001 39s-32.5 13 -50.5 13c-34 0 -62.667 -17.333 -86 -52s-35 -88 -35 -160c0 -68.667 11.667 -118.834 35 -150.501s52 -47.5 86 -47.5c18 0 34.833 4 50.5 12
s29.334 20.333 41.001 37s20.834 37.667 27.501 63s10 55 10 89zM392 246.001c0 -42 -5.33008 -78.8311 -15.9971 -110.498s-24.834 -58.167 -42.501 -79.5s-38.167 -37.333 -61.5 -48s-48 -16 -74 -16c-25.333 0 -48.833 5 -70.5 15s-40.334 25.167 -56.001 45.5
s-27.834 45.666 -36.501 75.999s-13 65.833 -13 106.5c0 43.333 4.5 81.5 13.5 114.5s21.833 60.667 38.5 83s36.167 39.166 58.5 50.499s47.166 17 74.499 17c26 0 50.167 -5.16699 72.5 -15.5s41.833 -26 58.5 -47s29.834 -47.5 39.501 -79.5s14.5 -69.333 14.5 -112z" />
    <glyph glyph-name="one" unicode="1" horiz-adv-x="229" 
d="M192 490l-0.000976562 -489.999h-60v410c-11.333 -7.33301 -27.166 -16.333 -47.499 -27s-41.166 -18.334 -62.499 -23.001v50c15.333 6 29.666 13.5 42.999 22.5s25 17.833 35 26.5c12 10 23 20.333 33 31h59z" />
    <glyph glyph-name="two" unicode="2" horiz-adv-x="339" 
d="M252 364c0 31.333 -8.00293 53.499 -24.0029 66.499s-36.333 19.5 -61 19.5c-21.333 0 -43.666 -3.33301 -66.999 -10s-42.666 -17.667 -57.999 -33v50c14 14.667 31.667 25.5 53 32.5s45.333 10.5 72 10.5c42 0 76.667 -11.167 104 -33.5s41 -54.5 41 -96.5
c0 -24 -5.33301 -46.5 -16 -67.5s-24.167 -40.667 -40.5 -59s-34.166 -35.666 -53.499 -51.999l-54.5 -48c-17 -15.667 -31.5 -31.167 -43.5 -46.5s-19 -31 -21 -47h249v-50h-310v46c0 19.333 5.66699 38 17 56s25.5 35.5 42.5 52.5s35.5 33.833 55.5 50.5
s38.5 33.5 55.5 50.5s31.167 34.333 42.5 52s17 36.5 17 56.5z" />
    <glyph glyph-name="three" unicode="3" horiz-adv-x="349" 
d="M327 134c0 -22.667 -4.33008 -42.832 -12.9971 -60.499s-20.834 -32.5 -36.501 -44.5s-34.334 -21.167 -56.001 -27.5s-45.167 -9.5 -70.5 -9.5c-23.333 0 -44.666 2.66699 -63.999 8s-36 12 -50 20v53c16 -13.333 33.5 -22.166 52.5 -26.499s39.5 -6.5 61.5 -6.5
c16 0 31 1.83301 45 5.5s26.167 9.16699 36.5 16.5s18.666 16.5 24.999 27.5s9.5 24.167 9.5 39.5c0 33.333 -13.333 58.166 -40 74.499s-73.334 24.5 -140.001 24.5v47c30 0 56.667 3.66699 80 11c10 2.66699 19.833 6.33398 29.5 11.001s18.167 10.167 25.5 16.5
s13.333 14 18 23s7 19.167 7 30.5c0 30.667 -7.5 52.167 -22.5 64.5s-33.833 18.5 -56.5 18.5c-17.333 0 -36.333 -2.16699 -57 -6.5s-38.667 -12.166 -54 -23.499v50c15.333 10 31.833 17.5 49.5 22.5s38.167 7.5 61.5 7.5c18.667 0 36.5 -3 53.5 -9
s31.833 -14.333 44.5 -25s22.667 -23 30 -37s11 -29.333 11 -46c0 -34 -8.5 -61.333 -25.5 -82s-41.833 -36 -74.5 -46c16 -2 31.167 -6.33301 45.5 -13s27 -15.334 38 -26.001s19.833 -22.834 26.5 -36.501s10 -28.834 10 -45.501z" />
    <glyph glyph-name="four" unicode="4" horiz-adv-x="360" 
d="M232 401l-160 -231h160v231zM7 170l225 320h60v-320h61v-51h-61v-119h-60v119h-225v51z" />
    <glyph glyph-name="five" unicode="5" horiz-adv-x="329" 
d="M307 146c0 -50 -15.667 -88.1631 -47 -114.496s-74 -39.5 -128 -39.5c-23.333 0 -42.333 1.66699 -57 5s-27.334 7.66602 -38.001 12.999v52c7.33301 -4.66699 16 -8.33398 26 -11.001c8.66699 -3.33301 18.834 -6 30.501 -8s24.5 -3 38.5 -3
c37.333 0 65.833 8.66699 85.5 26s29.5 42.666 29.5 75.999s-10.333 59.666 -31 78.999s-48.334 29 -83.001 29c-15.333 0 -29 -0.5 -41 -1.5s-22 -2.16699 -30 -3.5c-9.33301 -2 -17.666 -3.66699 -24.999 -5v250h236v-50h-176v-145h36c56 0 99 -13.667 129 -41
s45 -63.333 45 -108z" />
    <glyph glyph-name="six" unicode="6" horiz-adv-x="363" 
d="M86 162c0 -38 8.33301 -67.833 25 -89.5s40.334 -32.5 71.001 -32.5c13.333 0 26 3 38 9s22.667 14 32 24s16.666 21.833 21.999 35.5s8 28.167 8 43.5c0 35.333 -8.83301 62 -26.5 80s-42.167 27 -73.5 27c-16.667 0 -31 -3.5 -43 -10.5s-22 -15.5 -30 -25.5
s-13.833 -20.5 -17.5 -31.5s-5.5 -20.833 -5.5 -29.5zM22 216c0 93.333 18.167 164.001 54.5 212.001s85.833 72 148.5 72c15.333 0 30.666 -0.333008 45.999 -1s29 -3.66699 41 -9v-50c-7.33301 1.33301 -15.333 3 -24 5c-7.33301 1.33301 -16.333 2.5 -27 3.5
s-22.667 1.5 -36 1.5c-44.667 0 -79.667 -16.833 -105 -50.5s-38 -80.834 -38 -141.501c6 10 13.333 18.333 22 25s18 11.834 28 15.501s20 6.16699 30 7.5s19 2 27 2c20.667 0 40.167 -3.83301 58.5 -11.5s34.5 -18.334 48.5 -32.001s25 -30.167 33 -49.5
s12 -40.333 12 -63c0 -23.333 -4 -44.833 -12 -64.5s-19 -36.5 -33 -50.5s-30.667 -25 -50 -33s-40.666 -12 -63.999 -12c-48 0 -86.667 19.667 -116 59s-44 94.333 -44 165z" />
    <glyph glyph-name="seven" unicode="7" horiz-adv-x="334" 
d="M7 490h320v-30l-175 -460h-60l165 440h-250v50z" />
    <glyph glyph-name="eight" unicode="8" horiz-adv-x="354" 
d="M102 368c0 -21.333 6.33105 -39.666 18.998 -54.999s31.334 -23 56.001 -23c21.333 0 39.333 7.66699 54 23s22 33.666 22 54.999c0 23.333 -7.33301 42.833 -22 58.5s-32.667 23.5 -54 23.5c-25.333 0 -44.166 -7.83301 -56.499 -23.5s-18.5 -35.167 -18.5 -58.5z
M176.998 240c-28 0 -50.833 -9.16699 -68.5 -27.5s-26.5 -42.5 -26.5 -72.5s8.16699 -54.167 24.5 -72.5s39.833 -27.5 70.5 -27.5c30 0 53.333 9.16699 70 27.5s25 42.5 25 72.5c0 12.667 -2.16699 25 -6.5 37s-10.5 22.667 -18.5 32s-17.833 16.833 -29.5 22.5
s-25.167 8.5 -40.5 8.5zM41.998 374c0 18 3.33301 34.667 10 50s15.834 28.666 27.501 39.999s25.834 20.166 42.501 26.499s35 9.5 55 9.5c18.667 0 36.167 -3.5 52.5 -10.5s30.666 -16.167 42.999 -27.5s22 -24.666 29 -39.999s10.5 -31.333 10.5 -48
c0 -23.333 -5.66699 -44.5 -17 -63.5s-27.333 -34.167 -48 -45.5c28.667 -13.333 50 -32.333 64 -57s21 -50.667 21 -78c0 -45.333 -14.5 -79.666 -43.5 -102.999s-66.167 -35 -111.5 -35c-48 0 -85.833 11.667 -113.5 35s-41.5 57.666 -41.5 102.999
c0 28.667 7.16699 54.834 21.5 78.501s35.833 42.5 64.5 56.5c-20.667 11.333 -36.834 26.5 -48.501 45.5s-17.5 40.167 -17.5 63.5z" />
    <glyph glyph-name="nine" unicode="9" horiz-adv-x="363" 
d="M277 328c0 38 -8.33301 67.833 -25 89.5s-40.334 32.5 -71.001 32.5c-13.333 0 -26 -3 -38 -9s-22.667 -14 -32 -24s-16.666 -21.833 -21.999 -35.5s-8 -28.167 -8 -43.5c0 -35.333 8.83301 -62 26.5 -80s42.167 -27 73.5 -27c16.667 0 31 3.5 43 10.5s22 15.5 30 25.5
s13.833 20.5 17.5 31.5s5.5 20.833 5.5 29.5zM341 274c0 -93.333 -18.167 -163.669 -54.5 -211.002s-85.833 -71 -148.5 -71c-15.333 0 -30.666 0.333008 -45.999 1s-29 3 -41 7v50c7.33301 -2 15.333 -3.66699 24 -5c16.667 -3.33301 37.667 -5 63 -5
c44.667 0 79.667 16.833 105 50.5s38 80.834 38 141.501c-6 -10 -13.333 -18.333 -22 -25s-18 -11.834 -28 -15.501s-20 -6.16699 -30 -7.5s-19 -2 -27 -2c-20.667 0 -40.167 3.83301 -58.5 11.5s-34.5 18.334 -48.5 32.001s-25 30 -33 49s-12 40.167 -12 63.5
s4 44.833 12 64.5s19 36.834 33 51.501s30.667 26 50 34s40.666 12 63.999 12c48 0 86.667 -20 116 -60s44 -95.333 44 -166z" />
    <glyph glyph-name="colon" unicode=":" horiz-adv-x="134" 
d="M97 0h-60v60h60v-60zM97 290h-60v60h60v-60z" />
    <glyph glyph-name="semicolon" unicode=";" horiz-adv-x="134" 
d="M37 60l60 -0.000976562v-60c0 -14.667 -3.66699 -28.5 -11 -41.5s-15.333 -24.5 -24 -34.5c-10.667 -12 -22.334 -22.667 -35.001 -32h-48c10.667 12 20.334 24 29.001 36c7.33301 10.667 14 22.334 20 35.001s9 25 9 37v60zM97 289.999h-60v60h60v-60z" />
    <glyph glyph-name="less" unicode="&#x3c;" horiz-adv-x="361" 
d="M102 165l252 -123v-54l-332 164v26l332 186v-56z" />
    <glyph glyph-name="equal" unicode="=" horiz-adv-x="374" 
d="M337 230h-300v50h300v-50zM337 120h-300v50h300v-50z" />
    <glyph glyph-name="greater" unicode="&#x3e;" horiz-adv-x="361" 
d="M339 152l-332 -164v54l252 123l-252 143v56l332 -186v-26z" />
    <glyph glyph-name="question" unicode="?" horiz-adv-x="314" 
d="M157 120l-59.998 0.00292969v96c0 19.333 6.16699 35.333 18.5 48s26 24.667 41 36s28.833 23.333 41.5 36s19 28.667 19 48c0 23.333 -6.83301 40.166 -20.5 50.499s-29.834 15.5 -48.501 15.5c-18 0 -33.833 -2 -47.5 -6s-25.167 -8.66699 -34.5 -14
c-11.333 -6 -21 -12.667 -29 -20v50c6 7.33301 14.333 14 25 20c9.33301 5.33301 20.833 10 34.5 14s30.834 6 51.501 6c16 0 31.833 -2.33301 47.5 -7s29.5 -11.5 41.5 -20.5s21.667 -20.5 29 -34.5s11 -30 11 -48c0 -17.333 -3 -32.333 -9 -45
s-13.333 -23.834 -22 -33.501s-18.334 -18.334 -29.001 -26.001s-20.334 -15 -29.001 -22s-16 -14.333 -22 -22s-9 -16.167 -9 -25.5v-96zM157.002 0.00292969h-60v60h60v-60z" />
    <glyph glyph-name="at" unicode="@" horiz-adv-x="654" 
d="M326 290c-26.667 0 -49.833 -8.83203 -69.5 -26.499s-29.5 -44.167 -29.5 -79.5c0 -30.667 6.5 -52.334 19.5 -65.001s26.833 -19 41.5 -19c28 0 49.667 10.5 65 31.5s23 56.5 23 106.5c0 17.333 -4.5 30.333 -13.5 39s-21.167 13 -36.5 13zM389.001 127.001
c-12 -27.333 -25.668 -47 -41.001 -59s-35.333 -18 -60 -18c-15.333 0 -30.166 2.5 -44.499 7.5s-27.166 13 -38.499 24s-20.5 25 -27.5 42s-10.5 37.167 -10.5 60.5c0 22 4.5 42.5 13.5 61.5s20.833 35.5 35.5 49.5s31.667 25 51 33s39 12 59 12
c18.667 0 34.167 -3.83301 46.5 -11.5s21.166 -17.167 26.499 -28.5l8 40h56l-28 -164c0 -14 1.33301 -26.667 4 -38c2 -9.33301 5.16699 -18 9.5 -26s10.833 -12 19.5 -12c14.667 0 27.5 4.33301 38.5 13s20.333 19.334 28 32.001s13.334 26.334 17.001 41.001
s5.5 28 5.5 40c0 19.333 -4.83301 40.333 -14.5 63s-23.667 43.667 -42 63s-41.166 35.5 -68.499 48.5s-59 19.5 -95 19.5s-68.833 -7.5 -98.5 -22.5s-55 -33.833 -76 -56.5s-37.167 -47.834 -48.5 -75.501s-17 -53.834 -17 -78.501c0 -26.667 5 -52.834 15 -78.501
s24.833 -48.667 44.5 -69s43.667 -36.666 72 -48.999s60.833 -18.5 97.5 -18.5c26 0 51.5 2.83301 76.5 8.5s47.5 12.167 67.5 19.5v-51c-22.667 -7.33301 -46 -13.666 -70 -18.999s-48.667 -8 -74 -8c-40 0 -77.5 6.5 -112.5 19.5s-65.5 31.333 -91.5 55
s-46.667 51.667 -62 84s-23 67.833 -23 106.5c0 39.333 8.16699 76.166 24.5 110.499s38.166 64.333 65.499 90s59.166 45.834 95.499 60.501s74.5 22 114.5 22c38.667 0 75 -6.16699 109 -18.5s63.667 -29.5 89 -51.5s45.333 -47.833 60 -77.5s22 -61.834 22 -96.501
c0 -26.667 -4.33301 -50.834 -13 -72.501s-20.167 -40.167 -34.5 -55.5s-30.333 -27.166 -48 -35.499s-35.5 -12.5 -53.5 -12.5c-27.333 0 -46.833 6 -58.5 18s-18.5 31.667 -20.5 59z" />
    <glyph glyph-name="A" unicode="A" horiz-adv-x="434" 
d="M187 490h60l180 -490h-60l-48 130h-206l-49 -130h-57zM217 425l-87 -245h172z" />
    <glyph glyph-name="B" unicode="B" horiz-adv-x="384" 
d="M97 235l0.000976562 -184.999h76c33.333 0 60.666 8.66699 81.999 26s32 38.666 32 63.999c0 29.333 -10.833 52.5 -32.5 69.5s-52.5 25.5 -92.5 25.5h-65zM97.001 440.001v-154.999h59c30.667 0 55.167 6.66699 73.5 20s27.5 33.333 27.5 60
c0 23.333 -7.83301 41.666 -23.5 54.999s-39.5 20 -71.5 20h-65zM37.001 0.00195312v490h140c44 0 78.333 -10.833 103 -32.5s37 -49.167 37 -82.5c0 -26 -7.66699 -49.833 -23 -71.5s-36.333 -36.167 -63 -43.5c32 -5.33301 59.333 -18.333 82 -39s34 -47.667 34 -81
c0 -20.667 -4.16699 -39.5 -12.5 -56.5s-20 -31.667 -35 -44s-32.833 -22 -53.5 -29s-43 -10.5 -67 -10.5h-142z" />
    <glyph glyph-name="C" unicode="C" horiz-adv-x="409" 
d="M402 20c-19.333 -10.667 -40.834 -18 -64.501 -22s-49.167 -6 -76.5 -6c-36 0 -68.667 5.83301 -98 17.5s-54.5 28.167 -75.5 49.5s-37.167 47.333 -48.5 78s-17 65 -17 103c0 40 6 76 18 108s28.833 59.333 50.5 82s47.5 40 77.5 52s63.333 18 100 18
c24.667 0 49.167 -1.5 73.5 -4.5s44.5 -8.16699 60.5 -15.5l-20 -50c-19.333 9.33301 -37.833 15 -55.5 17s-37.167 3 -58.5 3c-28 0 -53.5 -5 -76.5 -15s-42.5 -24.167 -58.5 -42.5s-28.5 -40.5 -37.5 -66.5s-13.5 -54.667 -13.5 -86c0 -62.667 16.833 -111.667 50.5 -147
s78.834 -53 135.501 -53c25.333 0 45.833 2.5 61.5 7.5s33.167 12.5 52.5 22.5z" />
    <glyph glyph-name="D" unicode="D" horiz-adv-x="459" 
d="M97 440v-390h71c64 0 114.833 17.667 152.5 53s56.5 84.333 56.5 147c0 64 -17.667 111.667 -53 143s-86.333 47 -153 47h-74zM37 0l-0.000976562 490.001h137c86 0 151.333 -19.833 196 -59.5s67 -99.834 67 -180.501c0 -37.333 -6.5 -71.333 -19.5 -102
s-31.167 -57 -54.5 -79s-51.666 -39 -84.999 -51s-70 -18 -110 -18h-131z" />
    <glyph glyph-name="E" unicode="E" horiz-adv-x="334" 
d="M97 50h200v-50h-260v490h260v-50h-200v-170h180v-50h-180v-170z" />
    <glyph glyph-name="F" unicode="F" horiz-adv-x="304" 
d="M277 220h-180v-220h-60v490h260v-50h-200v-170h180v-50z" />
    <glyph glyph-name="G" unicode="G" horiz-adv-x="469" 
d="M262 250l170.002 -0.00292969v-224c-25.333 -13.333 -51.666 -22.333 -78.999 -27s-57 -7 -89 -7c-35.333 0 -67.833 5.5 -97.5 16.5s-55.167 27 -76.5 48s-38 46.5 -50 76.5s-18 64 -18 102c0 38.667 6.66699 74.334 20 107.001s31.666 60.667 54.999 84
s51 41.5 83 54.5s66.667 19.5 104 19.5c24.667 0 45.667 -1.66699 63 -5s31.666 -6.66602 42.999 -9.99902c12.667 -4.66699 23.334 -9.66699 32.001 -15v-50c-8.66699 5.33301 -19.667 10.333 -33 15c-11.333 3.33301 -26.166 6.66602 -44.499 9.99902s-40.5 5 -66.5 5
c-28.667 0 -55 -5.33301 -79 -16s-44.667 -25.5 -62 -44.5s-30.833 -41.667 -40.5 -68s-14.5 -55.166 -14.5 -86.499c0 -63.333 17.167 -111.666 51.5 -144.999s80.166 -50 137.499 -50c21.333 0 39.666 1.66699 54.999 5s30.666 9 45.999 17v138h-110v50z" />
    <glyph glyph-name="H" unicode="H" horiz-adv-x="444" 
d="M347 490h60v-490h-60v230h-250v-230h-60v490h60v-210h250v210z" />
    <glyph glyph-name="I" unicode="I" horiz-adv-x="134" 
d="M97 0h-60v490h60v-490z" />
    <glyph glyph-name="J" unicode="J" horiz-adv-x="254" 
d="M157 490h60v-318c0 -58.667 -12.667 -103.334 -38 -134.001s-59.333 -46 -102 -46c-24 0 -42 1.66699 -54 5c-6.66699 2 -12 4 -16 6l20 45c4 -1.33301 8.66699 -2.66602 14 -3.99902c4.66699 -1.33301 10 -2.33301 16 -3s12.667 -1 20 -1c53.333 0 80 44 80 132v318z
" />
    <glyph glyph-name="K" unicode="K" horiz-adv-x="389" 
d="M232 323l150 -323h-62l-127 274l-96 -121v-153h-60v490h60v-248l199 248h70z" />
    <glyph glyph-name="L" unicode="L" horiz-adv-x="304" 
d="M97 50h200v-50h-260v490h60v-440z" />
    <glyph glyph-name="M" unicode="M" horiz-adv-x="584" 
d="M467 490h80v-490h-60v405l-185 -405h-30l-175 403v-403h-60v490h80l170 -400z" />
    <glyph glyph-name="N" unicode="N" horiz-adv-x="474" 
d="M377 490h60v-490h-75l-265 407v-407h-60v490h75l265 -412v412z" />
    <glyph glyph-name="O" unicode="O" horiz-adv-x="514" 
d="M251 -8c-34.667 0 -66.166 5.66895 -94.499 17.002s-52.5 27.666 -72.5 48.999s-35.333 47.166 -46 77.499s-16 64.5 -16 102.5c0 40.667 5.5 77.167 16.5 109.5s26.667 59.833 47 82.5s45.333 40 75 52s63.167 18 100.5 18c34.667 0 66.167 -6 94.5 -18
s52.666 -29 72.999 -51s36 -48.333 47 -79s16.5 -65 16.5 -103c0 -40.667 -5.66699 -77 -17 -109s-27.333 -59 -48 -81s-46 -38.667 -76 -50s-63.333 -17 -100 -17zM251.001 40.002c56 0 100.167 18.168 132.5 54.501s48.5 87.833 48.5 154.5c0 30 -4.16699 57.5 -12.5 82.5
s-20 46.167 -35 63.5s-33 30.833 -54 40.5s-44.167 14.5 -69.5 14.5c-56.667 0 -100.667 -18.833 -132 -56.5s-47 -89.5 -47 -155.5c0 -60.667 15.167 -108.834 45.5 -144.501s71.5 -53.5 123.5 -53.5z" />
    <glyph glyph-name="P" unicode="P" horiz-adv-x="359" 
d="M97 440v-210h62c39.333 0 68.833 10.167 88.5 30.5s29.5 46.5 29.5 78.5c0 32.667 -7.5 57.667 -22.5 75s-42.167 26 -81.5 26h-76zM97 180v-179.999h-60v490h136c52 0 92.333 -12.833 121 -38.5s43 -62.834 43 -111.501c0 -48 -15.667 -86.667 -47 -116
s-75 -44 -131 -44h-62z" />
    <glyph glyph-name="Q" unicode="Q" horiz-adv-x="514" 
d="M251 -8c-34.667 0 -66.1641 5.6709 -94.4971 17.0039s-52.5 27.666 -72.5 48.999s-35.333 47.166 -46 77.499s-16 64.5 -16 102.5c0 40.667 5.5 77.167 16.5 109.5s26.667 59.833 47 82.5s45.333 40 75 52s63.167 18 100.5 18c34.667 0 66.167 -6 94.5 -18
s52.666 -29 72.999 -51s36 -48.333 47 -79s16.5 -65 16.5 -103c0 -55.333 -10.167 -102.333 -30.5 -141s-48.5 -68 -84.5 -88c8 -3.33301 16.333 -7.33301 25 -12s16.5 -10.5 23.5 -17.5s12.667 -15.333 17 -25s6.5 -20.834 6.5 -33.501h-56
c0 9.33301 -2.66699 17.666 -8 24.999s-11.833 13.833 -19.5 19.5s-15.834 10.5 -24.501 14.5s-16 7 -22 9c-22.667 -5.33301 -45.334 -8 -68.001 -8zM251.003 40.0039c56 0 100.167 18.168 132.5 54.501s48.5 87.833 48.5 154.5c0 30 -4.16699 57.5 -12.5 82.5
s-20 46.167 -35 63.5s-33 30.833 -54 40.5s-44.167 14.5 -69.5 14.5c-56.667 0 -100.667 -18.833 -132 -56.5s-47 -89.5 -47 -155.5c0 -60.667 15.167 -108.834 45.5 -144.501s71.5 -53.5 123.5 -53.5z" />
    <glyph glyph-name="R" unicode="R" horiz-adv-x="399" 
d="M97 440l0.000976562 -179.999h78c29.333 0 53.666 8 72.999 24s29 40 29 72c0 25.333 -9 45.666 -27 60.999s-43 23 -75 23h-78zM392.001 0.000976562h-67.999l-85 136c-14.667 23.333 -28.834 41.5 -42.501 54.5s-31.167 19.5 -52.5 19.5h-47v-210h-60v490h150
c20 0 39.167 -2.83301 57.5 -8.5s34.333 -14.167 48 -25.5s24.5 -25.333 32.5 -42s12 -36 12 -58c0 -34 -10.667 -60.833 -32 -80.5s-48.333 -33.167 -81 -40.5c15.333 -5.33301 28.833 -17 40.5 -35l34.5 -54z" />
    <glyph glyph-name="S" unicode="S" horiz-adv-x="394" 
d="M337 420c-10.667 5.33301 -22.665 10.333 -35.998 15c-12 3.33301 -26.5 6.66602 -43.5 9.99902s-37.167 5 -60.5 5c-11.333 0 -23 -1.66699 -35 -5s-22.833 -8 -32.5 -14s-17.5 -13.333 -23.5 -22s-9 -18.334 -9 -29.001c0 -18.667 6.5 -33.5 19.5 -44.5
s29 -20.333 48 -28s39.833 -15.167 62.5 -22.5s43.5 -16.666 62.5 -27.999s35 -26.166 48 -44.499s19.5 -42.5 19.5 -72.5c0 -19.333 -2.5 -38 -7.5 -56s-14 -33.833 -27 -47.5s-30.833 -24.5 -53.5 -32.5s-51.334 -12 -86.001 -12c-24 0 -45.167 1.83301 -63.5 5.5
s-33.5 8.16699 -45.5 13.5c-14.667 5.33301 -27 11.666 -37 18.999v50c13.333 -7.33301 28 -14 44 -20c13.333 -5.33301 28.833 -10 46.5 -14s36.167 -6 55.5 -6c36.667 0 64.834 8.83301 84.501 26.5s29.5 42.167 29.5 73.5c0 22.667 -6.5 40.5 -19.5 53.5
s-29 23.667 -48 32s-39.833 15.833 -62.5 22.5s-43.5 15 -62.5 25s-35 23.333 -48 40s-19.5 39 -19.5 67c0 19.333 4.66699 36.5 14 51.5s21.5 27.5 36.5 37.5s32.167 17.667 51.5 23s38.666 8 57.999 8c23.333 0 44 -1.66699 62 -5s32.667 -6.66602 44 -9.99902
c13.333 -4.66699 24.666 -9.66699 33.999 -15v-50z" />
    <glyph glyph-name="T" unicode="T" horiz-adv-x="349" 
d="M7 490h335v-50h-135v-440h-60v440h-140v50z" />
    <glyph glyph-name="U" unicode="U" horiz-adv-x="444" 
d="M347 490h60.001v-297c0 -69.333 -16 -120.166 -48 -152.499s-79.333 -48.5 -142 -48.5c-60 0 -105 15.667 -135 47s-45 80.333 -45 147v304h60v-300c0 -50 9.16699 -87.5 27.5 -112.5s49.166 -37.5 92.499 -37.5c42 0 74.167 11.667 96.5 35s33.5 59.666 33.5 108.999
v306z" />
    <glyph glyph-name="V" unicode="V" horiz-adv-x="434" 
d="M67 490l150 -420l150 420h60l-180 -490h-60l-180 490h60z" />
    <glyph glyph-name="W" unicode="W" horiz-adv-x="644" 
d="M452 70l125 420h60l-150 -490h-70l-90 390l-110 -390h-70l-140 490h60l115 -420l125 420h40z" />
    <glyph glyph-name="X" unicode="X" horiz-adv-x="404" 
d="M397 490l-160 -245l160 -245h-70l-125 195l-125 -195h-70l160 245l-150 245h70l115 -195l125 195h70z" />
    <glyph glyph-name="Y" unicode="Y" horiz-adv-x="384" 
d="M187 239l130 251h60l-160 -311v-179h-60v176l-150 314h60z" />
    <glyph glyph-name="Z" unicode="Z" horiz-adv-x="384" 
d="M27 490h350v-15l-280 -425h269l1 -50h-360v15l280 425h-260v50z" />
    <glyph glyph-name="bracketleft" unicode="[" horiz-adv-x="196" 
d="M189 -139h-152v664h152v-49h-98v-566h98v-49z" />
    <glyph glyph-name="backslash" unicode="\" horiz-adv-x="231" 
d="M63 602l161 -602h-56l-161 602h56z" />
    <glyph glyph-name="bracketright" unicode="]" horiz-adv-x="196" 
d="M7 525h152v-664h-152v49h98v566h-98v49z" />
    <glyph glyph-name="asciicircum" unicode="^" horiz-adv-x="452" 
d="M216 445l-123 -252h-56l166 332h26l186 -332h-56z" />
    <glyph glyph-name="underscore" unicode="_" horiz-adv-x="374" 
d="M337 -48h-300v48h300v-48z" />
    <glyph glyph-name="grave" unicode="`" horiz-adv-x="212" 
d="M37 551h60l78 -111h-50z" />
    <glyph glyph-name="a" unicode="a" horiz-adv-x="354" 
d="M317 0l-54.999 -0.000976562v40c-9.33301 -10.667 -22.833 -21.334 -40.5 -32.001s-39.167 -16 -64.5 -16c-35.333 0 -64.5 8.5 -87.5 25.5s-33.833 42.833 -32.5 77.5c0.666992 22 5.5 39.833 14.5 53.5s20 24.334 33 32.001s26.833 12.834 41.5 15.501
s28.334 4 41.001 4c17.333 0 32.166 0.666992 44.499 2s22.166 3 29.499 5c8.66699 2.66699 15.667 5.33398 21 8.00098c0 38 -8.5 65 -25.5 81s-39.5 24 -67.5 24c-20.667 0 -38 -3.5 -52 -10.5s-25.667 -14.5 -35 -22.5c-10.667 -9.33301 -19 -20 -25 -32l-20 45
c6.66699 12 16 22.667 28 32c10 8 23.5 15.5 40.5 22.5s38.167 10.5 63.5 10.5c17.333 0 34.833 -2.33301 52.5 -7s33.5 -12.334 47.5 -23.001s25.5 -24.667 34.5 -42s13.5 -38.333 13.5 -63v-230zM167.001 34.999c20 0 38.834 5.49902 56.501 16.499s30.5 22.167 38.5 33.5
v85l-28 -8c-8 -2 -17 -3.66699 -27 -5s-20 -2 -30 -2s-20 -1.16699 -30 -3.5s-19.167 -6 -27.5 -11s-15 -11.333 -20 -19s-7.5 -16.5 -7.5 -26.5c0 -23.333 7.66699 -39.166 23 -47.499s32.666 -12.5 51.999 -12.5z" />
    <glyph glyph-name="b" unicode="b" horiz-adv-x="404" 
d="M92 95c10.667 -10.667 22 -20.0029 34 -28.0029c10.667 -7.33301 23.334 -13.666 38.001 -18.999s30.667 -8 48 -8c12.667 0 25.667 2.66699 39 8s25.666 13.833 36.999 25.5s20.666 26.667 27.999 45s11 40.833 11 67.5c0 20.667 -3.66699 39.334 -11 56.001
s-16.666 30.834 -27.999 42.501s-23.666 20.5 -36.999 26.5s-26.333 9 -39 9c-17.333 0 -33.333 -2.83301 -48 -8.5s-27.334 -12.167 -38.001 -19.5c-12 -8 -23.333 -17 -34 -27v-170zM92 -0.00292969l-55 0.00195312v520h55v-210c8 10 18 19 30 27
c10 7.33301 22.5 13.833 37.5 19.5s32.5 8.5 52.5 8.5c17.333 0 36 -3.5 56 -10.5s38.5 -17.833 55.5 -32.5s31 -33.334 42 -56.001s16.5 -49.334 16.5 -80.001c0 -34 -5.16699 -63 -15.5 -87s-23.5 -43.5 -39.5 -58.5s-34.167 -26 -54.5 -33s-40.5 -10.5 -60.5 -10.5
s-37.5 2.66699 -52.5 8s-27.5 11.333 -37.5 18c-12 7.33301 -22 16.333 -30 27v-50z" />
    <glyph glyph-name="c" unicode="c" horiz-adv-x="304" 
d="M297 20c-8 -4.66699 -17 -8.66699 -27 -12c-8.66699 -3.33301 -19 -6 -31 -8s-25 -3 -39 -3c-26 0 -49.833 3.83301 -71.5 11.5s-40.5 18.834 -56.5 33.501s-28.333 32.667 -37 54s-13 46 -13 74c0 29.333 4.5 56 13.5 80s21.667 44.5 38 61.5s35.666 30.167 57.999 39.5
s46.833 14 73.5 14c13.333 0 25.333 -1.33301 36 -4s20.334 -5.66699 29.001 -9c9.33301 -3.33301 18.333 -7.33301 27 -12l-20 -45c-6 4.66699 -12.667 8.66699 -20 12c-6.66699 3.33301 -14.334 6.33301 -23.001 9s-18.334 4 -29.001 4
c-17.333 0 -33.666 -3.5 -48.999 -10.5s-28.833 -17 -40.5 -30s-21 -28.667 -28 -47s-10.5 -39.166 -10.5 -62.499c0 -22.667 3.5 -42.167 10.5 -58.5s16.333 -29.833 28 -40.5s25.167 -18.5 40.5 -23.5s31.666 -7.5 48.999 -7.5c10.667 0 20.334 1.16699 29.001 3.5
s16.334 5.16602 23.001 8.49902c7.33301 3.33301 14 7.66602 20 12.999z" />
    <glyph glyph-name="d" unicode="d" horiz-adv-x="404" 
d="M312 265c-10.667 10 -22 19.0029 -34 27.0029c-10.667 7.33301 -23.334 13.833 -38.001 19.5s-30.667 8.5 -48 8.5c-12.667 0 -25.667 -3 -39 -9s-25.666 -14.833 -36.999 -26.5s-20.666 -25.834 -27.999 -42.501s-11 -35.334 -11 -56.001
c0 -26.667 3.66699 -49.167 11 -67.5s16.666 -33.333 27.999 -45s23.666 -20.167 36.999 -25.5s26.333 -8 39 -8c17.333 0 33.333 2.66699 48 8s27.334 11.666 38.001 18.999c12 8 23.333 17.333 34 28v170zM367 0.00292969l-55 -0.00195312v50
c-8 -10.667 -18 -19.667 -30 -27c-10 -6.66699 -22.5 -12.667 -37.5 -18s-32.5 -8 -52.5 -8s-40.167 3.5 -60.5 10.5s-38.5 18 -54.5 33s-29.167 34.5 -39.5 58.5s-15.5 53 -15.5 87c0 30.667 5.5 57.334 16.5 80.001s25 41.334 42 56.001s35.5 25.5 55.5 32.5
s38.667 10.5 56 10.5c20 0 37.5 -2.83301 52.5 -8.5s27.5 -12.167 37.5 -19.5c12 -8 22 -17 30 -27v210h55v-520z" />
    <glyph glyph-name="e" unicode="e" horiz-adv-x="353" 
d="M274 210c-1.33301 34 -10 60.833 -26 80.5s-38 29.5 -66 29.5c-27.333 0 -50.5 -10.333 -69.5 -31s-30.833 -47 -35.5 -79h197zM331 165l-253.999 0.00390625c0 -42.667 11.167 -74.167 33.5 -94.5s49.833 -30.5 82.5 -30.5c18 0 33 1.66699 45 5s21.667 7.33301 29 12
c8 5.33301 14.667 11.333 20 18l20 -45c-8.66699 -6.66699 -18.667 -12.334 -30 -17.001c-10 -4 -22 -7.66699 -36 -11s-30 -5 -48 -5c-25.333 0 -48.333 3.33301 -69 10s-38.667 17.167 -54 31.5s-27.166 32.666 -35.499 54.999s-12.5 49.166 -12.5 80.499
c0 27.333 4 52.666 12 75.999s19.167 43.5 33.5 60.5s31.166 30.333 50.499 40s40.666 14.5 63.999 14.5c46 0 82.333 -15 109 -45s40 -73 40 -129v-26z" />
    <glyph glyph-name="f" unicode="f" horiz-adv-x="234" 
d="M72 305l-65.0029 0.00195312v45h65v54c0 39.333 7.83301 70.166 23.5 92.499s40.5 33.5 74.5 33.5c11.333 0 20.833 -0.333008 28.5 -1s13.5 -1.33398 17.5 -2.00098c4.66699 -0.666992 8.33398 -1.33398 11.001 -2.00098v-45
c-2.66699 0.666992 -5.66699 1.33398 -9 2.00098s-7.16602 1.33398 -11.499 2.00098s-10.166 1 -17.499 1c-21.333 0 -37 -6.33301 -47 -19s-15 -33.334 -15 -62.001v-54h100v-45h-100v-305h-55v305z" />
    <glyph glyph-name="g" unicode="g" horiz-adv-x="404" 
d="M312 360l54.999 -0.000976562v-349c0 -64.667 -15.333 -111.5 -46 -140.5s-78.667 -43.5 -144 -43.5c-20 0 -37.5 1.66699 -52.5 5s-27.5 7.33301 -37.5 12c-12 5.33301 -22 11.333 -30 18l20 45c6.66699 -6.66699 14.667 -12.667 24 -18
c8 -4.66699 18.333 -8.66699 31 -12s27.667 -5 45 -5c44.667 0 78.334 10 101.001 30s34 53 34 99v49c-8 -10.667 -18 -19.667 -30 -27c-10 -6.66699 -22.5 -12.667 -37.5 -18s-32.5 -8 -52.5 -8c-17.333 0 -36 3.33301 -56 10s-38.5 17.334 -55.5 32.001s-31 33 -42 55
s-16.5 48.667 -16.5 80c0 34 5.16699 63 15.5 87s23.5 43.833 39.5 59.5s34.167 27 54.5 34s40.5 10.5 60.5 10.5s37.5 -2.83301 52.5 -8.5s27.5 -12.167 37.5 -19.5c12 -8 22 -17 30 -27v50zM311.999 264.999c-10.667 10 -22 19 -34 27
c-10.667 7.33301 -23.334 13.833 -38.001 19.5s-30.667 8.5 -48 8.5c-12.667 0 -25.667 -2.66699 -39 -8s-25.666 -13.833 -36.999 -25.5s-20.666 -26.667 -27.999 -45s-11 -40.833 -11 -67.5c0 -21.333 3.66699 -40.166 11 -56.499s16.666 -30.333 27.999 -42
s23.666 -20.5 36.999 -26.5s26.333 -9 39 -9c17.333 0 33.333 2.66699 48 8s27.334 11.666 38.001 18.999c12 8 23.333 17.333 34 28v170z" />
    <glyph glyph-name="h" unicode="h" horiz-adv-x="374" 
d="M337 0l-55.001 -0.000976562v236c0 24 -8.66699 43.167 -26 57.5s-38.666 21.5 -63.999 21.5c-17.333 0 -32.333 -3.16699 -45 -9.5s-23 -13.166 -31 -20.499c-9.33301 -8.66699 -17.333 -18.667 -24 -30v-255h-55v520h55v-220c6 12 14.333 22.667 25 32
c9.33301 8 20.833 15.5 34.5 22.5s30.5 10.5 50.5 10.5c24 0 44.667 -3.33301 62 -10s31.333 -16 42 -28s18.5 -26 23.5 -42s7.5 -33.333 7.5 -52v-233z" />
    <glyph glyph-name="i" unicode="i" horiz-adv-x="129" 
d="M92 0h-55v360h55v-360zM92 416h-55v54h55v-54z" />
    <glyph glyph-name="j" unicode="j" horiz-adv-x="129" 
d="M-81 -113l12.001 -8.00098c8 -4.66699 16.667 -7 26 -7c25.333 0 45 10.333 59 31s21 51.667 21 93v364h55v-354c0 -56.667 -11.833 -100.667 -35.5 -132s-56.834 -47 -99.501 -47c-10.667 0 -19.5 0.666992 -26.5 2s-12.833 3 -17.5 5
c-5.33301 2.66699 -10 5.33398 -14 8.00098zM92.001 415.999h-55v54h55v-54z" />
    <glyph glyph-name="k" unicode="k" horiz-adv-x="329" 
d="M92 159l153 191h61l-93 -116l109 -234h-52l-89 194l-89 -112v-82h-55v520h55v-361z" />
    <glyph glyph-name="l" unicode="l" horiz-adv-x="129" 
d="M92 0h-55v520h55v-520z" />
    <glyph glyph-name="m" unicode="m" horiz-adv-x="619" 
d="M582 0l-55 -0.00292969v236c0 24 -8.66699 43.167 -26 57.5s-38.666 21.5 -63.999 21.5c-17.333 0 -32.333 -3.16699 -45 -9.5s-23 -13.166 -31 -20.499c-9.33301 -8.66699 -17.333 -18.667 -24 -30v-255h-55v236c0 24 -8.66699 43.167 -26 57.5
s-38.666 21.5 -63.999 21.5c-17.333 0 -32.333 -3.16699 -45 -9.5s-23 -13.166 -31 -20.499c-9.33301 -8.66699 -17.333 -18.667 -24 -30v-255h-55v360h55v-60c0 0.666992 2.16699 4.5 6.5 11.5s11 14.5 20 22.5s20.333 15.167 34 21.5s30.167 9.5 49.5 9.5
c34 0 60.667 -6.33301 80 -19s33.666 -29.334 42.999 -50.001c2.66699 4 7.16699 9.83301 13.5 17.5s14.666 15.334 24.999 23.001s22.5 14.334 36.5 20.001s29.667 8.5 47 8.5c24 0 44.667 -3.33301 62 -10s31.333 -16 42 -28s18.5 -26 23.5 -42s7.5 -33.333 7.5 -52v-233z
" />
    <glyph glyph-name="n" unicode="n" horiz-adv-x="374" 
d="M337 0l-55.001 -0.000976562v236c0 24 -8.66699 43.167 -26 57.5s-38.666 21.5 -63.999 21.5c-17.333 0 -32.333 -3.16699 -45 -9.5s-23 -13.166 -31 -20.499c-9.33301 -8.66699 -17.333 -18.667 -24 -30v-255h-55v360h55v-60c6 12 14.333 22.667 25 32
c9.33301 8 20.833 15.5 34.5 22.5s30.5 10.5 50.5 10.5c24 0 44.667 -3.33301 62 -10s31.333 -16 42 -28s18.5 -26 23.5 -42s7.5 -33.333 7.5 -52v-233z" />
    <glyph glyph-name="o" unicode="o" horiz-adv-x="393" 
d="M193 -3c-52 0 -93.5 15.501 -124.5 46.501s-46.5 74.833 -46.5 131.5c0 60.667 15.833 107.5 47.5 140.5s75.167 49.5 130.5 49.5c52 0 93.5 -16.167 124.5 -48.5s46.5 -76.833 46.5 -133.5c0 -60.667 -15.833 -106.834 -47.5 -138.501s-75.167 -47.5 -130.5 -47.5z
M193 40.001c38 0 68 12.334 90 37.001s33 60 33 106c0 42 -10.5 75.333 -31.5 100s-49.167 37 -84.5 37c-38 0 -68 -12.667 -90 -38s-33 -61 -33 -107c0 -42.667 10.5 -75.834 31.5 -99.501s49.167 -35.5 84.5 -35.5z" />
    <glyph glyph-name="p" unicode="p" horiz-adv-x="404" 
d="M92 95c10.667 -10.667 22 -20 34 -28c10.667 -7.33301 23.334 -13.666 38.001 -18.999s30.667 -8 48 -8c12.667 0 25.667 3 39 9s25.666 14.833 36.999 26.5s20.666 25.667 27.999 42s11 35.166 11 56.499c0 26.667 -3.66699 49.167 -11 67.5s-16.666 33.333 -27.999 45
s-23.666 20.167 -36.999 25.5s-26.333 8 -39 8c-17.333 0 -33.333 -2.83301 -48 -8.5s-27.334 -12.167 -38.001 -19.5c-12 -8 -23.333 -17 -34 -27v-170zM37 360l55 0.000976562v-50c8 10 18 19 30 27c10 7.33301 22.5 13.833 37.5 19.5s32.5 8.5 52.5 8.5
s40.167 -3.5 60.5 -10.5s38.5 -18.333 54.5 -34s29.167 -35.5 39.5 -59.5s15.5 -53 15.5 -87c0 -31.333 -5.5 -58 -16.5 -80s-25 -40.333 -42 -55s-35.5 -25.334 -55.5 -32.001s-38.667 -10 -56 -10c-20 0 -37.5 2.66699 -52.5 8s-27.5 11.333 -37.5 18
c-12 7.33301 -22 16.333 -30 27v-208h-55v518z" />
    <glyph glyph-name="q" unicode="q" horiz-adv-x="404" 
d="M312 265c-10.667 10 -22 19 -34 27c-10.667 7.33301 -23.334 13.833 -38.001 19.5s-30.667 8.5 -48 8.5c-12.667 0 -25.667 -2.66699 -39 -8s-25.666 -13.833 -36.999 -25.5s-20.666 -26.667 -27.999 -45s-11 -40.833 -11 -67.5c0 -21.333 3.66699 -40.166 11 -56.499
s16.666 -30.333 27.999 -42s23.666 -20.5 36.999 -26.5s26.333 -9 39 -9c17.333 0 33.333 2.66699 48 8s27.334 11.666 38.001 18.999c12 8 23.333 17.333 34 28v170zM312 360l55 -0.000976562v-518h-55v208c-8 -10.667 -18 -19.667 -30 -27
c-10 -6.66699 -22.5 -12.667 -37.5 -18s-32.5 -8 -52.5 -8c-17.333 0 -36 3.33301 -56 10s-38.5 17.334 -55.5 32.001s-31 33 -42 55s-16.5 48.667 -16.5 80c0 34 5.16699 63 15.5 87s23.5 43.833 39.5 59.5s34.167 27 54.5 34s40.5 10.5 60.5 10.5s37.5 -2.83301 52.5 -8.5
s27.5 -12.167 37.5 -19.5c12 -8 22 -17 30 -27v50z" />
    <glyph glyph-name="r" unicode="r" horiz-adv-x="226" 
d="M219 305c-3.33301 0.666992 -6.99707 1.33301 -10.9971 2c-3.33301 0.666992 -7.16602 1.33398 -11.499 2.00098s-9.16602 1 -14.499 1c-10 0 -20.333 -5.16699 -31 -15.5s-20.334 -21.5 -29.001 -33.5c-10.667 -14.667 -20.667 -31 -30 -49v-212h-55v360h55v-95
c6 18.667 13.333 35.334 22 50.001c7.33301 12.667 16.666 24.167 27.999 34.5s24.666 15.5 39.999 15.5c5.33301 0 10.166 -0.333008 14.499 -1s8.16602 -1.33398 11.499 -2.00098c4 -0.666992 7.66699 -1.33398 11 -2.00098v-55z" />
    <glyph glyph-name="s" unicode="s" horiz-adv-x="314" 
d="M257 300c-6.66699 4.66699 -14.998 8.66602 -24.998 11.999c-8.66699 3.33301 -19.167 6.33301 -31.5 9s-26.833 4 -43.5 4s-31.667 -5.33301 -45 -16s-20 -23.667 -20 -39c0 -14 4.5 -24.333 13.5 -31s20.5 -12.334 34.5 -17.001s28.833 -9 44.5 -13s30.5 -10 44.5 -18
s25.5 -19.167 34.5 -33.5s13.5 -33.5 13.5 -57.5c0 -14 -2.5 -27.5 -7.5 -40.5s-13 -24.5 -24 -34.5s-25.5 -18 -43.5 -24s-39.667 -9 -65 -9c-15.333 0 -29.166 1 -41.499 3s-22.833 4.66699 -31.5 8c-10.667 3.33301 -19.667 7.33301 -27 12v45
c7.33301 -5.33301 16.333 -9.66602 27 -12.999c8.66699 -3.33301 19.167 -6.16602 31.5 -8.49902s26.166 -3.5 41.499 -3.5c27.333 0 48.333 5.33301 63 16s22 27 22 49c0 16.667 -4.5 29.667 -13.5 39s-20.5 16.833 -34.5 22.5s-28.833 10.5 -44.5 14.5
s-30.5 9.5 -44.5 16.5s-25.5 16.5 -34.5 28.5s-13.5 28.333 -13.5 49c0 14 3.66699 27 11 39s16.666 22.5 27.999 31.5s24.166 16.167 38.499 21.5s28.5 8 42.5 8c17.333 0 32.333 -1.33301 45 -4s23 -5.66699 31 -9c9.33301 -3.33301 17.333 -7.33301 24 -12v-45z" />
    <glyph glyph-name="t" unicode="t" horiz-adv-x="234" 
d="M72 305l-64.9971 0.00195312v45h65v170h55v-170h100v-45h-100v-184c0 -28.667 5 -49.334 15 -62.001s25.667 -19 47 -19c7.33301 0 13.166 0.166992 17.499 0.5s8.16602 0.833008 11.499 1.5s6.33301 1.66699 9 3v-45
c-2.66699 -0.666992 -6.33398 -1.33398 -11.001 -2.00098c-4 -0.666992 -9.83301 -1 -17.5 -1h-28.5c-34 0 -58.833 10.833 -74.5 32.5s-23.5 52.167 -23.5 91.5v184z" />
    <glyph glyph-name="u" unicode="u" horiz-adv-x="374" 
d="M37 360l55.001 -0.00195312v-236c0 -24 8.66699 -43.167 26 -57.5s38.666 -21.5 63.999 -21.5c17.333 0 32.333 3.16699 45 9.5s23 13.166 31 20.499c9.33301 8.66699 17.333 18.667 24 30v255h55v-360h-55v60c-6 -12 -14.333 -22.667 -25 -32
c-9.33301 -8 -21 -15.167 -35 -21.5s-30.667 -9.5 -50 -9.5c-24 0 -44.667 3.33301 -62 10s-31.333 15.834 -42 27.501s-18.5 25.334 -23.5 41.001s-7.5 32.834 -7.5 51.501v233z" />
    <glyph glyph-name="v" unicode="v" horiz-adv-x="344" 
d="M177 65l105 295h55l-125 -360h-70l-135 360h65z" />
    <glyph glyph-name="w" unicode="w" horiz-adv-x="519" 
d="M367 65l85 295h60l-110 -360h-60l-80 285l-90 -285h-65l-100 360h65l75 -295l95 295h40z" />
    <glyph glyph-name="x" unicode="x" horiz-adv-x="314" 
d="M157 225l90 135h60l-120 -185l120 -175h-60l-90 130l-90 -130h-60l120 180l-120 180h60z" />
    <glyph glyph-name="y" unicode="y" horiz-adv-x="368" 
d="M27 -113l12 -8.00195c8 -4.66699 17.333 -7 28 -7c14.667 0 27.334 3.16699 38.001 9.5s19.667 18.833 27 37.5l34 81l-155 360h60l125 -285l105 285h60l-168 -429c-7.33301 -18 -14.5 -33.667 -21.5 -47s-15.167 -24.166 -24.5 -32.499s-20.333 -14.5 -33 -18.5
s-28.334 -6 -47.001 -6c-10.667 0 -19.5 0.666992 -26.5 2s-13.167 3 -18.5 5c-6 2.66699 -11 5.33398 -15 8.00098z" />
    <glyph glyph-name="z" unicode="z" horiz-adv-x="332" 
d="M56 360h269v-19l-203 -296h200v-45h-285v16l205 299h-186v45z" />
    <glyph glyph-name="braceleft" unicode="{" horiz-adv-x="209" 
d="M202 -173c-78.667 0 -118 40.668 -118 122.001v118c0 52.667 -20.667 81.667 -62 87v43c20 2 35.333 9.66699 46 23s16 33.666 16 60.999v117c0 42 9.66699 73.167 29 93.5s49 31.5 89 33.5v-49c-19.333 -1.33301 -34.5 -8.66602 -45.5 -21.999
s-16.5 -32.666 -16.5 -57.999v-120c0 -26.667 -5 -48.834 -15 -66.501s-26.667 -29.834 -50 -36.501c22 -5.33301 38.333 -16.833 49 -34.5s16 -40.5 16 -68.5v-114c0 -28.667 4.5 -49.167 13.5 -61.5s25.167 -18.5 48.5 -18.5v-49z" />
    <glyph glyph-name="bar" unicode="|" horiz-adv-x="130" 
d="M93 -124h-56v698h56v-698z" />
    <glyph glyph-name="braceright" unicode="}" horiz-adv-x="209" 
d="M7 -124c23.333 0 39.5 6.16602 48.5 18.499s13.5 32.833 13.5 61.5v114c0 28 5.33301 50.833 16 68.5s27 29.167 49 34.5c-23.333 6.66699 -40 18.834 -50 36.501s-15 39.834 -15 66.501v120c0 25.333 -5.5 44.666 -16.5 57.999s-26.167 20.666 -45.5 21.999v49
c40 -2 69.667 -13.167 89 -33.5s29 -51.5 29 -93.5v-117c0 -27.333 5.33301 -47.666 16 -60.999s26 -21 46 -23v-43c-41.333 -5.33301 -62 -34.333 -62 -87v-118c0 -81.333 -39.333 -122 -118 -122v49z" />
    <glyph glyph-name="asciitilde" unicode="~" horiz-adv-x="373" 
d="M336 259c-1.33301 -32 -9.33789 -55.667 -24.0049 -71s-35 -23 -61 -23c-13.333 0 -25.5 2.66699 -36.5 8s-21.667 11.333 -32 18s-20.5 12.667 -30.5 18s-20.333 8 -31 8c-28.667 0 -43 -17.333 -43 -52h-41c0 27.333 7.33301 49.833 22 67.5s35.334 26.5 62.001 26.5
c12.667 0 24.334 -2.83301 35.001 -8.5s21.334 -11.667 32.001 -18s21.334 -12.333 32.001 -18s22.334 -8.5 35.001 -8.5c10.667 0 19.5 4.5 26.5 13.5s11.167 22.167 12.5 39.5h42z" />
    <glyph glyph-name="copyright" unicode="&#xa9;" horiz-adv-x="657" 
d="M438 74c-13.333 -7.33301 -28.167 -12.334 -44.5 -15.001s-33.5 -4 -51.5 -4c-52.667 0 -94.834 16.167 -126.501 48.5s-47.5 76.833 -47.5 133.5c0 28.667 4.33301 54.334 13 77.001s20.834 42 36.501 58s34.5 28.333 56.5 37s46.333 13 73 13c15.333 0 31.333 -1 48 -3
s31 -5.33301 43 -10l-12 -26c-12 5.33301 -24.833 8.83301 -38.5 10.5s-27.167 2.5 -40.5 2.5c-22 0 -42 -3.83301 -60 -11.5s-33.167 -18.5 -45.5 -32.5s-22 -30.833 -29 -50.5s-10.5 -41.167 -10.5 -64.5c0 -48.667 13.167 -86.667 39.5 -114s61.5 -41 105.5 -41
c17.333 0 31.5 1.5 42.5 4.5s23.167 8.16699 36.5 15.5zM36.999 241.999c0 40.667 7.66699 78.667 23 114s36.166 66.166 62.499 92.499s57.166 47 92.499 62s73.333 22.5 114 22.5s78.667 -7.5 114 -22.5s66.166 -35.667 92.499 -62s47 -57.166 62 -92.499
s22.5 -73.333 22.5 -114s-7.5 -78.5 -22.5 -113.5s-35.667 -65.5 -62 -91.5s-57.166 -46.5 -92.499 -61.5s-73.333 -22.5 -114 -22.5s-78.667 7.5 -114 22.5s-66.166 35.5 -92.499 61.5s-47.166 56.5 -62.499 91.5s-23 72.833 -23 113.5zM66.999 241.999
c0 -36 6.83301 -69.833 20.5 -101.5s32.334 -59.167 56.001 -82.5s51.5 -41.666 83.5 -54.999s66 -20 102 -20s70 6.66699 102 20s59.667 31.666 83 54.999s41.833 50.833 55.5 82.5s20.5 65.5 20.5 101.5s-6.83301 70 -20.5 102s-32.167 59.667 -55.5 83
s-51 41.833 -83 55.5s-66 20.5 -102 20.5s-70 -6.83301 -102 -20.5s-59.833 -32.167 -83.5 -55.5s-42.334 -51 -56.001 -83s-20.5 -66 -20.5 -102z" />
    <glyph glyph-name="registered" unicode="&#xae;" horiz-adv-x="657" 
d="M261 399v-144.999h53c12 0 23.5 1.66699 34.5 5s20.667 8.16602 29 14.499s15.166 14.333 20.499 24s8 21.167 8 34.5c0 20 -7.16699 36.167 -21.5 48.5s-34.166 18.5 -59.499 18.5h-64zM479 70.001l-41.001 0.000976562l-60 99c-10.667 17.333 -23.667 31.333 -39 42
s-27.666 16 -36.999 16h-41v-157h-34v357h107c29.333 0 54.333 -8 75 -24s31 -39.667 31 -71c0 -16 -2.33301 -29.667 -7 -41s-11 -20.833 -19 -28.5s-17.333 -13.667 -28 -18s-21.667 -7.5 -33 -9.5c12 -6.66699 23 -15.334 33 -26.001s17.667 -20.667 23 -30z
M36.999 242.002c0 40.667 7.66699 78.667 23 114s36.166 66.166 62.499 92.499s57.166 47 92.499 62s73.333 22.5 114 22.5s78.667 -7.5 114 -22.5s66.166 -35.667 92.499 -62s47 -57.166 62 -92.499s22.5 -73.333 22.5 -114s-7.5 -78.5 -22.5 -113.5
s-35.667 -65.5 -62 -91.5s-57.166 -46.5 -92.499 -61.5s-73.333 -22.5 -114 -22.5s-78.667 7.5 -114 22.5s-66.166 35.5 -92.499 61.5s-47.166 56.5 -62.499 91.5s-23 72.833 -23 113.5zM66.999 242.002c0 -36 6.83301 -69.833 20.5 -101.5s32.334 -59.167 56.001 -82.5
s51.5 -41.666 83.5 -54.999s66 -20 102 -20s70 6.66699 102 20s59.667 31.666 83 54.999s41.833 50.833 55.5 82.5s20.5 65.5 20.5 101.5s-6.83301 70 -20.5 102s-32.167 59.667 -55.5 83s-51 41.833 -83 55.5s-66 20.5 -102 20.5s-70 -6.83301 -102 -20.5
s-59.833 -32.167 -83.5 -55.5s-42.334 -51 -56.001 -83s-20.5 -66 -20.5 -102z" />
    <glyph glyph-name="onequarter" unicode="&#xbc;" horiz-adv-x="691" 
d="M574 602l-361 -602h-56l361 602h56zM137 590l-0.000976562 -270h-33v226c-6 -4 -14.667 -9 -26 -15s-22.666 -10.333 -33.999 -13v28c8 3.33301 15.833 7.5 23.5 12.5s14.167 9.83301 19.5 14.5c6.66699 5.33301 12.667 11 18 17h32zM600.999 241l-87 -127h87v127z
M477.999 114l123 176h33v-176h34v-28h-34v-66h-33v66h-123v28z" />
    <glyph glyph-name="onehalf" unicode="&#xbd;" horiz-adv-x="704" 
d="M574 602l-361 -602h-56l361 602h56zM137 590l-0.000976562 -270h-33v226c-6 -4 -14.667 -9 -26 -15s-22.666 -10.333 -33.999 -13v28c8 3.33301 15.833 7.5 23.5 12.5s14.167 9.83301 19.5 14.5c6.66699 5.33301 12.667 11 18 17h32zM628.999 224
c0 17.333 -4.49707 29.668 -13.4971 37.001s-20.5 11 -34.5 11c-11.333 0 -23.666 -1.83301 -36.999 -5.5s-24.333 -9.83398 -33 -18.501v28c16 16 39.333 24 70 24c23.333 0 42.666 -6.33301 57.999 -19s23 -30.667 23 -54c0 -20.667 -6.33301 -39 -19 -55
s-26.834 -31 -42.501 -45l-43.5 -40c-13.333 -12.667 -21 -25.667 -23 -39h139v-28h-173v26c0 16.667 6.66699 32.167 20 46.5s28.166 28.5 44.499 42.5s31.166 28.167 44.499 42.5s20 29.833 20 46.5z" />
    <glyph glyph-name="threequarters" unicode="&#xbe;" horiz-adv-x="690" 
d="M573 602l-361 -602h-56l361 602h56zM196 399c0 -25.333 -8.99805 -44.835 -26.998 -58.502s-41 -20.5 -69 -20.5c-13.333 0 -25.166 1.5 -35.499 4.5s-19.5 6.83301 -27.5 11.5v29c9.33301 -7.33301 19.166 -12.166 29.499 -14.499s21.5 -3.5 33.5 -3.5
c17.333 0 32.166 4 44.499 12s18.5 20.333 18.5 37c0 18 -7.16699 31.5 -21.5 40.5s-39.833 13.5 -76.5 13.5v26c16 0.666992 30.333 2.66699 43 6c11.333 3.33301 21.5 8.33301 30.5 15s13.5 16.334 13.5 29.001c0 17.333 -4 29.333 -12 36s-18.333 10 -31 10
c-9.33301 0 -19.666 -1.16699 -30.999 -3.5s-21.333 -6.5 -30 -12.5v27c17.333 11.333 37.666 17 60.999 17c21.333 0 39.333 -6.16699 54 -18.5s22 -27.833 22 -46.5c0 -35.333 -18.333 -58.666 -55 -69.999c17.333 -2.66699 32.666 -9.83398 45.999 -21.501
s20 -26.5 20 -44.5zM600.002 240.998l-87 -127h87v127zM477.002 113.998l123 176h33v-176h34v-28h-34v-66h-33v66h-123v28z" />
    <glyph glyph-name="uni0E01" unicode="&#xe01;" horiz-adv-x="429" 
d="M332 0l-0.00390625 280c0 22.667 -4.16699 41.167 -12.5 55.5s-19.166 25.5 -32.499 33.5s-28 13.5 -44 16.5s-31.333 4.5 -46 4.5c-19.333 0 -36.166 -3.16699 -50.499 -9.5s-26.166 -13.166 -35.499 -20.499c-11.333 -8.66699 -21 -18.667 -29 -30l60 -50
c-4 -4.66699 -7.33301 -10.667 -10 -18c-2.66699 -6.66699 -5 -14.834 -7 -24.501s-3 -22.167 -3 -37.5v-200h-60v200c0 12.667 1 23.834 3 33.501s4.33301 18.167 7 25.5c2.66699 8 6 15 10 21l-30 25l-20.5 16.5c-6.33301 5 -9.5 7.83301 -9.5 8.5
c10.667 20 24.334 38.333 41.001 55c14 13.333 31.833 25.833 53.5 37.5s48.5 17.5 80.5 17.5c22.667 0 45.5 -2.66699 68.5 -8s43.833 -13.5 62.5 -24.5s34 -25.5 46 -43.5s18 -39.333 18 -64v-240c0 -9.33301 -2 -17.5 -6 -24.5s-8.66699 -13.167 -14 -18.5
c-6 -6.66699 -12.667 -12.334 -20 -17.001h-20z" />
    <glyph glyph-name="uni0E02" unicode="&#xe02;" horiz-adv-x="359" 
d="M112 140c0 -12.667 0.996094 -25.002 2.99609 -37.002s5.66699 -22.667 11 -32s12.833 -16.833 22.5 -22.5s22.5 -8.5 38.5 -8.5c14.667 0 27 3.16699 37 9.5s17.667 14.333 23 24s9.16602 20.334 11.499 32.001s3.5 23.167 3.5 34.5v290h60v-290
c0 -20 -2.16699 -39 -6.5 -57s-11.666 -33.667 -21.999 -47s-24.166 -24 -41.499 -32s-39 -12 -65 -12s-47.667 4 -65 12s-31.166 18.667 -41.499 32s-17.666 29 -21.999 47s-6.5 37 -6.5 57v40c0 17.333 1.66699 32.166 5 44.499s7.5 23 12.5 32s10.333 17 16 24l16.5 19.5
c4 5.33301 8.33301 12 13 20s7 14.667 7 20c0 10 -2.83301 19.167 -8.5 27.5s-16.167 12.5 -31.5 12.5h-60v50h60c30 0 54.167 -7.5 72.5 -22.5s27.5 -37.5 27.5 -67.5c0 -16.667 -4.16699 -31.667 -12.5 -45s-17.5 -25 -27.5 -35
c-5.33301 -5.33301 -11.666 -14.666 -18.999 -27.999s-11 -30.666 -11 -51.999v-40z" />
    <glyph glyph-name="uni0E03" unicode="&#xe03;" horiz-adv-x="359" 
d="M112 140c0 -12.667 0.99707 -24.998 2.99707 -36.998s5.66699 -22.667 11 -32s12.833 -16.833 22.5 -22.5s22.5 -8.5 38.5 -8.5c14.667 0 27 3.33301 37 10s17.667 15 23 25s9.16602 21 11.499 33s3.5 23.667 3.5 35v287h60v-283c0 -22 -2.16699 -42.333 -6.5 -61
s-11.666 -35 -21.999 -49s-24.166 -25 -41.499 -33s-39 -12 -65 -12s-47.667 4 -65 12s-31.166 18.667 -41.499 32s-17.666 29 -21.999 47s-6.5 37 -6.5 57v50c0 20 4.5 39.5 13.5 58.5s21.167 36.167 36.5 51.5c5.33301 5.33301 11.666 11.166 18.999 17.499
s11 17.166 11 32.499c0 10 -3.16699 17.5 -9.5 22.5s-13.166 7.5 -20.499 7.5c-4 0 -8.33301 -1.66699 -13 -5s-9 -6.66602 -13 -9.99902c-4.66699 -4.66699 -9.33398 -9.66699 -14.001 -15c-4 5.33301 -8.33301 10.333 -13 15c-4 4 -8.33301 7.66699 -13 11
s-9.33398 5 -14.001 5v49c5.33301 0 10.5 -1.66699 15.5 -5l14.5 -10c5.33301 -4.66699 10.333 -9.66699 15 -15c4.66699 5.33301 10 10.333 16 15c5.33301 3.33301 11.333 6.66602 18 9.99902s13.667 5 21 5c20 0 36.667 -7 50 -21s20 -33.667 20 -59
c0 -20 -4.16699 -35.833 -12.5 -47.5s-17.5 -22.5 -27.5 -32.5l-10.5 -11c-4.33301 -4.66699 -8.66602 -10.5 -12.999 -17.5s-8.16602 -14.833 -11.499 -23.5s-5 -18 -5 -28v-50z" />
    <glyph glyph-name="uni0E04" unicode="&#xe04;" horiz-adv-x="434" 
d="M97 180c8.66699 11.333 19 21.333 31 30c10 7.33301 21.667 14.166 35 20.499s28 9.5 44 9.5v-60c-16 0 -30.667 -2.66699 -44 -8s-25 -11 -35 -17c-12 -7.33301 -22.333 -15.666 -31 -24.999v-130h-60v300c0 22.667 5.16699 42.667 15.5 60s24 32 41 44
s36.167 21 57.5 27s43.333 9 66 9s44.667 -3 66 -9s40.5 -15 57.5 -27s30.667 -26.667 41 -44s15.5 -37.333 15.5 -60v-300h-60v300c0 14.667 -3.5 27.667 -10.5 39s-16 20.833 -27 28.5s-23.833 13.334 -38.5 17.001s-29.334 5.5 -44.001 5.5
c-15.333 0 -30.166 -1.83301 -44.499 -5.5s-27 -9.33398 -38 -17.001s-20 -17.167 -27 -28.5s-10.5 -24.333 -10.5 -39v-120z" />
    <glyph glyph-name="uni0E05" unicode="&#xe05;" horiz-adv-x="434" 
d="M97 0l-60 -0.000976562v300c0 17.333 3 34.5 9 51.5s14.333 32 25 45s23.334 23.5 38.001 31.5s30.667 12 48 12c7.33301 0 14.666 -2.66699 21.999 -8s13.666 -11 18.999 -17c6.66699 -7.33301 13 -15.666 19 -24.999c6 9.33301 12.333 17.666 19 24.999
c5.33301 6 11.666 11.667 18.999 17s14.666 8 21.999 8c17.333 0 33.333 -4 48 -12s27.334 -18.5 38.001 -31.5s19 -28 25 -45s9 -34.167 9 -51.5v-300h-60v300c0 10 -1.33301 20.333 -4 31s-6.5 20.334 -11.5 29.001s-11.167 15.834 -18.5 21.501s-16 8.5 -26 8.5
c-5.33301 0 -11.5 -3.16699 -18.5 -9.5s-13.5 -13.166 -19.5 -20.499c-7.33301 -8.66699 -14.666 -18.667 -21.999 -30c-8 11.333 -15.667 21.333 -23 30l-19.5 20.5c-6.33301 6.33301 -12.166 9.5 -17.499 9.5c-10 0 -18.833 -2.83301 -26.5 -8.5s-14 -12.834 -19 -21.501
s-8.66699 -18.334 -11 -29.001s-3.5 -21 -3.5 -31v-120c8.66699 11.333 19 21.333 31 30c10 7.33301 21.667 14.166 35 20.499s28 9.5 44 9.5v-60c-16 0 -30.667 -2.66699 -44 -8s-25 -11 -35 -17c-12 -7.33301 -22.333 -15.666 -31 -24.999v-130z" />
    <glyph glyph-name="uni0E06" unicode="&#xe06;" horiz-adv-x="439" 
d="M112 110c10.667 -11.333 21.999 -21.335 33.999 -30.002c10.667 -7.33301 23.334 -14.166 38.001 -20.499s30.667 -9.5 48 -9.5c40 0 68.333 10 85 30s25 50 25 90v260h60v-290c0 -17.333 -3 -34.833 -9 -52.5s-15 -33.5 -27 -47.5s-26.667 -25.5 -44 -34.5
s-37.333 -13.5 -60 -13.5c-25.333 0 -47.333 3.5 -66 10.5s-34.334 14.833 -47.001 23.5c-14.667 10 -27 21.333 -37 34v-60h-60v196c0 23.333 4.16699 41.166 12.5 53.499s17.5 23 27.5 32s19.167 18.333 27.5 28s12.5 23.167 12.5 40.5c0 10 -3.16699 17.5 -9.5 22.5
s-13.166 7.5 -20.499 7.5c-4 0 -8.33301 -1.66699 -13 -5s-9 -6.66602 -13 -9.99902c-4.66699 -4.66699 -9.33398 -9.66699 -14.001 -15l-13 15c-4 4 -8.16699 7.66699 -12.5 11s-9.16602 5 -14.499 5v49c4.66699 0 9.66699 -1.66699 15 -5s10.333 -6.66602 15 -9.99902
c5.33301 -4.66699 10.333 -9.66699 15 -15c4.66699 5.33301 10 10.333 16 15c5.33301 3.33301 11.333 6.66602 18 9.99902s13.667 5 21 5c20 0 36.667 -7 50 -21s20 -33.667 20 -59c0 -22.667 -4.16699 -40.5 -12.5 -53.5s-17.5 -24.5 -27.5 -34.5
s-19.167 -20.167 -27.5 -30.5s-12.5 -24.166 -12.5 -41.499v-80z" />
    <glyph glyph-name="uni0E07" unicode="&#xe07;" horiz-adv-x="364" 
d="M92 0l-70.001 289.998h60l60 -240c18 0 35.333 3.83301 52 11.5s31.5 18.834 44.5 33.501s23.5 32 31.5 52s12 42.667 12 68c0 24.667 -4 47.167 -12 67.5s-19 37.833 -33 52.5s-30 25.834 -48 33.501s-37 11.5 -57 11.5v50c30 0 57.833 -5.16699 83.5 -15.5
s47.834 -24.833 66.501 -43.5s33.334 -41.167 44.001 -67.5s16 -55.833 16 -88.5s-5.83301 -62.167 -17.5 -88.5s-27 -48.833 -46 -67.5s-40.333 -33.167 -64 -43.5s-47.834 -15.5 -72.501 -15.5h-50z" />
    <glyph glyph-name="uni0E08" unicode="&#xe08;" horiz-adv-x="414" 
d="M152 0l-40.001 159.998c-2 5.33301 -4.5 8.33301 -7.5 9s-7.16699 1 -12.5 1h-20v50h40c15.333 0 26.5 -2.5 33.5 -7.5s12.5 -12.5 16.5 -22.5l40 -140c22 0 41.167 5.16699 57.5 15.5s29.833 23.666 40.5 39.999s18.667 35 24 56s8 42.167 8 63.5
c0 28.667 -4.5 53.334 -13.5 74.001s-20.667 37.834 -35 51.501s-30.5 23.667 -48.5 30s-35.667 9.5 -53 9.5c-25.333 0 -46.833 -4.66699 -64.5 -14s-32.167 -19.666 -43.5 -30.999c-13.333 -13.333 -24 -28.333 -32 -45l-20 50c6.66699 16.667 17 31.667 31 45
c12 11.333 28.333 21.666 49 30.999s47.334 14 80.001 14s62 -5.83301 88 -17.5s48 -27.334 66 -47.001s31.833 -42.5 41.5 -68.5s14.5 -53.333 14.5 -82c0 -31.333 -4.33301 -60.666 -13 -87.999s-21 -51.166 -37 -71.499s-35.833 -36.333 -59.5 -48
s-50.5 -17.5 -80.5 -17.5h-50z" />
    <glyph glyph-name="uni0E09" unicode="&#xe09;" horiz-adv-x="429" 
d="M62 160c0 5.33301 -0.500977 11.668 -1.50098 19.001s-4.5 11 -10.5 11h-28v50h40c20 0 35 -6.66699 45 -20s15 -30.666 15 -51.999v-28c0 -15.333 0.833008 -28.5 2.5 -39.5s5.33398 -20.333 11.001 -28s13.834 -13.334 24.501 -17.001s24.667 -5.5 42 -5.5
s33.833 3.16699 49.5 9.5s29.5 13.166 41.5 20.499c14 8.66699 27 18.667 39 30v150c0 40 -9.83301 71.667 -29.5 95s-49.834 35 -90.501 35c-20 0 -38.5 -3.16699 -55.5 -9.5s-31.833 -13.166 -44.5 -20.499c-14.667 -8.66699 -28 -18.667 -40 -30l-20 50
c11.333 11.333 25.333 21.333 42 30c13.333 7.33301 30 14.166 50 20.499s42.667 9.5 68 9.5c61.333 0 106.666 -15.833 135.999 -47.5s44 -72.5 44 -122.5v-270h-60v60c-12 -12.667 -25.667 -24 -41 -34c-13.333 -8.66699 -29.166 -16.5 -47.499 -23.5
s-38.833 -10.5 -61.5 -10.5c-40 0 -70 13.333 -90 40s-30 62.667 -30 108v20z" />
    <glyph glyph-name="uni0E0A" unicode="&#xe0a;" horiz-adv-x="384" 
d="M112 129c0 -11.333 1.00098 -22.334 3.00098 -33.001s6 -20.167 12 -28.5s14.667 -15 26 -20s26.666 -7.5 45.999 -7.5c16 0 29.833 4 41.5 12s21.334 17.833 29.001 29.5s13.334 24 17.001 37s5.5 24.833 5.5 35.5c0 17.333 -1.83301 34 -5.5 50s-9.33398 30 -17.001 42
s-17.167 21.5 -28.5 28.5s-24.333 10.5 -39 10.5v50c14.667 0 28.167 5 40.5 15s23 23.333 32 40s15.833 36.167 20.5 58.5s7 46.166 7 71.499h60c0 -42.667 -4.83301 -77.5 -14.5 -104.5s-20.5 -48.167 -32.5 -63.5s-23.333 -26 -34 -32s-17 -9.33301 -19 -10l16 -8
c9.33301 -4.66699 19.5 -12.834 30.5 -24.501s21 -27.5 30 -47.5s13.5 -45.333 13.5 -76c0 -19.333 -2.33301 -38.666 -7 -57.999s-12.834 -36.666 -24.501 -51.999s-27.334 -27.833 -47.001 -37.5s-44.5 -14.5 -74.5 -14.5s-54.5 3.66699 -73.5 11s-34 17.5 -45 30.5
s-18.5 28 -22.5 45s-6 35.167 -6 54.5v47c0 17.333 1.66699 32.166 5 44.499s7.5 23 12.5 32s10.333 17 16 24l16.5 19.5c4 5.33301 8.33301 12 13 20s7 14.667 7 20c0 10 -2.83301 19.167 -8.5 27.5s-16.167 12.5 -31.5 12.5h-60v50h60c30 0 54.167 -7.5 72.5 -22.5
s27.5 -37.5 27.5 -67.5c0 -16.667 -4.16699 -31.667 -12.5 -45s-17.5 -25 -27.5 -35c-5.33301 -5.33301 -11.666 -14.666 -18.999 -27.999s-11 -30.666 -11 -51.999v-51z" />
    <glyph glyph-name="uni0E0B" unicode="&#xe0b;" horiz-adv-x="384" 
d="M199 -8c-30 0 -54.498 3.66895 -73.498 11.002s-34 17.5 -45 30.5s-18.5 28 -22.5 45s-6 35.167 -6 54.5v57c0 20 4.5 39.5 13.5 58.5s21.167 36.167 36.5 51.5c5.33301 5.33301 11.666 11.166 18.999 17.499s11 17.166 11 32.499c0 10 -3.16699 17.5 -9.5 22.5
s-13.166 7.5 -20.499 7.5c-4 0 -8.33301 -1.66699 -13 -5s-9 -6.66602 -13 -9.99902c-4.66699 -4.66699 -9.33398 -9.66699 -14.001 -15c-4 5.33301 -8.33301 10.333 -13 15c-4 4 -8.33301 7.66699 -13 11s-9.33398 5 -14.001 5v49c5.33301 0 10.5 -1.66699 15.5 -5
l14.5 -10c5.33301 -4.66699 10.333 -9.66699 15 -15c4.66699 5.33301 10 10.333 16 15c5.33301 3.33301 11.333 6.66602 18 9.99902s13.667 5 21 5c20 0 36.667 -7 50 -21s20 -33.667 20 -59c0 -20 -4.16699 -35.833 -12.5 -47.5s-17.5 -22.5 -27.5 -32.5l-10.5 -11
c-4.33301 -4.66699 -8.66602 -10.5 -12.999 -17.5s-8.16602 -14.833 -11.499 -23.5s-5 -18 -5 -28v-61c0 -11.333 1 -22.333 3 -33s6 -20.167 12 -28.5s14.667 -15 26 -20s26.666 -7.5 45.999 -7.5c16 0 29.833 4 41.5 12s21.334 17.833 29.001 29.5s13.334 24 17.001 37
s5.5 24.833 5.5 35.5c0 17.333 -1.83301 34 -5.5 50s-9.33398 30 -17.001 42s-17.167 21.5 -28.5 28.5s-24.333 10.5 -39 10.5v50c14.667 0 28.167 5 40.5 15s23 23.333 32 40s15.833 36.167 20.5 58.5s7 46.166 7 71.499h60c0 -42.667 -4.83301 -77.5 -14.5 -104.5
s-20.5 -48.167 -32.5 -63.5s-23.333 -26 -34 -32s-17 -9.33301 -19 -10l16 -8c9.33301 -4.66699 19.5 -12.834 30.5 -24.501s21 -27.5 30 -47.5s13.5 -45.333 13.5 -76c0 -19.333 -2.33301 -38.666 -7 -57.999s-12.834 -36.666 -24.501 -51.999
s-27.334 -27.833 -47.001 -37.5s-44.5 -14.5 -74.5 -14.5z" />
    <glyph glyph-name="uni0E0C" unicode="&#xe0c;" horiz-adv-x="689" 
d="M392 0l-60.0049 -0.000976562v280c0 22.667 -4.16699 41.167 -12.5 55.5s-19.166 25.5 -32.499 33.5s-28 13.5 -44 16.5s-31.333 4.5 -46 4.5c-19.333 0 -36.166 -3.16699 -50.499 -9.5s-26.166 -13.166 -35.499 -20.499c-11.333 -8.66699 -21 -18.667 -29 -30l60 -50
c-4 -4.66699 -7.33301 -10.667 -10 -18c-2.66699 -6.66699 -5 -14.834 -7 -24.501s-3 -22.167 -3 -37.5v-130c0 -5.33301 0.333008 -9.83301 1 -13.5s3.66699 -5.83398 9 -6.50098h30v-50h-40c-20 0 -35 5.33301 -45 16s-15 28.667 -15 54v130c0 12.667 1 23.834 3 33.501
s4.33301 18.167 7 25.5c2.66699 8 6 15 10 21l-30 25l-20.5 16.5c-6.33301 5 -9.5 7.83301 -9.5 8.5c10.667 20 24.334 38.333 41.001 55c14 13.333 31.833 25.833 53.5 37.5s48.5 17.5 80.5 17.5c22.667 0 45.5 -2.66699 68.5 -8s43.833 -13.5 62.5 -24.5
s34 -25.5 46 -43.5s18 -39.333 18 -64v-190c8 -11.333 17.667 -21.333 29 -30c9.33301 -7.33301 20.833 -14.166 34.5 -20.499s29.167 -9.5 46.5 -9.5c20 0 36 2.5 48 7.5s21 12.5 27 22.5s10 22.5 12 37.5s3 32.5 3 52.5v260h60v-290c0 -17.333 -2 -34.833 -6 -52.5
s-10.667 -33.5 -20 -47.5s-21.666 -25.5 -36.999 -34.5s-34.333 -13.5 -57 -13.5c-25.333 0 -46.833 3.5 -64.5 10.5s-32.167 14.833 -43.5 23.5c-13.333 10 -24 21.333 -32 34v-60z" />
    <glyph glyph-name="uni0E0D" unicode="&#xe0d;" horiz-adv-x="689" 
d="M392 143c0 -30 6.49609 -52.999 19.4961 -68.999s35.5 -24 67.5 -24c18 0 34.167 3.16699 48.5 9.5s26.166 13.166 35.499 20.499c11.333 8.66699 21 18.667 29 30v320h60v-389c0 -24.667 -5.33301 -47.334 -16 -68.001s-24.5 -38.5 -41.5 -53.5s-35.667 -26.667 -56 -35
s-40.166 -12.5 -59.499 -12.5s-36.833 2.5 -52.5 7.5s-29.167 10.833 -40.5 17.5c-12.667 7.33301 -24 15.666 -34 24.999l20 50c8 -9.33301 17.333 -17.666 28 -24.999c9.33301 -6.66699 20.5 -12.5 33.5 -17.5s28.167 -7.5 45.5 -7.5c32 0 58.833 11.833 80.5 35.5
s32.5 56.167 32.5 97.5v5c-9.33301 -12.667 -20.333 -24 -33 -34c-11.333 -8.66699 -25 -16.5 -41 -23.5s-34.667 -10.5 -56 -10.5c-25.333 0 -46.333 3.83301 -63 11.5s-30 18.334 -40 32.001s-17 30 -21 49s-6 39.833 -6 62.5v133c0 22.667 -4.16699 41.167 -12.5 55.5
s-19.166 25.5 -32.499 33.5s-28 13.5 -44 16.5s-31.333 4.5 -46 4.5c-19.333 0 -36.166 -3.16699 -50.499 -9.5s-26.166 -13.166 -35.499 -20.499c-11.333 -8.66699 -21 -18.667 -29 -30l60 -50c-4 -4.66699 -7.33301 -10.667 -10 -18
c-2.66699 -6.66699 -5 -14.834 -7 -24.501s-3 -22.167 -3 -37.5v-130c0 -5.33301 0.333008 -9.83301 1 -13.5s3.66699 -5.83398 9 -6.50098h30v-50h-40c-20 0 -35 5.33301 -45 16s-15 28.667 -15 54v130c0 12.667 1 23.834 3 33.501s4.33301 18.167 7 25.5
c2.66699 8 6 15 10 21l-30 25l-20.5 16.5c-6.33301 5 -9.5 7.83301 -9.5 8.5c10.667 20 24.334 38.333 41.001 55c14 13.333 31.833 25.833 53.5 37.5s48.5 17.5 80.5 17.5c22.667 0 45.5 -2.66699 68.5 -8s43.833 -13.5 62.5 -24.5s34 -25.5 46 -43.5s18 -39.333 18 -64
v-157z" />
    <glyph glyph-name="uni0E0E" unicode="&#xe0e;" horiz-adv-x="429" 
d="M277 -117c21.333 0 35.8291 4.8291 43.4961 14.4961s11.5 24.834 11.5 45.501v337c0 22.667 -4.16699 41.167 -12.5 55.5s-19.166 25.5 -32.499 33.5s-28 13.5 -44 16.5s-31.333 4.5 -46 4.5c-19.333 0 -36.166 -3.16699 -50.499 -9.5s-26.166 -13.166 -35.499 -20.499
c-11.333 -8.66699 -21 -18.667 -29 -30l60 -50c-4 -4.66699 -7.33301 -10.667 -10 -18c-2.66699 -6.66699 -5 -14.834 -7 -24.501s-3 -22.167 -3 -37.5v-130c0 -25.333 -5 -43.333 -15 -54s-25 -16 -45 -16h-40v50h30c5.33301 0.666992 8.33301 2.83398 9 6.50098
s1 8.16699 1 13.5v130c0 12.667 1 23.834 3 33.501s4.33301 18.167 7 25.5c2.66699 8 6 15 10 21l-30 25l-20.5 16.5c-6.33301 5 -9.5 7.83301 -9.5 8.5c10.667 20 24.334 38.333 41.001 55c14 13.333 31.833 25.833 53.5 37.5s48.5 17.5 80.5 17.5
c22.667 0 45.5 -2.66699 68.5 -8s43.833 -13.5 62.5 -24.5s34 -25.5 46 -43.5s18 -39.333 18 -64v-367c0 -8 -0.833008 -17.667 -2.5 -29s-6 -22.166 -13 -32.499s-17.667 -19.333 -32 -27s-33.833 -11.5 -58.5 -11.5c-15.333 0 -29.833 2.5 -43.5 7.5
s-25.5 10.833 -35.5 17.5c-12 7.33301 -22.667 15.666 -32 24.999c-10.667 -9.33301 -23 -17.666 -37 -24.999c-12 -6.66699 -27 -12.5 -45 -17.5s-38.333 -7.5 -61 -7.5v50c22.667 0 43 2.5 61 7.5s33 10.833 45 17.5c14 7.33301 26.333 15.666 37 24.999
c10.667 -9.33301 21.667 -17.666 33 -24.999c9.33301 -6.66699 20 -12.5 32 -17.5s24.333 -7.5 37 -7.5z" />
    <glyph glyph-name="uni0E0F" unicode="&#xe0f;" horiz-adv-x="429" 
d="M122 70c0 -25.333 -5.00195 -43.3369 -15.002 -54.0039s-25 -16 -45 -16h-40v50h30c5.33301 0.666992 8.33301 2.83398 9 6.50098s1 8.16699 1 13.5v130c0 12.667 1 23.834 3 33.501s4.33301 18.167 7 25.5c2.66699 8 6 15 10 21l-30 25l-20.5 16.5
c-6.33301 5 -9.5 7.83301 -9.5 8.5c10.667 20 24.334 38.333 41.001 55c14 13.333 31.833 25.833 53.5 37.5s48.5 17.5 80.5 17.5c22.667 0 45.5 -2.66699 68.5 -8s43.833 -13.5 62.5 -24.5s34 -25.5 46 -43.5s18 -39.333 18 -64v-357c0 -7.33301 -0.5 -17.166 -1.5 -29.499
s-4.66699 -24.5 -11 -36.5s-16.333 -22.333 -30 -31s-32.834 -13 -57.501 -13c-10.667 0 -20.834 2.5 -30.501 7.5s-18.167 10.833 -25.5 17.5c-8.66699 7.33301 -17 15.666 -25 24.999l-35 -50l-38 50c-11.333 -9.33301 -23 -17.666 -35 -24.999
c-10 -6 -21.333 -11.5 -34 -16.5s-25 -7.5 -37 -7.5v49c12 0 24.333 2.5 37 7.5s24 10.833 34 17.5c12 7.33301 23.667 15.666 35 24.999l38 -50l35 50c0.666992 -1.33301 2.83398 -4.66602 6.50098 -9.99902s8.66699 -11 15 -17s13.666 -11.333 21.999 -16s17.5 -7 27.5 -7
c20.667 0 34.167 5.83301 40.5 17.5s9.5 22.834 9.5 33.501v346c0 22.667 -4.16699 41.167 -12.5 55.5s-19.166 25.5 -32.499 33.5s-28 13.5 -44 16.5s-31.333 4.5 -46 4.5c-19.333 0 -36.166 -3.16699 -50.499 -9.5s-26.166 -13.166 -35.499 -20.499
c-11.333 -8.66699 -21 -18.667 -29 -30l60 -50c-4 -4.66699 -7.33301 -10.667 -10 -18c-2.66699 -6.66699 -5 -14.834 -7 -24.501s-3 -22.167 -3 -37.5v-130z" />
    <glyph glyph-name="uni0E10" unicode="&#xe10;" horiz-adv-x="414" 
d="M152 0l-40.002 159.998c-2 5.33301 -4.5 8.33301 -7.5 9s-7.16699 1 -12.5 1h-20v50h40c15.333 0 26.5 -2.5 33.5 -7.5s12.5 -12.5 16.5 -22.5l40 -140c22 0 41.167 5.16699 57.5 15.5s29.833 23.666 40.5 39.999s18.667 35 24 56s8 42.167 8 63.5
c0 28.667 -4.5 53.334 -13.5 74.001s-20.667 37.834 -35 51.501s-30.5 23.667 -48.5 30s-35.667 9.5 -53 9.5c-25.333 0 -46.833 -4.66699 -64.5 -14s-32.167 -19.666 -43.5 -30.999c-13.333 -13.333 -24 -28.333 -32 -45l-20 50c6.66699 16.667 17 31.667 31 45
c12 11.333 28.333 21.666 49 30.999s47.334 14 80.001 14c28.667 0 55.334 -4.66699 80.001 -14c6.66699 2 14.167 4.83301 22.5 8.5s16 8.16699 23 13.5s12.833 11.333 17.5 18s7 14.667 7 24h60c0 -13.333 -2.66699 -25 -8 -35s-12 -18.667 -20 -26
s-16.833 -13.333 -26.5 -18s-19.167 -8.33398 -28.5 -11.001c26.667 -20 47.167 -45.333 61.5 -76s21.5 -63.667 21.5 -99c0 -31.333 -4.33301 -60.666 -13 -87.999s-21 -51.166 -37 -71.499s-35.833 -36.333 -59.5 -48s-50.5 -17.5 -80.5 -17.5h-50zM311.998 -68.002
l60.002 0.00488281v-50c0 -2.66699 -0.5 -8.83398 -1.5 -18.501s-4.33301 -19.834 -10 -30.501s-14.5 -20.167 -26.5 -28.5s-29.333 -12.5 -52 -12.5c-15.333 0 -27.833 2.5 -37.5 7.5s-17.834 10.833 -24.501 17.5c-7.33301 7.33301 -13.333 15.666 -18 24.999l-35 -50
l-35 50c-6.66699 -9.33301 -14.667 -17.666 -24 -24.999c-8 -6.66699 -18.333 -12.5 -31 -17.5s-27.667 -7.5 -45 -7.5v50c17.333 0 32.333 2.5 45 7.5s23 10.833 31 17.5c9.33301 7.33301 17.333 15.666 24 24.999l35 -50l35 50c0 -0.666992 1.83301 -3.66699 5.5 -9
s8.66699 -11 15 -17s13.666 -11.5 21.999 -16.5s17.5 -7.5 27.5 -7.5s17.667 1.66699 23 5s9.33301 7.16602 12 11.499s4.16699 8.66602 4.5 12.999s0.5 7.83301 0.5 10.5v50z" />
    <glyph glyph-name="uni0E11" unicode="&#xe11;" horiz-adv-x="439" 
d="M112 0l-60.0029 -0.000976562v106c0 36 4.16699 67.667 12.5 95s17.5 51.166 27.5 71.499s19.167 37.5 27.5 51.5s12.5 26 12.5 36s-3.16699 17.5 -9.5 22.5s-13.166 7.5 -20.499 7.5c-4 0 -8.33301 -1.66699 -13 -5s-9 -6.66602 -13 -9.99902
c-4.66699 -4.66699 -9.33398 -9.66699 -14.001 -15l-13 15c-4 4 -8.16699 7.66699 -12.5 11s-9.16602 5 -14.499 5v49c4.66699 0 9.66699 -1.66699 15 -5s10.333 -6.66602 15 -9.99902c5.33301 -4.66699 10.333 -9.66699 15 -15c4.66699 5.33301 10 10.333 16 15
c5.33301 3.33301 11.333 6.66602 18 9.99902s13.667 5 21 5c14.667 0 29 -5 43 -15s21 -25 21 -45c6.66699 11.333 15 21.333 25 30c8 7.33301 18 14.166 30 20.499s25.667 9.5 41 9.5c17.333 0 33.333 -4.5 48 -13.5s27.334 -20.667 38.001 -35s19 -30.5 25 -48.5
s9 -35.667 9 -53v-290h-60v260c0 40 -6.66699 70 -20 90s-30 30 -50 30c-17.333 0 -33.166 -4.83301 -47.499 -14.5s-27.5 -22.167 -39.5 -37.5s-22.5 -32.5 -31.5 -51.5s-16.667 -37.667 -23 -56s-11 -35.666 -14 -51.999s-4.5 -29.166 -4.5 -38.499v-16v-114z" />
    <glyph glyph-name="uni0E12" unicode="&#xe12;" horiz-adv-x="689" 
d="M592 430l59.9961 -0.00292969v-290c0 -17.333 -2 -34.833 -6 -52.5s-10.667 -33.5 -20 -47.5s-21.666 -25.5 -36.999 -34.5s-34.333 -13.5 -57 -13.5c-25.333 0 -46.833 3.5 -64.5 10.5s-32.167 14.833 -43.5 23.5c-13.333 10 -24 21.333 -32 34v-60h-60v308
c0 21.333 -5.33301 40.333 -16 57s-25.334 25 -44.001 25c-5.33301 0 -11.5 -3.16699 -18.5 -9.5s-13.5 -13.166 -19.5 -20.499c-7.33301 -8.66699 -14.666 -18.667 -21.999 -30c-8 11.333 -15.667 21.333 -23 30l-19.5 20.5c-6.33301 6.33301 -12.166 9.5 -17.499 9.5
c-7.33301 0 -15.166 -2.83301 -23.499 -8.5s-16 -15 -23 -28s-12.667 -30.333 -17 -52s-6.5 -48.834 -6.5 -81.501c0 -25.333 2 -48.833 6 -70.5s10.333 -40.667 19 -57s20 -29.166 34 -38.499s31 -14 51 -14c7.33301 0 13.333 0.5 18 1.5s8.66699 2.16699 12 3.5
s6.66602 3 9.99902 5v-50l-10 -4c-3.33301 -1.33301 -7.33301 -2.33301 -12 -3s-10.667 -1 -18 -1c-27.333 0 -51.666 5.83301 -72.999 17.5s-39.166 27.667 -53.499 48s-25.166 44.333 -32.499 72s-11 57.834 -11 90.501c0 39.333 3.5 73 10.5 101s16.5 50.833 28.5 68.5
s25.833 30.5 41.5 38.5s32.167 12 49.5 12c5.33301 0 11.166 -2.66699 17.499 -8l19.5 -17c7.33301 -7.33301 15 -15.666 23 -24.999c7.33301 9.33301 14.666 17.666 21.999 24.999c6 6 12.5 11.667 19.5 17s13.167 8 18.5 8c17.333 0 33.333 -3.66699 48 -11
s27.334 -17 38.001 -29s19 -26 25 -42s9 -32.667 9 -50v-198c8 -11.333 17.667 -21.333 29 -30c9.33301 -7.33301 20.833 -14.166 34.5 -20.499s29.167 -9.5 46.5 -9.5c20 0 36 2.5 48 7.5s21 12.5 27 22.5s10 22.5 12 37.5s3 32.5 3 52.5v260z" />
    <glyph glyph-name="uni0E13" unicode="&#xe13;" horiz-adv-x="689" 
d="M392 170c0 -20 0.993164 -37.499 2.99316 -52.499s6 -27.5 12 -37.5s15 -17.5 27 -22.5s28 -7.5 48 -7.5c17.333 0 32.833 3.16699 46.5 9.5s25.167 13.166 34.5 20.499c11.333 8.66699 21 18.667 29 30v320h60v-430h-60v60c-9.33301 -12.667 -20.333 -24 -33 -34
c-11.333 -8.66699 -25.666 -16.5 -42.999 -23.5s-38.666 -10.5 -63.999 -10.5c-22.667 0 -41.667 4.5 -57 13.5s-27.666 20.5 -36.999 34.5s-16 29.833 -20 47.5s-6 35.167 -6 52.5v140c0 22.667 -4.16699 41.167 -12.5 55.5s-19.166 25.5 -32.499 33.5s-28 13.5 -44 16.5
s-31.333 4.5 -46 4.5c-19.333 0 -36.166 -3.16699 -50.499 -9.5s-26.166 -13.166 -35.499 -20.499c-11.333 -8.66699 -21 -18.667 -29 -30l60 -50c-4 -4.66699 -7.33301 -10.667 -10 -18c-2.66699 -6.66699 -5 -14.834 -7 -24.501s-3 -22.167 -3 -37.5v-130
c0 -5.33301 0.333008 -9.83301 1 -13.5s3.66699 -5.83398 9 -6.50098h30v-50h-40c-20 0 -35 5.33301 -45 16s-15 28.667 -15 54v130c0 12.667 1 23.834 3 33.501s4.33301 18.167 7 25.5c2.66699 8 6 15 10 21l-30 25l-20.5 16.5c-6.33301 5 -9.5 7.83301 -9.5 8.5
c10.667 20 24.334 38.333 41.001 55c14 13.333 31.833 25.833 53.5 37.5s48.5 17.5 80.5 17.5c22.667 0 45.5 -2.66699 68.5 -8s43.833 -13.5 62.5 -24.5s34 -25.5 46 -43.5s18 -39.333 18 -64v-130z" />
    <glyph glyph-name="uni0E14" unicode="&#xe14;" horiz-adv-x="429" 
d="M232 0c-2.66699 -1.33301 -5.66895 -2.6709 -9.00195 -4.00391s-7.5 -2.33301 -12.5 -3s-11.167 -1 -18.5 -1c-25.333 0 -48.333 5.33301 -69 16s-38.5 25.834 -53.5 45.501s-26.667 43.5 -35 71.5s-12.5 59.667 -12.5 95c0 40 5.66699 74 17 102s26 50.667 44 68
s38.333 30 61 38s45.334 12 68.001 12s44.667 -2.66699 66 -8s40.5 -13.5 57.5 -24.5s30.667 -25.5 41 -43.5s15.5 -39.333 15.5 -64v-300h-60v300c0 14.667 -3.5 27.667 -10.5 39s-16 20.833 -27 28.5s-23.833 13.334 -38.5 17.001s-29.334 5.5 -44.001 5.5
c-15.333 0 -30.666 -3.33301 -45.999 -10s-29.166 -17 -41.499 -31s-22.5 -31.667 -30.5 -53s-12 -46.666 -12 -75.999c0 -25.333 2 -48.833 6 -70.5s10.333 -40.667 19 -57s20 -29.166 34 -38.499s31 -14 51 -14c14 0 24.333 1.66699 31 5c3.33301 1.33301 6.33301 3 9 5
v-50z" />
    <glyph glyph-name="uni0E15" unicode="&#xe15;" horiz-adv-x="429" 
d="M232 0l-10.002 -4.00488c-3.33301 -1.33301 -7.33301 -2.33301 -12 -3s-10.667 -1 -18 -1c-27.333 0 -51.666 5.83301 -72.999 17.5s-39.166 27.667 -53.499 48s-25.166 44.333 -32.499 72s-11 57.834 -11 90.501c0 39.333 3.5 73 10.5 101s16.5 50.833 28.5 68.5
s25.833 30.5 41.5 38.5s32.167 12 49.5 12c7.33301 0 14.666 -2.66699 21.999 -8s13.666 -11 18.999 -17c6.66699 -7.33301 13 -15.666 19 -24.999c6 9.33301 12.333 17.666 19 24.999c5.33301 6 11.666 11.667 18.999 17s14.666 8 21.999 8
c14.667 0 29.334 -3.66699 44.001 -11s27.5 -17 38.5 -29s20 -26 27 -42s10.5 -32.667 10.5 -50v-308h-60v308c0 10.667 -1.66699 20.834 -5 30.501s-7.83301 18.334 -13.5 26.001s-12.167 13.834 -19.5 18.501s-14.666 7 -21.999 7c-5.33301 0 -11.5 -3.16699 -18.5 -9.5
s-13.5 -13.166 -19.5 -20.499c-7.33301 -8.66699 -14.666 -18.667 -21.999 -30c-8 11.333 -15.667 21.333 -23 30l-19.5 20.5c-6.33301 6.33301 -12.166 9.5 -17.499 9.5c-7.33301 0 -15 -2.83301 -23 -8.5s-15.5 -15 -22.5 -28s-12.833 -30.333 -17.5 -52
s-7 -48.834 -7 -81.501c0 -25.333 2 -48.833 6 -70.5s10.333 -40.667 19 -57s20 -29.166 34 -38.499s31 -14 51 -14c7.33301 0 13.333 0.5 18 1.5s8.66699 2.16699 12 3.5s6.66602 3 9.99902 5v-50z" />
    <glyph glyph-name="uni0E16" unicode="&#xe16;" horiz-adv-x="429" 
d="M122 70c0 -5.33301 0.329102 -9.83203 0.996094 -13.499s3.66699 -5.83398 9 -6.50098h30v-50h-40c-20 -0 -35 5.33301 -45 16s-15 28.667 -15 54v130c0 12.667 1 23.834 3 33.501s4.33301 18.167 7 25.5c2.66699 8 6 15 10 21l-30 25l-20.5 16.5
c-6.33301 5 -9.5 7.83301 -9.5 8.5c10.667 20 24.334 38.333 41.001 55c14 13.333 31.833 25.833 53.5 37.5s48.5 17.5 80.5 17.5c22.667 0 45.5 -2.66699 68.5 -8s43.833 -13.5 62.5 -24.5s34 -25.5 46 -43.5s18 -39.333 18 -64v-240c0 -9.33301 -2 -17.5 -6 -24.5
s-8.66699 -13.167 -14 -18.5c-6 -6.66699 -12.667 -12.334 -20 -17.001h-20v280c0 22.667 -4.16699 41.167 -12.5 55.5s-19.166 25.5 -32.499 33.5s-28 13.5 -44 16.5s-31.333 4.5 -46 4.5c-19.333 0 -36.166 -3.16699 -50.499 -9.5s-26.166 -13.166 -35.499 -20.499
c-11.333 -8.66699 -21 -18.667 -29 -30l60 -50c-4 -4.66699 -7.33301 -10.667 -10 -18c-2.66699 -6.66699 -5 -14.834 -7 -24.501s-3 -22.167 -3 -37.5v-130z" />
    <glyph glyph-name="uni0E17" unicode="&#xe17;" horiz-adv-x="424" 
d="M97 0l-60 -0.00195312v430h60v-60c10 12.667 22.333 24.334 37 35.001c12.667 8.66699 28.334 16.667 47.001 24s40.667 11 66 11c22.667 0 42.667 -4.5 60 -13.5s32 -20.667 44 -35s21 -30.5 27 -48.5s9 -35.667 9 -53v-290h-60v260c0 40 -8.33301 70 -25 90
s-45 30 -85 30c-17.333 0 -33.333 -3.16699 -48 -9.5s-27.334 -13.166 -38.001 -20.499c-12 -8.66699 -23.333 -18.667 -34 -30v-320z" />
    <glyph glyph-name="uni0E18" unicode="&#xe18;" horiz-adv-x="424" 
d="M377 351c-16 7.33301 -32.667 14 -50 20c-15.333 5.33301 -32.5 10 -51.5 14s-38.5 6 -58.5 6c-10 0 -21.833 -0.333008 -35.5 -1s-26.834 -3 -39.501 -7s-23.334 -10.167 -32.001 -18.5s-13 -19.833 -13 -34.5c0 -18.667 7.16699 -31.334 21.5 -38.001
s32.166 -11.334 53.499 -14.001s44.666 -5.16699 69.999 -7.5s48.666 -8 69.999 -17s39.166 -23.333 53.499 -43s21.5 -48.167 21.5 -85.5c0 -16 -3 -32 -9 -48s-15.667 -30.333 -29 -43s-30.833 -22.834 -52.5 -30.501s-48.167 -11.5 -79.5 -11.5
c-11.333 0 -26.666 0.833008 -45.999 2.5s-38.166 6.83398 -56.499 15.501s-34.166 22.334 -47.499 41.001s-20 45 -20 79v70h60v-70c0 -22 4 -39 12 -51s17.833 -21 29.5 -27s23.667 -9.5 36 -10.5s23.166 -1.5 32.499 -1.5c34 0 60.833 8.5 80.5 25.5
s29.5 36.833 29.5 59.5c0 29.333 -7.16699 50.833 -21.5 64.5s-32.166 23.334 -53.499 29.001s-44.666 9.33398 -69.999 11.001s-48.666 5.16699 -69.999 10.5s-39.166 14.5 -53.499 27.5s-21.5 33.833 -21.5 62.5c0 22.667 6.16699 41.167 18.5 55.5
s27.5 25.666 45.5 33.999s37.5 14 58.5 17s40.167 4.5 57.5 4.5c20 0 39.5 -2 58.5 -6s36.167 -8.66699 51.5 -14c17.333 -6 34 -12.667 50 -20v-50z" />
    <glyph glyph-name="uni0E19" unicode="&#xe19;" horiz-adv-x="424" 
d="M327 430l59.999 0.000976562v-430h-60v60c-10.667 -12.667 -23.334 -24 -38.001 -34c-12.667 -8.66699 -28.167 -16.5 -46.5 -23.5s-40.166 -10.5 -65.499 -10.5c-22.667 0 -42.667 4.5 -60 13.5s-32 20.5 -44 34.5s-21 29.833 -27 47.5s-9 35.167 -9 52.5v290h60v-260
c0 -40 8.33301 -70 25 -90s45 -30 85 -30c17.333 0 33.333 3.16699 48 9.5s27.334 13.166 38.001 20.499c12 8.66699 23.333 18.667 34 30v320z" />
    <glyph glyph-name="uni0E1A" unicode="&#xe1a;" horiz-adv-x="414" 
d="M170 -8c-22.667 0 -42.3311 4.5 -58.998 13.5s-30.5 20.667 -41.5 35s-19.167 30.833 -24.5 49.5s-8 37.667 -8 57v283h60v-287c0 -11.333 1.5 -23 4.5 -35s8 -23 15 -33s16 -18.333 27 -25s24.5 -10 40.5 -10h42c16 0 29.667 3.33301 41 10s20.666 15 27.999 25
s12.833 21 16.5 33s5.5 23.667 5.5 35v287h60v-283c0 -19.333 -2.83301 -38.333 -8.5 -57s-14.334 -35.167 -26.001 -49.5s-26 -26 -43 -35s-36.833 -13.5 -59.5 -13.5h-70z" />
    <glyph glyph-name="uni0E1B" unicode="&#xe1b;" horiz-adv-x="414" 
d="M170 -8c-22.667 0 -42.3311 4.5 -58.998 13.5s-30.5 20.667 -41.5 35s-19.167 30.833 -24.5 49.5s-8 37.667 -8 57v283h60v-287c0 -11.333 1.5 -23 4.5 -35s8 -23 15 -33s16 -18.333 27 -25s24.5 -10 40.5 -10h42c16 0 29.667 3.33301 41 10s20.666 15 27.999 25
s12.833 21 16.5 33s5.5 23.667 5.5 35v417h60v-413c0 -19.333 -2.83301 -38.333 -8.5 -57s-14.334 -35.167 -26.001 -49.5s-26 -26 -43 -35s-36.833 -13.5 -59.5 -13.5h-70z" />
    <glyph glyph-name="uni0E1C" unicode="&#xe1c;" horiz-adv-x="500" 
d="M463 430c-4.66699 -68.667 -11.834 -129.667 -21.501 -183s-19.5 -98.333 -29.5 -135c-12 -42.667 -25 -80 -39 -112h-40l-90 215l-90 -215h-40c-14 32 -26.667 66.333 -38 103c-9.33301 31.333 -18 66.5 -26 105.5s-12 79.167 -12 120.5
c0 10.667 0.833008 21.834 2.5 33.501s4.66699 22.5 9 32.5s10.833 18.333 19.5 25s20 10 34 10h42v-50h-28c-5.33301 0 -9.5 -2 -12.5 -6s-5.16699 -8.83301 -6.5 -14.5s-2.16602 -11.334 -2.49902 -17.001s-0.5 -10.5 -0.5 -14.5c0 -30 2.5 -58.5 7.5 -85.5
s10.5 -51.167 16.5 -72.5c7.33301 -24.667 15.666 -48 24.999 -70l85 210h30l85 -210c8.66699 17.333 17 41.333 25 72c6.66699 25.333 13.334 59 20.001 101s11.667 94.333 15 157h60z" />
    <glyph glyph-name="uni0E1D" unicode="&#xe1d;" horiz-adv-x="500" 
d="M463 570c0 -93.333 -4.66699 -175.333 -14 -246s-19.666 -130 -30.999 -178c-13.333 -56 -28.333 -104.667 -45 -146h-40l-90 215l-90 -215h-40c-14 32 -26.667 66.333 -38 103c-9.33301 31.333 -18 66.5 -26 105.5s-12 79.167 -12 120.5
c0 10.667 0.833008 21.834 2.5 33.501s4.66699 22.5 9 32.5s10.833 18.333 19.5 25s20 10 34 10h42v-50h-28c-5.33301 0 -9.5 -2 -12.5 -6s-5.16699 -8.83301 -6.5 -14.5s-2.16602 -11.334 -2.49902 -17.001s-0.5 -10.5 -0.5 -14.5c0 -30 2.5 -58.5 7.5 -85.5
s10.5 -51.167 16.5 -72.5c7.33301 -24.667 15.666 -48 24.999 -70l85 210h30l85 -210c11.333 29.333 21.333 66.333 30 111c7.33301 38 14.166 86.5 20.499 145.5s9.5 130.167 9.5 213.5h60z" />
    <glyph glyph-name="uni0E1E" unicode="&#xe1e;" horiz-adv-x="522" 
d="M261 324l-94 -324h-37l-123 430h57l87 -307l92 307h36l91 -307l88 307h57l-122 -430h-37z" />
    <glyph glyph-name="uni0E1F" unicode="&#xe1f;" horiz-adv-x="562" 
d="M261 324l-94 -324h-37l-123 430h57l87 -307l92 307h36l91 -307l128 447h57l-162 -570h-37z" />
    <glyph glyph-name="uni0E20" unicode="&#xe20;" horiz-adv-x="429" 
d="M122 70c0 -25.333 -5.00391 -43.334 -15.0039 -54.001s-25 -16 -45 -16h-40v50h30c5.33301 0.666992 8.33301 2.83398 9 6.50098s1 8.16699 1 13.5v130c0 12.667 1 23.834 3 33.501s4.33301 18.167 7 25.5c2.66699 8 6 15 10 21l-30 25l-20.5 16.5
c-6.33301 5 -9.5 7.83301 -9.5 8.5c10.667 20 24.334 38.333 41.001 55c14 13.333 31.833 25.833 53.5 37.5s48.5 17.5 80.5 17.5c22.667 0 45.5 -2.66699 68.5 -8s43.833 -13.5 62.5 -24.5s34 -25.5 46 -43.5s18 -39.333 18 -64v-240c0 -9.33301 -2 -17.5 -6 -24.5
s-8.66699 -13.167 -14 -18.5c-6 -6.66699 -12.667 -12.334 -20 -17.001h-20v280c0 22.667 -4.16699 41.167 -12.5 55.5s-19.166 25.5 -32.499 33.5s-28 13.5 -44 16.5s-31.333 4.5 -46 4.5c-19.333 0 -36.166 -3.16699 -50.499 -9.5s-26.166 -13.166 -35.499 -20.499
c-11.333 -8.66699 -21 -18.667 -29 -30l60 -50c-4 -4.66699 -7.33301 -10.667 -10 -18c-2.66699 -6.66699 -5 -14.834 -7 -24.501s-3 -22.167 -3 -37.5v-130z" />
    <glyph glyph-name="uni0E21" unicode="&#xe21;" horiz-adv-x="424" 
d="M37 0v429.999h60v-320c10.667 -11.333 22 -21.333 34 -30c10.667 -7.33301 23.334 -14.166 38.001 -20.499s30.667 -9.5 48 -9.5c40 0 68.333 10 85 30s25 50 25 90v260h60v-290c0 -17.333 -3 -34.833 -9 -52.5s-15 -33.5 -27 -47.5s-26.667 -25.5 -44 -34.5
s-37.333 -13.5 -60 -13.5c-25.333 0 -47.333 3.5 -66 10.5s-34.334 14.833 -47.001 23.5c-14.667 10 -27 21.333 -37 34v-60h-60z" />
    <glyph glyph-name="uni0E22" unicode="&#xe22;" horiz-adv-x="399" 
d="M22 125c0 23.333 5.16504 42.834 15.498 58.501s21.833 28.167 34.5 37.5c14.667 10.667 31.334 18.667 50.001 24c-17.333 3.33301 -32.333 9 -45 17c-11.333 7.33301 -21.666 17.166 -30.999 29.499s-14 28.5 -14 48.5c0 18.667 3.33301 34.334 10 47.001s15 23 25 31
s20.833 13.667 32.5 17s22.5 5 32.5 5c12.667 0 23.5 -0.5 32.5 -1.5s16.167 -2.16699 21.5 -3.5c6.66699 -2 12 -3.66699 16 -5v-50l-15 5c-5.33301 1.33301 -11.666 2.5 -18.999 3.5s-16 1.5 -26 1.5c-15.333 0 -27.5 -5 -36.5 -15s-13.5 -21.667 -13.5 -35
c0 -21.333 10.333 -38.333 31 -51s47 -19 79 -19v-50c-21.333 0 -39.5 -3.33301 -54.5 -10s-27.333 -14.834 -37 -24.501s-16.834 -20 -21.501 -31s-7 -20.833 -7 -29.5c0 -24.667 7.5 -45 22.5 -61s43.5 -24 85.5 -24c20.667 0 38.167 3.33301 52.5 10s26 15 35 25
s15.333 21 19 33s5.5 23.667 5.5 35v287h60v-283c0 -19.333 -3 -38.333 -9 -57s-15.833 -35.167 -29.5 -49.5s-31.5 -26 -53.5 -35s-48.667 -13.5 -80 -13.5s-57.833 3.33301 -79.5 10s-39 15.834 -52 27.501s-22.333 25.667 -28 42s-8.5 34.166 -8.5 53.499z" />
    <glyph glyph-name="uni0E23" unicode="&#xe23;" horiz-adv-x="354" 
d="M297 350c-8 7.33301 -17.999 13.9971 -29.999 19.9971c-10 5.33301 -22.5 10 -37.5 14s-32.5 6 -52.5 6s-38.333 -5 -55 -15s-25 -25 -25 -45c0 -18.667 5.5 -32.667 16.5 -42s24.5 -17 40.5 -23s33.667 -11.5 53 -16.5s37 -12.167 53 -21.5s29.5 -21.833 40.5 -37.5
s16.5 -37.167 16.5 -64.5c0 -16 -1.83301 -32 -5.5 -48s-11 -30.333 -22 -43s-26.333 -22.834 -46 -30.501s-45.167 -11.5 -76.5 -11.5c-20 0 -38 1.83301 -54 5.5s-29.667 8.16699 -41 13.5c-13.333 5.33301 -25 11.666 -35 18.999v50c12 -7.33301 25 -14 39 -20
c12 -5.33301 25.833 -10 41.5 -14s32.167 -6 49.5 -6c33.333 0 56.666 8.5 69.999 25.5s20 36.833 20 59.5c0 19.333 -5.5 33.833 -16.5 43.5s-24.5 17.334 -40.5 23.001s-33.667 10.834 -53 15.501s-37 11.334 -53 20.001s-29.5 20.834 -40.5 36.501
s-16.5 37.834 -16.5 66.501c0 17.333 4 32.833 12 46.5s18.5 25.167 31.5 34.5s28 16.5 45 21.5s34.167 7.5 51.5 7.5c20 0 37.5 -2 52.5 -6s27.5 -8.66699 37.5 -14c12 -6 22 -12.667 30 -20v-50z" />
    <glyph glyph-name="uni0E24" unicode="&#xe24;" horiz-adv-x="429" 
d="M122 70c0 -5.33301 0.329102 -9.83203 0.996094 -13.499s3.66699 -5.83398 9 -6.50098h30v-50h-40c-20 -0 -35 5.33301 -45 16s-15 28.667 -15 54v130c0 12.667 1 23.834 3 33.501s4.33301 18.167 7 25.5c2.66699 8 6 15 10 21l-30 25l-20.5 16.5
c-6.33301 5 -9.5 7.83301 -9.5 8.5c10.667 20 24.334 38.333 41.001 55c14 13.333 31.833 25.833 53.5 37.5s48.5 17.5 80.5 17.5c22.667 0 45.5 -2.66699 68.5 -8s43.833 -13.5 62.5 -24.5s34 -25.5 46 -43.5s18 -39.333 18 -64v-448c0 -9.33301 -2 -17.5 -6 -24.5
s-8.66699 -13.167 -14 -18.5c-6 -6.66699 -12.667 -12.334 -20 -17.001h-20v488c0 22.667 -4.16699 41.167 -12.5 55.5s-19.166 25.5 -32.499 33.5s-28 13.5 -44 16.5s-31.333 4.5 -46 4.5c-19.333 0 -36.166 -3.16699 -50.499 -9.5s-26.166 -13.166 -35.499 -20.499
c-11.333 -8.66699 -21 -18.667 -29 -30l60 -50c-4 -4.66699 -7.33301 -10.667 -10 -18c-2.66699 -6.66699 -5 -14.834 -7 -24.501s-3 -22.167 -3 -37.5v-130z" />
    <glyph glyph-name="uni0E25" unicode="&#xe25;" horiz-adv-x="389" 
d="M352 0l-60 -0.00195312v210c-4.66699 -4 -11.334 -7.33301 -20.001 -10c-7.33301 -2.66699 -17.5 -5 -30.5 -7s-29.5 -3 -49.5 -3c-10 0 -21.333 -1.33301 -34 -4s-24.667 -7.16699 -36 -13.5s-20.833 -14.666 -28.5 -24.999s-11.5 -22.833 -11.5 -37.5
c0 -12.667 2.33301 -23.334 7 -32.001s10.667 -15.834 18 -21.501s15.833 -9.83398 25.5 -12.501s19.5 -4 29.5 -4c14 0 26 1.66699 36 5c5.33301 1.33301 10 3 14 5v-50c-4 -1.33301 -8.66699 -2.66602 -14 -3.99902c-4.66699 -1.33301 -10 -2.33301 -16 -3
s-12.667 -1 -20 -1c-45.333 0 -80 9.66699 -104 29s-36 49 -36 89c0 24.667 5.16699 45.334 15.5 62.001s23.5 30 39.5 40s34.167 17.167 54.5 21.5s40.5 6.5 60.5 6.5c22.667 0 40.5 1 53.5 3s23.167 4.33301 30.5 7c8 2.66699 13.333 6 16 10v26
c0 13.333 -1.83301 26.333 -5.5 39s-9.5 23.834 -17.5 33.501s-18.333 17.334 -31 23.001s-28 8.5 -46 8.5c-22.667 0 -42.667 -4.66699 -60 -14s-32 -19.666 -44 -30.999c-14 -13.333 -26 -28.333 -36 -45l-20 50c8.66699 16.667 20.334 31.667 35.001 45
c12.667 11.333 29.167 21.666 49.5 30.999s45.5 14 75.5 14c55.333 0 95.833 -14.5 121.5 -43.5s38.5 -71.167 38.5 -126.5v-270z" />
    <glyph glyph-name="uni0E26" unicode="&#xe26;" horiz-adv-x="429" 
d="M122 70c0 -25.333 -5.00391 -43.334 -15.0039 -54.001s-25 -16 -45 -16h-40v50h30c5.33301 0.666992 8.33301 2.83398 9 6.50098s1 8.16699 1 13.5v130c0 12.667 1 23.834 3 33.501s4.33301 18.167 7 25.5c2.66699 8 6 15 10 21l-30 25l-20.5 16.5
c-6.33301 5 -9.5 7.83301 -9.5 8.5c10.667 20 24.334 38.333 41.001 55c14 13.333 31.833 25.833 53.5 37.5s48.5 17.5 80.5 17.5c22.667 0 45.5 -2.66699 68.5 -8s43.833 -13.5 62.5 -24.5s34 -25.5 46 -43.5s18 -39.333 18 -64v-448c0 -9.33301 -2 -17.5 -6 -24.5
s-8.66699 -13.167 -14 -18.5c-6 -6.66699 -12.667 -12.334 -20 -17.001h-20v488c0 22.667 -4.16699 41.167 -12.5 55.5s-19.166 25.5 -32.499 33.5s-28 13.5 -44 16.5s-31.333 4.5 -46 4.5c-19.333 0 -36.166 -3.16699 -50.499 -9.5s-26.166 -13.166 -35.499 -20.499
c-11.333 -8.66699 -21 -18.667 -29 -30l60 -50c-4 -4.66699 -7.33301 -10.667 -10 -18c-2.66699 -6.66699 -5 -14.834 -7 -24.501s-3 -22.167 -3 -37.5v-130z" />
    <glyph glyph-name="uni0E27" unicode="&#xe27;" horiz-adv-x="384" 
d="M42 90c8 -9.33301 18 -17.665 30 -24.998c10 -6.66699 22.5 -12.5 37.5 -17.5s32.5 -7.5 52.5 -7.5s38.5 4.16699 55.5 12.5s31.833 20.166 44.5 35.499s22.5 33.833 29.5 55.5s10.5 45.5 10.5 71.5c0 52.667 -13.333 93.334 -40 122.001s-60 43 -100 43
c-20 0 -37.5 -2 -52.5 -6s-27.5 -8.66699 -37.5 -14c-12 -6 -22 -12.667 -30 -20l-20 50c7.33301 9.33301 17 17.666 29 24.999c10.667 6 24.834 11.667 42.501 17s40.5 8 68.5 8c27.333 0 53.166 -5 77.499 -15s45.5 -24.5 63.5 -43.5s32.333 -42.5 43 -70.5s16 -60 16 -96
s-5.33301 -68 -16 -96s-25 -51.333 -43 -70s-39.167 -32.834 -63.5 -42.501s-50.166 -14.5 -77.499 -14.5c-28 0 -50.833 2.5 -68.5 7.5s-31.834 10.5 -42.501 16.5c-12 7.33301 -21.667 15.333 -29 24z" />
    <glyph glyph-name="uni0E28" unicode="&#xe28;" horiz-adv-x="434" 
d="M97 180c8.66699 11.333 19 21.333 31 30c10 7.33301 21.667 14.166 35 20.499s28 9.5 44 9.5v-60c-16 0 -30.667 -2.66699 -44 -8s-25 -11 -35 -17c-12 -7.33301 -22.333 -15.666 -31 -24.999v-130h-60v300c0 22.667 5.16699 42.667 15.5 60s24 32 41 44
s36.167 21 57.5 27s43.333 9 66 9s44 -3 64 -9c13.333 5.33301 26 12.666 38 21.999s18 21.666 18 36.999h60c0 -22 -6.5 -39.5 -19.5 -52.5s-27.167 -23.167 -42.5 -30.5c18.667 -11.333 33.667 -26.166 45 -44.499s17 -39.166 17 -62.499v-300h-60v300
c0 14.667 -3.5 27.667 -10.5 39s-16 20.833 -27 28.5s-23.833 13.334 -38.5 17.001s-29.334 5.5 -44.001 5.5c-15.333 0 -30.166 -1.83301 -44.499 -5.5s-27 -9.33398 -38 -17.001s-20 -17.167 -27 -28.5s-10.5 -24.333 -10.5 -39v-120z" />
    <glyph glyph-name="uni0E29" unicode="&#xe29;" horiz-adv-x="414" 
d="M317 210h-89.9971v50h90v169h60v-169h30v-50h-30v-63c0 -19.333 -2.83301 -38.333 -8.5 -57s-14.334 -35.167 -26.001 -49.5s-26 -26 -43 -35s-36.833 -13.5 -59.5 -13.5h-70c-22.667 0 -42.334 4.5 -59.001 13.5s-30.5 20.667 -41.5 35s-19.167 30.833 -24.5 49.5
s-8 37.667 -8 57v283h60v-287c0 -11.333 1.5 -23 4.5 -35s8 -23 15 -33s16 -18.333 27 -25s24.5 -10 40.5 -10h42c16 0 29.667 3.33301 41 10s20.666 15 27.999 25s12.833 21 16.5 33s5.5 23.667 5.5 35v67z" />
    <glyph glyph-name="uni0E2A" unicode="&#xe2a;" horiz-adv-x="389" 
d="M352 0h-60v210c-4.66699 -4 -11.334 -7.33301 -20.001 -10c-7.33301 -2.66699 -17.5 -5 -30.5 -7s-29.5 -3 -49.5 -3c-10 0 -21.333 -1.33301 -34 -4s-24.667 -7.16699 -36 -13.5s-20.833 -14.666 -28.5 -24.999s-11.5 -22.833 -11.5 -37.5
c0 -12.667 2.33301 -23.334 7 -32.001s10.667 -15.834 18 -21.501s15.833 -9.83398 25.5 -12.501s19.5 -4 29.5 -4c14 0 26 1.66699 36 5c5.33301 1.33301 10 3 14 5v-50c-4 -1.33301 -8.66699 -2.66602 -14 -3.99902c-4.66699 -1.33301 -10 -2.33301 -16 -3
s-12.667 -1 -20 -1c-45.333 0 -80 9.66699 -104 29s-36 49 -36 89c0 24.667 5.16699 45.334 15.5 62.001s23.5 30 39.5 40s34.167 17.167 54.5 21.5s40.5 6.5 60.5 6.5c22.667 0 40.5 1 53.5 3s23.167 4.33301 30.5 7c8 2.66699 13.333 6 16 10v26
c0 13.333 -1.83301 26.333 -5.5 39s-9.5 23.834 -17.5 33.501s-18.333 17.334 -31 23.001s-28 8.5 -46 8.5c-22.667 0 -42.667 -4.66699 -60 -14s-32 -19.666 -44 -30.999c-14 -13.333 -26 -28.333 -36 -45l-20 50c8.66699 16.667 20.334 31.667 35.001 45
c12.667 11.333 29.167 21.666 49.5 30.999s45.5 14 75.5 14c18.667 0 36 -2 52 -6c12 5.33301 23 12.666 33 21.999s15 20.666 15 33.999h60c0 -20 -5.5 -36.333 -16.5 -49s-23.833 -22.667 -38.5 -30c36.667 -28 55 -75 55 -141v-270z" />
    <glyph glyph-name="uni0E2B" unicode="&#xe2b;" horiz-adv-x="404" 
d="M97 240l190 189.998h79l-144 -144c13.333 -2.66699 28.333 -7.16699 45 -13.5s32.5 -15.666 47.5 -27.999s27.5 -28.666 37.5 -48.999s15 -45.5 15 -75.5v-120h-60v106c0 28 -4.66699 51.333 -14 70s-20.5 33.667 -33.5 45s-26 19.5 -39 24.5s-23.167 8.16699 -30.5 9.5
l-93 -95v-160h-60v430h60v-190z" />
    <glyph glyph-name="uni0E2C" unicode="&#xe2c;" horiz-adv-x="562" 
d="M261 324l-94 -324.001h-37l-123 430h57l87 -307l92 307h36l91 -307l69 240c1.33301 4 2.33301 8.16699 3 12.5s1 8.16602 1 11.499c0 12.667 -3.33301 23.667 -10 33s-14 17 -22 23c-9.33301 7.33301 -19.666 13 -30.999 17c22 6 41.667 14.333 59 25
c14.667 8.66699 28.167 20 40.5 34s18.5 31 18.5 51h57c0 -25.333 -6 -45.166 -18 -59.499s-25.333 -25.166 -40 -32.499c-17.333 -8.66699 -36.333 -14.667 -57 -18c11.333 -5.33301 21.333 -11.666 30 -18.999c7.33301 -6.66699 14.166 -14.667 20.499 -24
s9.5 -20.333 9.5 -33c0 -6.66699 -1 -13.334 -3 -20.001l-104 -364h-37z" />
    <glyph glyph-name="uni0E2D" unicode="&#xe2d;" horiz-adv-x="424" 
d="M22 300c5.33301 26 15.3389 49.333 30.0059 70c6 8.66699 13.667 17.167 23 25.5s20.166 15.833 32.499 22.5s26.666 12 42.999 16s35.166 6 56.499 6c36 0 66.5 -7 91.5 -21s45.167 -31.833 60.5 -53.5s26.333 -45.834 33 -72.501s10 -52.667 10 -78
c0 -38.667 -5.16699 -72 -15.5 -100s-24.5 -51.167 -42.5 -69.5s-38.833 -31.833 -62.5 -40.5s-48.5 -13 -74.5 -13s-50.333 3.5 -73 10.5s-42.334 17.5 -59.001 31.5s-29.667 31.167 -39 51.5s-14 43.5 -14 69.5c0 22 3.33301 38.333 10 49s20 16 40 16h90v-50h-65
c-10 0 -15 -5 -15 -15c0 -14 2 -27.833 6 -41.5s10.833 -26 20.5 -37s22.5 -19.833 38.5 -26.5s36 -10 60 -10c47.333 0 81.666 16 102.999 48s32 74.333 32 127c0 25.333 -3 48.666 -9 69.999s-14.833 39.833 -26.5 55.5s-25.834 27.834 -42.501 36.501s-35.667 13 -57 13
c-26.667 0 -48 -4.66699 -64 -14s-28.667 -19.666 -38 -30.999c-10.667 -13.333 -18.667 -28.333 -24 -45h-59z" />
    <glyph glyph-name="uni0E2E" unicode="&#xe2e;" horiz-adv-x="424" 
d="M22 300c5.33301 26 15.3389 49.333 30.0059 70c6 8.66699 13.667 17.167 23 25.5s20.166 15.833 32.499 22.5s26.666 12 42.999 16s35.166 6 56.499 6c20.667 0 40 -2.66699 58 -8c6.66699 2 13.5 4.66699 20.5 8s13.5 7.33301 19.5 12s11 10.167 15 16.5s6 13.5 6 21.5
h56c0 -11.333 -2 -21.5 -6 -30.5s-9.16699 -16.833 -15.5 -23.5s-13.333 -12.334 -21 -17.001s-15.5 -8.33398 -23.5 -11.001c15.333 -10.667 28.5 -23.5 39.5 -38.5s20 -31 27 -48s12 -34.667 15 -53s4.5 -36.166 4.5 -53.499c0 -38.667 -5.16699 -72 -15.5 -100
s-24.5 -51.167 -42.5 -69.5s-38.833 -31.833 -62.5 -40.5s-48.5 -13 -74.5 -13s-50.333 3.5 -73 10.5s-42.334 17.5 -59.001 31.5s-29.667 31.167 -39 51.5s-14 43.5 -14 69.5c0 22 3.33301 38.333 10 49s20 16 40 16h90v-50h-65c-10 0 -15 -5 -15 -15
c0 -14 2 -27.833 6 -41.5s10.833 -26 20.5 -37s22.5 -19.833 38.5 -26.5s36 -10 60 -10c47.333 0 81.666 16 102.999 48s32 74.333 32 127c0 25.333 -3 48.666 -9 69.999s-14.833 39.833 -26.5 55.5s-25.834 27.834 -42.501 36.501s-35.667 13 -57 13
c-26.667 0 -48 -4.66699 -64 -14s-28.667 -19.666 -38 -30.999c-10.667 -13.333 -18.667 -28.333 -24 -45h-59z" />
    <glyph glyph-name="uni0E2F" unicode="&#xe2f;" horiz-adv-x="389" 
d="M82 430c7.33301 -28 17.167 -49.9971 29.5 -65.9971s32.5 -24 60.5 -24s53.167 7.66699 75.5 23s37.166 37.666 44.499 66.999h60v-283c0 -24 -1.16699 -45 -3.5 -63s-7.16602 -33.333 -14.499 -46s-17.5 -22.167 -30.5 -28.5s-29.833 -9.5 -50.5 -9.5v50
c6.66699 0 12.5 0.666992 17.5 2s9.16699 5.16602 12.5 11.499s5.66602 16.166 6.99902 29.499s2 32.333 2 57v210c-8 -13.333 -17.667 -25 -29 -35c-10 -8.66699 -22.333 -16.667 -37 -24s-32.667 -11 -54 -11c-42 0 -75.667 12.333 -101 37s-41.666 59 -48.999 103h60z
" />
    <glyph glyph-name="uni0E30" unicode="&#xe30;" horiz-adv-x="254" 
d="M217 329l-19.999 -48.999h-76c-28 0 -49 5.66699 -63 17s-21 32.333 -21 63v30h56v-37c0 -8.66699 2.66699 -14.834 8 -18.501s16.666 -5.5 33.999 -5.5h82zM217.001 109.001l-19.999 -48.999h-76c-28 0 -49 5.66699 -63 17s-21 32.333 -21 63v30h56v-37
c0 -8.66699 2.66699 -14.834 8 -18.501s16.666 -5.5 33.999 -5.5h82z" />
    <glyph glyph-name="uni0E31" unicode="&#xe31;" 
d="M30 554l-19.999 -48.999h-169c-28 0 -49 5.66699 -63 17s-21 32.333 -21 63v30h56v-37c0 -8.66699 2.66699 -14.834 8 -18.501s16.666 -5.5 33.999 -5.5h175z" />
    <glyph glyph-name="uni0E32" unicode="&#xe32;" horiz-adv-x="339" 
d="M22 400c8 7.33301 17.666 13.999 28.999 19.999c9.33301 5.33301 20.833 10 34.5 14s29.167 6 46.5 6c19.333 0 39 -3.16699 59 -9.5s38.333 -16 55 -29s30.167 -29.5 40.5 -49.5s15.5 -44 15.5 -72v-280h-60v270c0 20.667 -3.33301 38.667 -10 54
s-15.5 27.833 -26.5 37.5s-23.667 16.834 -38 21.501s-29.5 7 -45.5 7c-15.333 0 -29.166 -2 -41.499 -6s-22.833 -8.66699 -31.5 -14c-10.667 -6 -19.667 -12.667 -27 -20v50z" />
    <glyph glyph-name="uni0E33" unicode="&#xe33;" horiz-adv-x="339" 
d="M22 400c8 7.33301 17.666 13.999 28.999 19.999c9.33301 5.33301 20.833 10 34.5 14s29.167 6 46.5 6c19.333 0 39 -3.16699 59 -9.5s38.333 -16 55 -29s30.167 -29.5 40.5 -49.5s15.5 -44 15.5 -72v-280h-60v270c0 20.667 -3.33301 38.667 -10 54
s-15.5 27.833 -26.5 37.5s-23.667 16.834 -38 21.501s-29.5 7 -45.5 7c-15.333 0 -29.166 -2 -41.499 -6s-22.833 -8.66699 -31.5 -14c-10.667 -6 -19.667 -12.667 -27 -20v50zM-195.001 584.999c0 22 7.83301 40.833 23.5 56.5s34.5 23.5 56.5 23.5
s40.833 -7.83301 56.5 -23.5s23.5 -34.5 23.5 -56.5s-7.83301 -40.833 -23.5 -56.5s-34.5 -23.5 -56.5 -23.5s-40.833 7.83301 -56.5 23.5s-23.5 34.5 -23.5 56.5zM-145.001 584.999c0 -8.66699 2.83301 -15.834 8.5 -21.501s12.834 -8.5 21.501 -8.5c8 0 15 2.83301 21 8.5
s9 12.834 9 21.501c0 8 -3 15 -9 21s-13 9 -21 9c-8.66699 0 -15.834 -3 -21.501 -9s-8.5 -13 -8.5 -21z" />
    <glyph glyph-name="uni0E34" unicode="&#xe34;" 
d="M-57 505h-280l20 50h260v-50z" />
    <glyph glyph-name="uni0E35" unicode="&#xe35;" 
d="M-57 505h-280l20 50h200v60h60v-110z" />
    <glyph glyph-name="uni0E36" unicode="&#xe36;" 
d="M-337 505l20 50h132c-1.33301 6.66699 -2 11.667 -2 15c0 18 6.33301 33.333 19 46s28 19 46 19s33.333 -6.33301 46 -19s19 -28 19 -46s-6.33301 -33.333 -19 -46s-28 -19 -46 -19h-215zM-137 570c0 -4 1.5 -7.5 4.5 -10.5s6.5 -4.5 10.5 -4.5s7.5 1.5 10.5 4.5
s4.5 6.5 4.5 10.5s-1.5 7.5 -4.5 10.5s-6.5 4.5 -10.5 4.5s-7.5 -1.5 -10.5 -4.5s-4.5 -6.5 -4.5 -10.5z" />
    <glyph glyph-name="uni0E37" unicode="&#xe37;" 
d="M-57 505h-280l20 50h120v60h50v-60h30v60h60v-110z" />
    <glyph glyph-name="uni0E38" unicode="&#xe38;" 
d="M-35 -213h-60v66c0 6 -2 11.5 -6 16.5s-9.33301 7.5 -16 7.5h-28v50h42c21.333 0 38 -6.33301 50 -19s18 -29.667 18 -51v-70z" />
    <glyph glyph-name="uni0E39" unicode="&#xe39;" 
d="M-215 -147c0 6 -1.99805 11.5 -5.99805 16.5s-9.33301 7.5 -16 7.5h-28v50h42c21.333 0 38 -6.33301 50 -19s18 -29.667 18 -51c0 -20 10 -30 30 -30s30 10 30 30v70h60v-74c0 -9.33301 -1 -18.666 -3 -27.999s-6.33301 -17.5 -13 -24.5s-15.834 -12.667 -27.501 -17
s-27.167 -6.5 -46.5 -6.5s-34.833 2.16699 -46.5 6.5s-20.834 10 -27.501 17s-11 15.167 -13 24.5s-3 18.666 -3 27.999z" />
    <glyph glyph-name="uni0E3A" unicode="&#xe3a;" 
d="M-35 -133h-60v60h60v-60z" />
    <glyph glyph-name="uni0E3F" unicode="&#xe3f;" horiz-adv-x="384" 
d="M347 140c0 -20 -3.83301 -38.335 -11.5 -55.002s-18.5 -31.167 -32.5 -43.5s-30.667 -22.166 -50 -29.499s-40.333 -11.333 -63 -12v-82h-57v82h-96v490h96v84h57v-85c40 -2 71.167 -13.667 93.5 -35s33.5 -47.666 33.5 -78.999c0 -26 -7.66699 -49.833 -23 -71.5
s-36.333 -36.167 -63 -43.5c32 -5.33301 59.333 -18.333 82 -39s34 -47.667 34 -81zM97 234.998l0.000976562 -184.999h76c33.333 0 60.666 8.66699 81.999 26s32 38.666 32 63.999c0 29.333 -10.833 52.5 -32.5 69.5s-52.5 25.5 -92.5 25.5h-65zM97.001 439.999v-154.999
h59c30.667 0 55.167 6.66699 73.5 20s27.5 33.333 27.5 60c0 23.333 -7.83301 41.666 -23.5 54.999s-39.5 20 -71.5 20h-65z" />
    <glyph glyph-name="uni0E40" unicode="&#xe40;" horiz-adv-x="159" 
d="M37 430l60 0.000976562v-360c0 -5.33301 0.333008 -9.83301 1 -13.5s3.66699 -5.83398 9 -6.50098h30v-50h-40c-20 -0 -35 5.33301 -45 16s-15 28.667 -15 54v360z" />
    <glyph glyph-name="uni0E41" unicode="&#xe41;" horiz-adv-x="329" 
d="M37 430l60 0.000976562v-360c0 -5.33301 0.333008 -9.83301 1 -13.5s3.66699 -5.83398 9 -6.50098h30v-50h-40c-20 -0 -35 5.33301 -45 16s-15 28.667 -15 54v360zM207 430.001l60 0.000976562v-360c0 -5.33301 0.333008 -9.83301 1 -13.5s3.66699 -5.83398 9 -6.50098
h30v-50h-40c-20 0 -35 5.33301 -45 16s-15 28.667 -15 54v360z" />
    <glyph glyph-name="uni0E42" unicode="&#xe42;" horiz-adv-x="212" 
d="M90 406c0 20.667 -1.00098 38.8359 -3.00098 54.5029s-4.33301 29.5 -7 41.5l-7 32.5c-2 9.66699 -3 19.167 -3 28.5c0 30 10.833 52 32.5 66s57.167 21 106.5 21h91v-50h-77c-35.333 0 -59.666 -2.83301 -72.999 -8.5s-20 -16.167 -20 -31.5c0 -8.66699 1 -17.667 3 -27
l7 -31.5c2.66699 -11.667 5 -25.334 7 -41.001s3 -33.834 3 -54.501v-336c0 -5.33301 0.333008 -9.83301 1 -13.5s3.66699 -5.83398 9 -6.50098h30v-50h-40c-20 -0 -35 5.33301 -45 16s-15 28.667 -15 54v336z" />
    <glyph glyph-name="uni0E43" unicode="&#xe43;" horiz-adv-x="272" 
d="M210 70c0 -5.33301 0.333008 -9.83008 1 -13.4971s3.66699 -5.83398 9 -6.50098h30v-50h-40c-20 0 -35 5.33301 -45 16s-15 28.667 -15 54v311c0 20 1 37 3 51s4.33301 26.667 7 38s5 21.833 7 31.5s3 19.5 3 29.5c0 30 -6.83301 50.667 -20.5 62s-31.5 17 -53.5 17
c-13.333 0 -24.833 -2.66699 -34.5 -8s-17.5 -11 -23.5 -17c-7.33301 -7.33301 -13.333 -15.666 -18 -24.999l-20 50c5.33301 9.33301 12.333 17.666 21 24.999c7.33301 6 17.333 11.667 30 17s28.667 8 48 8c40.667 0 72.667 -10.333 96 -31s35 -53.334 35 -98.001
c0 -15.333 -1 -27.5 -3 -36.5s-4.33301 -18.333 -7 -28s-5 -20.834 -7 -33.501s-3 -30 -3 -52v-311z" />
    <glyph glyph-name="uni0E44" unicode="&#xe44;" horiz-adv-x="272" 
d="M210 70c0 -5.33301 0.331055 -9.83008 0.998047 -13.4971s3.66699 -5.83398 9 -6.50098h30v-50h-40c-20 0 -35 5.33301 -45 16s-15 28.667 -15 54v440c0 6.66699 0.166992 15.667 0.5 27s-0.166992 22.166 -1.5 32.499s-4 18.666 -8 24.999s-10.333 8.16602 -19 5.49902
c-5.33301 -2 -10.333 -5.66699 -15 -11s-8.66699 -11 -12 -17c-4 -7.33301 -7.33301 -14.666 -10 -21.999c-7.33301 9.33301 -15.333 17.666 -24 24.999c-7.33301 6 -16.166 11.667 -26.499 17s-21.833 8 -34.5 8v50c11.333 0 21.5 -1.83301 30.5 -5.5s17 -7.66699 24 -12
s12.5 -8.66602 16.5 -12.999s6.66699 -7.16602 8 -8.49902c4.66699 6.66699 10.667 13 18 19c6 5.33301 13.333 10 22 14s19 6 31 6c15.333 0 27 -3.83301 35 -11.5s13.833 -17.834 17.5 -30.501s5.83398 -27.5 6.50098 -44.5s1 -34.833 1 -53.5v-440z" />
    <glyph glyph-name="uni0E45" unicode="&#xe45;" horiz-adv-x="339" 
d="M22 400c8 7.33301 17.666 14 28.999 20c9.33301 5.33301 20.833 10 34.5 14s29.167 6 46.5 6c19.333 0 39 -3.16699 59 -9.5s38.333 -16 55 -29s30.167 -29.5 40.5 -49.5s15.5 -44 15.5 -72v-428c0 -9.33301 -2 -17.5 -6 -24.5s-8.66699 -13.167 -14 -18.5
c-6 -6.66699 -12.667 -12.334 -20 -17.001h-20v478c0 20.667 -3.33301 38.667 -10 54s-15.5 27.833 -26.5 37.5s-23.667 16.834 -38 21.501s-29.5 7 -45.5 7c-15.333 0 -29.166 -2 -41.499 -6s-22.833 -8.66699 -31.5 -14c-10.667 -6 -19.667 -12.667 -27 -20v50z" />
    <glyph glyph-name="uni0E46" unicode="&#xe46;" horiz-adv-x="399" 
d="M362 -148c0 -9.33301 -2.00195 -17.498 -6.00195 -24.498s-8.66699 -13.167 -14 -18.5c-6 -6.66699 -12.667 -12.334 -20 -17.001h-20v508c0 25.333 -3.33301 46.666 -10 63.999s-20 26 -40 26c-5.33301 0 -11.5 -3.16699 -18.5 -9.5s-13.5 -13.166 -19.5 -20.499
c-7.33301 -8.66699 -14.666 -18.667 -21.999 -30c-8 11.333 -15.667 21.333 -23 30l-19.5 20.5c-6.33301 6.33301 -12.166 9.5 -17.499 9.5c-15.333 0 -27.5 -6.66699 -36.5 -20s-13.5 -30 -13.5 -50c0 -12.667 1.5 -23.5 4.5 -32.5s6.5 -16.167 10.5 -21.5
c4 -6.66699 9 -12 15 -16l-20 -50c-13.333 4 -25 11.333 -35 22c-9.33301 8.66699 -17.5 20.834 -24.5 36.501s-10.5 36.167 -10.5 61.5c0 35.333 9.16699 64.166 27.5 86.499s42.5 33.5 72.5 33.5c7.33301 0 15 -2.66699 23 -8s15.667 -11 23 -17
c8 -7.33301 16 -15.666 24 -24.999c8 9.33301 16 17.666 24 24.999c7.33301 6 15 11.667 23 17s15.667 8 23 8c17.333 0 32.333 -3.5 45 -10.5s23 -16 31 -27s14 -23.833 18 -38.5s6 -29.334 6 -44.001v-468z" />
    <glyph glyph-name="uni0E47" unicode="&#xe47;" 
d="M-158 655c15.333 0 27.835 1.49902 37.502 4.49902s17.834 6.5 24.501 10.5c7.33301 4 13.333 9 18 15v-50c-4.66699 -4 -10.667 -7.33301 -18 -10c-6.66699 -2.66699 -14.834 -5 -24.501 -7s-22.167 -3 -37.5 -3h-70c-20 0 -33.333 -4.33301 -40 -13
s-10 -17.667 -10 -27c0 -6 2.5 -12.5 7.5 -19.5s12.5 -10.5 22.5 -10.5c8.66699 0 15.667 1.5 21 4.5s9.66602 6.5 12.999 10.5s5.66602 9 6.99902 15h19c1.33301 -6 3.33301 -11 6 -15c2 -4 4.83301 -7.5 8.5 -10.5s8.83398 -4.5 15.501 -4.5c10 0 17.5 3.66699 22.5 11
s7.5 13.666 7.5 18.999h50c0 -20 -6.66699 -36.667 -20 -50s-30 -20 -50 -20c-7.33301 0 -14 1 -20 3s-11.333 4.33301 -16 7c-5.33301 2.66699 -10 6 -14 10c-4 -4 -9 -7.33301 -15 -10c-5.33301 -2.66699 -11.666 -5 -18.999 -7s-16 -3 -26 -3c-7.33301 0 -15 1 -23 3
s-15.5 5.66699 -22.5 11s-12.833 12.5 -17.5 21.5s-7 20.5 -7 34.5c0 17.333 3.33301 31.333 10 42s14.667 18.834 24 24.501s19.166 9.33398 29.499 11.001s19.166 2.5 26.499 2.5h80z" />
    <glyph glyph-name="uni0E48" unicode="&#xe48;" 
d="M-95 505v110h60v-110h-60z" />
    <glyph glyph-name="uni0E49" unicode="&#xe49;" 
d="M0 555l-18 -50h-150c-15.333 0 -27.5 4.16699 -36.5 12.5s-13.5 17.5 -13.5 27.5c0 8.66699 -2 14.167 -6 16.5s-8 3.5 -12 3.5h-32v50h70c10 0 19.167 -4.16699 27.5 -12.5s12.5 -17.5 12.5 -27.5c0 -5.33301 2 -10 6 -14s8.66699 -6 14 -6h138z" />
    <glyph glyph-name="uni0E4A" unicode="&#xe4a;" 
d="M-173 595c2.66699 4 6.33301 7.33105 11 9.99805c3.33301 2.66699 8 5 14 7s12.667 3 20 3c20 0 35 -5.16699 45 -15.5s15 -21.833 15 -34.5c0 -5.33301 1 -8.33301 3 -9s4.66699 -1 8 -1h57l-18 -50h-53c-18.667 0 -31.167 4.16699 -37.5 12.5s-9.5 17.5 -9.5 27.5
c0 7.33301 -1.66699 14.166 -5 20.499s-8.33301 9.5 -15 9.5c-8.66699 0 -15 -3.16699 -19 -9.5s-6 -13.166 -6 -20.499h-20c0 6.66699 -1.66699 13.334 -5 20.001s-10 10 -20 10c-5.33301 0 -10 -3.16699 -14 -9.5s-6 -13.166 -6 -20.499s1 -13.5 3 -18.5
s4.33301 -9.16699 7 -12.5s6 -6.33301 10 -9h-60c-4 2.66699 -7.33301 5.66699 -10 9s-5 7.5 -7 12.5s-3 11.167 -3 18.5c0 20 6.66699 36.667 20 50s30 20 50 20c7.33301 0 13.833 -1 19.5 -3s10.5 -4.33301 14.5 -7s7.66699 -6 11 -10z" />
    <glyph glyph-name="uni0E4B" unicode="&#xe4b;" 
d="M-95 585v30h60v-30h48v-50h-48v-30h-60v30h-50v50h50z" />
    <glyph glyph-name="uni0E4C" unicode="&#xe4c;" 
d="M-128 505h-60v21c0 24.667 7.66699 45.667 23 63s37 26 65 26h52l-20 -50h-18c-14 0 -24.5 -4 -31.5 -12s-10.5 -18.333 -10.5 -31v-17z" />
    <glyph glyph-name="uni0E4D" unicode="&#xe4d;" 
d="M-195 585c0 22 7.83301 40.833 23.5 56.5s34.5 23.5 56.5 23.5s40.833 -7.83301 56.5 -23.5s23.5 -34.5 23.5 -56.5s-7.83301 -40.833 -23.5 -56.5s-34.5 -23.5 -56.5 -23.5s-40.833 7.83301 -56.5 23.5s-23.5 34.5 -23.5 56.5zM-145 585
c0 -8.66699 2.83301 -15.834 8.5 -21.501s12.834 -8.5 21.501 -8.5c8 0 15 2.83301 21 8.5s9 12.834 9 21.501c0 8 -3 15 -9 21s-13 9 -21 9c-8.66699 0 -15.834 -3 -21.501 -9s-8.5 -13 -8.5 -21z" />
    <glyph glyph-name="uni0E4E" unicode="&#xe4e;" 
d="M-218 505c-7.33301 12.667 -11 25.334 -11 38.001c0 22.667 8 40.667 24 54s35.667 20 59 20c0 21.333 7.83301 37.166 23.5 47.499s40.5 15.5 74.5 15.5v-35c-10 0 -19.167 -0.333008 -27.5 -1s-15.5 -3.16699 -21.5 -7.5s-10.667 -11.333 -14 -21s-5 -23.167 -5 -40.5
c-14 0 -27 -2.5 -39 -7.5s-18 -15.167 -18 -30.5c0 -10 2.33301 -18 7 -24l8 -8h-60z" />
    <glyph glyph-name="uni0E4F" unicode="&#xe4f;" horiz-adv-x="454" 
d="M227 271c25.333 0 46.833 -8.83301 64.5 -26.5s26.5 -39.167 26.5 -64.5c0 -12.667 -2.33301 -24.5 -7 -35.5s-11.167 -20.667 -19.5 -29s-18 -14.833 -29 -19.5s-22.833 -7 -35.5 -7c-25.333 0 -46.833 8.83301 -64.5 26.5s-26.5 39.167 -26.5 64.5
c0 12.667 2.33301 24.5 7 35.5s11.167 20.667 19.5 29s18 14.833 29 19.5s22.833 7 35.5 7zM227 370c26.667 0 51.5 -5 74.5 -15s43 -23.5 60 -40.5s30.5 -37 40.5 -60s15 -47.833 15 -74.5c0 -26 -5 -50.5 -15 -73.5s-23.5 -43 -40.5 -60s-37 -30.333 -60 -40
s-47.833 -14.5 -74.5 -14.5c-26 0 -50.667 4.83301 -74 14.5s-43.5 23 -60.5 40s-30.5 37 -40.5 60s-15 47.5 -15 73.5c0 26.667 5 51.5 15 74.5s23.5 43 40.5 60s37.167 30.5 60.5 40.5s48 15 74 15zM227 314c-18 0 -35.167 -3.5 -51.5 -10.5s-30.666 -16.5 -42.999 -28.5
s-22 -26.167 -29 -42.5s-10.5 -33.833 -10.5 -52.5c0 -18 3.5 -35.167 10.5 -51.5s16.667 -30.666 29 -42.999s26.666 -22 42.999 -29s33.5 -10.5 51.5 -10.5c18.667 0 36.167 3.5 52.5 10.5s30.5 16.667 42.5 29s21.5 26.666 28.5 42.999s10.5 33.5 10.5 51.5
c0 18.667 -3.5 36.167 -10.5 52.5s-16.5 30.5 -28.5 42.5s-26.167 21.5 -42.5 28.5s-33.833 10.5 -52.5 10.5z" />
    <glyph glyph-name="uni0E50" unicode="&#xe50;" horiz-adv-x="425" 
d="M22 180c0 26 5 50.667 15 74s23.5 43.5 40.5 60.5s37.167 30.5 60.5 40.5s48 15 74 15s50.667 -5 74 -15s43.666 -23.5 60.999 -40.5s31 -37.167 41 -60.5s15 -48 15 -74s-5 -50.5 -15 -73.5s-23.667 -43 -41 -60s-37.666 -30.333 -60.999 -40s-48 -14.5 -74 -14.5
s-50.667 4.83301 -74 14.5s-43.5 23 -60.5 40s-30.5 37 -40.5 60s-15 47.5 -15 73.5zM82 180c0 -19.333 3.33301 -37.5 10 -54.5s16 -31.833 28 -44.5s25.833 -22.667 41.5 -30s32.5 -11 50.5 -11s35 3.66699 51 11s29.833 17.333 41.5 30s21 27.5 28 44.5
s10.5 35.167 10.5 54.5s-3.5 37.5 -10.5 54.5s-16.333 31.833 -28 44.5s-25.5 22.667 -41.5 30s-33 11 -51 11s-34.833 -3.66699 -50.5 -11s-29.5 -17.333 -41.5 -30s-21.333 -27.5 -28 -44.5s-10 -35.167 -10 -54.5z" />
    <glyph glyph-name="uni0E51" unicode="&#xe51;" horiz-adv-x="424" 
d="M172 10l3.99609 -0.00292969c18.667 0 37.834 3.83301 57.501 11.5s37.5 18.334 53.5 32.001s29.167 30 39.5 49s15.5 39.833 15.5 62.5c0 26 -3.66699 48.833 -11 68.5s-17.166 35.834 -29.499 48.501s-26.666 22.167 -42.999 28.5s-33.833 9.5 -52.5 9.5
c-24 0 -44 -4 -60 -12s-28.667 -17.5 -38 -28.5s-16 -22.333 -20 -34s-6 -21.5 -6 -29.5c0 -11.333 1.66699 -22.166 5 -32.499s7.83301 -19.5 13.5 -27.5s12 -14.333 19 -19s14.167 -7 21.5 -7c15.333 0 26 3.66699 32 11s9 16.666 9 27.999v19h60v-21
c0 -8.66699 -1.5 -18.167 -4.5 -28.5s-8.16699 -19.833 -15.5 -28.5s-17.666 -15.834 -30.999 -21.501s-30 -8.5 -50 -8.5c-14 0 -28 3 -42 9s-26.833 14.833 -38.5 26.5s-21 25.834 -28 42.501s-10.5 36 -10.5 58c0 19.333 4.5 38.166 13.5 56.499s21.5 34.833 37.5 49.5
s35.333 26.334 58 35.001s47.667 13 75 13c26 0 50.833 -4.33301 74.5 -13s44.5 -21.667 62.5 -39s32.333 -38.666 43 -63.999s16 -55 16 -89c0 -30 -6.33301 -57.333 -19 -82s-29.5 -46 -50.5 -64s-45.167 -32 -72.5 -42s-55.333 -15 -84 -15h-8.5
c-3 0 -6.16699 0.333008 -9.5 1z" />
    <glyph glyph-name="uni0E52" unicode="&#xe52;" horiz-adv-x="529" 
d="M218 -8c-14.667 0 -29.6592 2.33398 -44.9922 7.00098s-29.333 12.334 -42 23.001s-23.167 24.5 -31.5 41.5s-12.5 37.833 -12.5 62.5v301c0 10.667 -0.833008 21.5 -2.5 32.5s-5.33398 21 -11.001 30s-13.834 16.333 -24.501 22s-24.667 8.5 -42 8.5v49h15
c24.667 0 45 -4.83301 61 -14.5s28.667 -21.667 38 -36s16 -30 20 -47s6 -32.833 6 -47.5v-301c0 -16.667 3 -30.334 9 -41.001s13.333 -19.167 22 -25.5s18 -10.666 28 -12.999s18.667 -3.5 26 -3.5h131c8.66699 0 18 1.16699 28 3.5s19.167 6.66602 27.5 12.999
s15.166 14.833 20.499 25.5s8 24.334 8 41.001v111c0 8.66699 -1 18 -3 28s-5.16699 19.333 -9.5 28s-10 15.834 -17 21.501s-15.5 8.5 -25.5 8.5c-6.66699 0 -12.667 -2 -18 -6s-10 -8.66699 -14 -14c-4.66699 -6 -9.33398 -12.667 -14.001 -20
c-4 7.33301 -8.33301 14 -13 20c-4 5.33301 -8.66699 10 -14 14s-11 6 -17 6c-14 0 -25 -4.5 -33 -13.5s-12 -19.167 -12 -30.5c0 -15.333 2.83301 -27.333 8.5 -36s12.5 -15.334 20.5 -20.001s16.667 -7.5 26 -8.5s17.666 -1.5 24.999 -1.5v-50
c-13.333 0 -28 1.33301 -44 4s-31.167 8 -45.5 16s-26.333 19.667 -36 35s-14.5 35.666 -14.5 60.999c0 8.66699 1.66699 18.5 5 29.5s8.66602 21.167 15.999 30.5s16.666 17.333 27.999 24s25 10 41 10c10 0 18.667 -1.5 26 -4.5s13.666 -6.16699 18.999 -9.5
c6 -4 11 -8.66699 15 -14c4 5.33301 9 10 15 14c5.33301 3.33301 11.666 6.5 18.999 9.5s16 4.5 26 4.5c18 0 33.333 -4.16699 46 -12.5s23 -19 31 -32s13.833 -27.5 17.5 -43.5s5.5 -32 5.5 -48v-108c0 -24.667 -3.83301 -45.5 -11.5 -62.5s-17.667 -30.833 -30 -41.5
s-26.166 -18.334 -41.499 -23.001s-31 -7 -47 -7h-159z" />
    <glyph glyph-name="uni0E53" unicode="&#xe53;" horiz-adv-x="524" 
d="M362 320c-19.333 0 -36.6699 -12.5029 -52.0029 -37.5029s-23 -62.5 -23 -112.5h-50c0 46 -7.66699 82.5 -23 109.5s-32.666 40.5 -51.999 40.5c-20 0 -38.333 -11 -55 -33s-25 -57 -25 -105c0 -18.667 2.16699 -36.5 6.5 -53.5s10.666 -32 18.999 -45
s18.833 -23.5 31.5 -31.5s27.334 -12 44.001 -12c10.667 0 20 1.66699 28 5c4 1.33301 7.66699 3 11 5v-50c-3.33301 -1.33301 -7 -2.66602 -11 -3.99902c-3.33301 -1.33301 -7.66602 -2.33301 -12.999 -3s-10.666 -1 -15.999 -1c-20.667 0 -40.667 4.5 -60 13.5
s-36.333 21.833 -51 38.5s-26.5 36.667 -35.5 60s-13.5 49.333 -13.5 78c0 62 11.5 108.833 34.5 140.5s54.5 47.5 94.5 47.5c20 0 37 -4.66699 51 -14s25.667 -19.666 35 -30.999c10.667 -13.333 19 -28.333 25 -45c6 16.667 14.333 31.667 25 45
c8.66699 11.333 20 21.666 34 30.999s31 14 51 14c38 0 69.167 -15.5 93.5 -46.5s36.5 -78.167 36.5 -141.5c0 -28 -2.66699 -53.333 -8 -76s-11 -41.667 -17 -57c-7.33301 -18.667 -15.666 -35 -24.999 -49h-60c9.33301 14 17.666 30.333 24.999 49
c6 15.333 11.667 34.333 17 57s8 48 8 76c0 18.667 -1.66699 36.334 -5 53.001s-8.5 31.334 -15.5 44.001s-15.5 22.667 -25.5 30s-21.333 11 -34 11z" />
    <glyph glyph-name="uni0E54" unicode="&#xe54;" horiz-adv-x="509" 
d="M163 310c-14 0 -26.168 -4 -36.501 -12s-18.666 -18.5 -24.999 -31.5s-11.166 -27.5 -14.499 -43.5s-5 -32 -5 -48s1.66699 -31.5 5 -46.5s8.16602 -28.333 14.499 -40s14.666 -21 24.999 -28s22.5 -10.5 36.5 -10.5h178c-19.333 10 -36.333 22 -51 36
c-12.667 12 -24.167 27.167 -34.5 45.5s-15.5 39.833 -15.5 64.5h62c0 -21.333 4 -40.833 12 -58.5s18 -33 30 -46s25 -23.167 39 -30.5s27 -11 39 -11h50v-50h-309c-22.667 -0 -42.834 4.83301 -60.501 14.5s-32.5 22.667 -44.5 39s-21 35 -27 56s-9 42.833 -9 65.5
s3 45 9 67s15 41.833 27 59.5s26.833 31.834 44.5 42.501s37.834 16 60.501 16h168c10.667 0 20.834 1 30.501 3s18.167 5.66699 25.5 11s13.333 13.166 18 23.499s7 23.833 7 40.5v132h60v-129c0 -24.667 -3.33301 -45.334 -10 -62.001s-15.834 -30.167 -27.501 -40.5
s-25.167 -17.666 -40.5 -21.999s-31.666 -6.5 -48.999 -6.5h-182z" />
    <glyph glyph-name="uni0E55" unicode="&#xe55;" horiz-adv-x="509" 
d="M202 390c0 22 7.83301 40.8311 23.5 56.498s34.5 23.5 56.5 23.5s40.833 -7.83301 56.5 -23.5s23.5 -34.5 23.5 -56.5c0 -9.33301 -1.66699 -19 -5 -29c15.333 3.33301 28.333 10.333 39 21s16 29.334 16 56.001v132h60v-129c0 -24.667 -3.33301 -45.334 -10 -62.001
s-15.834 -30.167 -27.501 -40.5s-25.167 -17.666 -40.5 -21.999s-31.666 -6.5 -48.999 -6.5h-182c-14 0 -26.167 -4 -36.5 -12s-18.666 -18.5 -24.999 -31.5s-11.166 -27.5 -14.499 -43.5s-5 -32 -5 -48s1.66699 -31.5 5 -46.5s8.16602 -28.333 14.499 -40
s14.666 -21 24.999 -28s22.5 -10.5 36.5 -10.5h178c-19.333 10 -36.333 22 -51 36c-12.667 12 -24.167 27.167 -34.5 45.5s-15.5 39.833 -15.5 64.5h62c0 -21.333 4 -40.833 12 -58.5s18 -33 30 -46s25 -23.167 39 -30.5s27 -11 39 -11h50v-50h-309
c-22.667 0 -42.834 4.83301 -60.501 14.5s-32.5 22.667 -44.5 39s-21 35 -27 56s-9 42.833 -9 65.5s3 45 9 67s15 41.833 27 59.5s26.833 31.834 44.5 42.501s37.834 16 60.501 16h45c-4 8.66699 -6 18.667 -6 30zM252 389.998c0 -8.66699 2.83398 -15.832 8.50098 -21.499
s12.834 -8.5 21.501 -8.5h3c7.33301 1.33301 13.666 4.66602 18.999 9.99902s8 12 8 20s-3 15 -9 21s-13 9 -21 9c-8.66699 0 -15.834 -3 -21.501 -9s-8.5 -13 -8.5 -21z" />
    <glyph glyph-name="uni0E56" unicode="&#xe56;" horiz-adv-x="579" 
d="M187 210c-14 54 -26.665 100.667 -37.998 140s-23.333 71.5 -36 96.5s-27.334 43.5 -44.001 55.5s-37.334 18 -62.001 18v50h21c33.333 0 60.666 -8.33301 81.999 -25s39 -38.334 53 -65.001s25.667 -56.667 35 -90l29 -100c7.33301 14.667 17 28 29 40
c10.667 10 24.834 19.167 42.501 27.5s40.5 12.5 68.5 12.5c30 0 56.833 -4.66699 80.5 -14s43.5 -22.166 59.5 -38.499s28.333 -35.5 37 -57.5s13 -45.333 13 -70c0 -27.333 -4.33301 -53 -13 -77s-21 -45 -37 -63s-35.833 -32.167 -59.5 -42.5s-50.5 -15.5 -80.5 -15.5
c-40 0 -75 10.667 -105 32s-51.667 50 -65 86h60c4.66699 -11.333 11.167 -21.333 19.5 -30s17.5 -16 27.5 -22s20.5 -10.5 31.5 -13.5s21.5 -4.5 31.5 -4.5c17.333 0 33.833 3.66699 49.5 11s29.5 17.5 41.5 30.5s21.5 28.667 28.5 47s10.5 38.833 10.5 61.5
c0 17.333 -3 33.833 -9 49.5s-14.667 29.5 -26 41.5s-25 21.5 -41 28.5s-34 10.5 -54 10.5c-17.333 0 -32.833 -3 -46.5 -9s-25.334 -14 -35.001 -24s-17.667 -21.667 -24 -35s-11.166 -27.333 -14.499 -42h-60z" />
    <glyph glyph-name="uni0E57" unicode="&#xe57;" horiz-adv-x="679" 
d="M352 310c-9.33301 0 -18.8291 -2.50391 -28.4961 -7.50391s-18.334 -12.5 -26.001 -22.5s-13.834 -22.5 -18.501 -37.5s-7 -32.5 -7 -52.5h-40c0 17.333 -2.33301 33.333 -7 48s-10.834 27.334 -18.501 38.001s-16.334 19 -26.001 25s-19.167 9 -28.5 9
c-20 0 -36.667 -9.33301 -50 -28s-20 -52 -20 -100c0 -18.667 2.16699 -36.5 6.5 -53.5s10.666 -32 18.999 -45s18.833 -23.5 31.5 -31.5s27.334 -12 44.001 -12c10.667 0 20 1.66699 28 5c4 1.33301 7.66699 3 11 5v-50c-3.33301 -1.33301 -7 -2.66602 -11 -3.99902
c-3.33301 -1.33301 -7.66602 -2.33301 -12.999 -3s-10.666 -1 -15.999 -1c-20.667 0 -40.667 4.5 -60 13.5s-36.333 21.833 -51 38.5s-26.5 36.667 -35.5 60s-13.5 49.333 -13.5 78c0 30.667 3.5 57.167 10.5 79.5s16 40.833 27 55.5s23.667 25.5 38 32.5
s28.833 10.5 43.5 10.5c19.333 0 35.833 -4.33301 49.5 -13s25 -18.334 34 -29.001s15.667 -20.834 20 -30.501s6.83301 -15.5 7.5 -17.5c0 1.33301 2.16699 6.66602 6.5 15.999s10.833 19.5 19.5 30.5s20 21 34 30s30.667 13.5 50 13.5
c14.667 0 29.334 -3.33301 44.001 -10s27.5 -17.167 38.5 -31.5s20 -32.833 27 -55.5s10.5 -49.667 10.5 -81c0 -28 -2.5 -53 -7.5 -75s-10.833 -41 -17.5 -57c8 0.666992 16.333 2.83398 25 6.50098s16.667 8.83398 24 15.501s13.5 15.167 18.5 25.5s7.5 23.166 7.5 38.499
v302c0 14.667 2 29.834 6 45.501s10.833 29.834 20.5 42.501s22.5 23.167 38.5 31.5s36.333 12.5 61 12.5h14v-50c-17.333 0 -31.333 -2.16699 -42 -6.5s-18.834 -10.166 -24.501 -17.499s-9.33398 -15.666 -11.001 -24.999s-2.5 -19.333 -2.5 -30v-301
c0 -24.667 -4 -45.834 -12 -63.501s-18.333 -32.167 -31 -43.5s-26.667 -19.666 -42 -24.999s-30.333 -8 -45 -8h-90c9.33301 14 17.666 30.333 24.999 49c6 15.333 11.667 34.333 17 57s8 48 8 76c0 38 -5.16699 68.833 -15.5 92.5s-28.5 35.5 -54.5 35.5z" />
    <glyph glyph-name="uni0E58" unicode="&#xe58;" horiz-adv-x="509" 
d="M412 140l60 0.00292969v-26c0 -21.333 -3.33301 -39.666 -10 -54.999s-16 -28 -28 -38s-26.333 -17.333 -43 -22s-34.667 -7 -54 -7c-18.667 0 -34.5 2.5 -47.5 7.5s-23.833 10.5 -32.5 16.5c-10 7.33301 -18.333 15.333 -25 24
c-4.66699 -8.66699 -10.667 -16.667 -18 -24c-6.66699 -6 -14.834 -11.5 -24.501 -16.5s-22.167 -7.5 -37.5 -7.5c-14.667 0 -29.667 4 -45 12s-29.333 20 -42 36s-23 35.833 -31 59.5s-12 51.167 -12 82.5c0 22 3.5 43.667 10.5 65s17.667 40.333 32 57s32 30.167 53 40.5
s45.5 15.5 73.5 15.5h140c10.667 0 20.834 1 30.501 3s18.167 5.66699 25.5 11s13.333 13.166 18 23.499s7 23.833 7 40.5v132h60v-129c0 -24.667 -3.33301 -45.334 -10 -62.001s-15.834 -30.167 -27.501 -40.5s-25.167 -17.666 -40.5 -21.999s-31.666 -6.5 -48.999 -6.5
h-154c-17.333 0 -32.833 -4 -46.5 -12s-25.167 -18.167 -34.5 -30.5s-16.333 -26.333 -21 -42s-7 -31.167 -7 -46.5c0 -18.667 1.66699 -36.334 5 -53.001s8.33301 -31.334 15 -44.001s15.167 -22.834 25.5 -30.501s22.166 -11.5 35.499 -11.5c12 0 22.333 3.5 31 10.5
s15.667 15.167 21 24.5c6.66699 10 12.334 21.667 17.001 35c6.66699 -13.333 15 -25 25 -35c8.66699 -9.33301 19.667 -17.5 33 -24.5s29 -10.5 47 -10.5c8 0 16.5 1.16699 25.5 3.5s17.167 6.33301 24.5 12s13.333 13.167 18 22.5s7 21.333 7 36v26z" />
    <glyph glyph-name="uni0E59" unicode="&#xe59;" horiz-adv-x="619" 
d="M522 570l59.9922 -0.00195312v-122c0 -20.667 -1.5 -41 -4.5 -61s-8.33301 -38 -16 -54s-18 -28.833 -31 -38.5s-29.167 -14.5 -48.5 -14.5s-35.666 3.66699 -48.999 11s-25 15.333 -35 24l-28 24c-8.66699 7.33301 -18 11 -28 11
c-17.333 0 -30.833 -5.83301 -40.5 -17.5s-14.5 -23.5 -14.5 -35.5c0 -4.66699 0.333008 -8 1 -10l16 -55l9.5 -32l13 -47l18 -65.5l24.5 -87.5h-56l-70 250c-2 6.66699 -5 14.334 -9 23.001s-9.16699 16.5 -15.5 23.5s-14.166 13 -23.499 18s-20 7.5 -32 7.5
c-8.66699 0 -17.667 -2.83301 -27 -8.5s-18 -14.167 -26 -25.5s-14.667 -25.833 -20 -43.5s-8 -38.5 -8 -62.5c0 -18 1.83301 -35.667 5.5 -53s9.33398 -32.5 17.001 -45.5s17.5 -23.5 29.5 -31.5s26.333 -12 43 -12c10.667 0 19.334 1.66699 26.001 5
c3.33301 1.33301 6.33301 3 9 5v-50c-2.66699 -1.33301 -5.66699 -2.66602 -9 -3.99902s-7.16602 -2.33301 -11.499 -3s-9.16602 -1 -14.499 -1c-20 0 -39.333 4.5 -58 13.5s-35.167 21.833 -49.5 38.5s-25.833 36.667 -34.5 60s-13 49.333 -13 78
c0 30.667 4.5 57.667 13.5 81s20.333 43 34 59s28.834 28 45.501 36s32.667 12 48 12c23.333 0 42 -4.66699 56 -14s26.667 -19.666 38 -30.999c7.33301 23.333 18.333 41.666 33 54.999s32 20 52 20c14.667 0 28 -3.66699 40 -11s23.333 -15.5 34 -24.5
s20.834 -17.167 30.501 -24.5s19.834 -11 30.501 -11c15.333 0 26.666 11.167 33.999 33.5s11 50.833 11 85.5v122z" />
    <glyph glyph-name="uni0E5A" unicode="&#xe5a;" horiz-adv-x="509" 
d="M472 0h-60v430h60v-430zM82 430c7.33301 -28 17.167 -49.9971 29.5 -65.9971s32.5 -24 60.5 -24s53.167 7.66699 75.5 23s37.166 37.666 44.499 66.999h60v-283c0 -24 -1.16699 -45 -3.5 -63s-7.16602 -33.333 -14.499 -46s-17.5 -22.167 -30.5 -28.5
s-29.833 -9.5 -50.5 -9.5v50c6.66699 0 12.5 0.666992 17.5 2s9.16699 5.16602 12.5 11.499s5.66602 16.166 6.99902 29.499s2 32.333 2 57v210c-8 -13.333 -17.667 -25 -29 -35c-10 -8.66699 -22.333 -16.667 -37 -24s-32.667 -11 -54 -11c-42 0 -75.667 12.333 -101 37
s-41.666 59 -48.999 103h60z" />
    <glyph glyph-name="uni0E5B" unicode="&#xe5b;" horiz-adv-x="714" 
d="M220 -8c-26 0 -50.001 4.83105 -72.001 14.498s-41.333 22.834 -58 39.501s-29.667 36 -39 58s-14 45.333 -14 70c0 26.667 4.16699 51.834 12.5 75.501s20.333 44.5 36 62.5s34.5 32.167 56.5 42.5s46.667 15.5 74 15.5c37.333 0 67 -7 89 -21s38.667 -29.333 50 -46
c12.667 -20 21.334 -42.333 26.001 -67h-58c-4 16 -10.333 30 -19 42c-7.33301 10.667 -18.166 20.334 -32.499 29.001s-32.833 13 -55.5 13c-17.333 0 -33.333 -3.83301 -48 -11.5s-27.167 -18.167 -37.5 -31.5s-18.5 -28.833 -24.5 -46.5s-9 -36.5 -9 -56.5
c0 -38 11.333 -69.667 34 -95s52.334 -38.333 89.001 -39c16.667 0 31.5 2.5 44.5 7.5s24.167 10.833 33.5 17.5c10.667 7.33301 19.667 15.666 27 24.999l52 -50l39 50l46 -50l41 50c7.33301 -9.33301 14.666 -17.666 21.999 -24.999c6.66699 -6.66699 14 -12.5 22 -17.5
s16.667 -7.5 26 -7.5c17.333 0 29 4.66699 35 14s9 17 9 23c0 8 -1 15.167 -3 21.5s-4.33301 11.5 -7 15.5c-2.66699 4.66699 -6 8.66699 -10 12h60c4 -2.66699 7.33301 -6.33398 10 -11.001c2.66699 -4 5 -9.16699 7 -15.5s3 -13.833 3 -22.5
c0 -5.33301 -1 -12.833 -3 -22.5s-6 -19.167 -12 -28.5s-15 -17.333 -27 -24s-28 -10 -48 -10c-12.667 0 -24.167 2.5 -34.5 7.5s-19.166 10.5 -26.499 16.5c-8.66699 7.33301 -16.334 15.333 -23.001 24l-41 -48l-46 48l-39 -48l-52 48
c-8 -8.66699 -17.333 -16.667 -28 -24c-9.33301 -6 -20.333 -11.5 -33 -16.5s-27.334 -7.5 -44.001 -7.5z" />
    <glyph glyph-name="endash" unicode="&#x2013;" horiz-adv-x="374" 
d="M337 190h-300v50h300v-50z" />
    <glyph glyph-name="emdash" unicode="&#x2014;" horiz-adv-x="564" 
d="M527 190h-490v50h490v-50z" />
    <glyph glyph-name="quoteleft" unicode="&#x2018;" horiz-adv-x="134" 
d="M97 360h-60.001v60c0 15.333 3.5 29.5 10.5 42.5s15.167 24.5 24.5 34.5c10 12 21.667 23 35 33h50c-11.333 -12 -21.333 -24 -30 -36c-7.33301 -10.667 -14.166 -22.5 -20.499 -35.5s-9.5 -25.833 -9.5 -38.5v-60z" />
    <glyph glyph-name="quoteright" unicode="&#x2019;" horiz-adv-x="134" 
d="M37 530l60 -0.000976562v-60c0 -15.333 -3.66699 -29.666 -11 -42.999s-15.333 -25 -24 -35c-10.667 -12 -22.334 -22.667 -35.001 -32h-48c10.667 12 20.334 24 29.001 36c7.33301 10.667 14 22.5 20 35.5s9 25.833 9 38.5v60z" />
    <glyph glyph-name="quotedblleft" unicode="&#x201c;" horiz-adv-x="244" 
d="M97 360h-60.001v60c0 15.333 3.5 29.5 10.5 42.5s15.167 24.5 24.5 34.5c10 12 21.667 23 35 33h50c-11.333 -12 -21.333 -24 -30 -36c-7.33301 -10.667 -14.166 -22.5 -20.499 -35.5s-9.5 -25.833 -9.5 -38.5v-60zM206.999 360h-60.001v60c0 15.333 3.5 29.5 10.5 42.5
s15.167 24.5 24.5 34.5c10 12 21.667 23 35 33h50c-11.333 -12 -21.333 -24 -30 -36c-7.33301 -10.667 -14.166 -22.5 -20.499 -35.5s-9.5 -25.833 -9.5 -38.5v-60z" />
    <glyph glyph-name="quotedblright" unicode="&#x201d;" horiz-adv-x="244" 
d="M147 530l60.002 -0.000976562v-60c0 -15.333 -3.66699 -29.666 -11 -42.999s-15.333 -25 -24 -35c-10.667 -12 -22.334 -22.667 -35.001 -32h-50c11.333 12 21.333 24 30 36c7.33301 10.667 14.166 22.5 20.499 35.5s9.5 25.833 9.5 38.5v60zM37.002 529.999
l60 -0.000976562v-60c0 -15.333 -3.66699 -29.666 -11 -42.999s-15.333 -25 -24 -35c-10.667 -12 -22.334 -22.667 -35.001 -32h-48c10.667 12 20.334 24 29.001 36c7.33301 10.667 14 22.5 20 35.5s9 25.833 9 38.5v60z" />
    <glyph glyph-name="bullet" unicode="&#x2022;" horiz-adv-x="256" 
d="M128 308c25.333 0 46.833 -8.83301 64.5 -26.5s26.5 -39.167 26.5 -64.5c0 -12.667 -2.33301 -24.5 -7 -35.5s-11.167 -20.667 -19.5 -29s-18 -14.833 -29 -19.5s-22.833 -7 -35.5 -7c-25.333 0 -46.833 8.83301 -64.5 26.5s-26.5 39.167 -26.5 64.5
c0 12.667 2.33301 24.5 7 35.5s11.167 20.667 19.5 29s18 14.833 29 19.5s22.833 7 35.5 7z" />
    <glyph glyph-name="ellipsis" unicode="&#x2026;" horiz-adv-x="554" 
d="M97 0h-60v60h60v-60zM307 0h-60v60h60v-60zM517 0h-60v60h60v-60z" />
    <glyph glyph-name="Euro" unicode="&#x20ac;" horiz-adv-x="504" 
d="M37 270l-0.00195312 49.999h59c14 56.667 41.833 100.834 83.5 132.501s92.834 47.5 153.501 47.5c24.667 0 49.167 -1.5 73.5 -4.5s44.5 -8.16699 60.5 -15.5l-20 -50c-19.333 9.33301 -37.833 15 -55.5 17s-37.167 3 -58.5 3c-43.333 0 -80.166 -11.667 -110.499 -35
s-51.833 -55 -64.5 -95h199v-50h-209c-0.666992 -5.33301 -1 -10.333 -1 -15v-15v-13c0 -4 0.333008 -8 1 -12h189v-50h-180c12 -40 33.333 -70.833 64 -92.5s68 -32.5 112 -32.5c25.333 0 45.833 2.5 61.5 7.5s33.167 12.5 52.5 22.5l20 -50
c-19.333 -10.667 -40.833 -18 -64.5 -22s-49.167 -6 -76.5 -6c-59.333 0 -109.333 15.167 -150 45.5s-67.667 72.833 -81 127.5h-58v50h50v25v15c0 4.66699 0.333008 9.66699 1 15h-51z" />
    <glyph glyph-name="trademark" unicode="&#x2122;" horiz-adv-x="387" 
d="M37 490h117v-17h-47v-153h-21v153h-49v17zM326 490h24v-170h-17v140l-65 -140h-10l-61 140v-140h-20v170h27l59 -138z" />
    <glyph glyph-name=".null" 
 />
    <glyph glyph-name="nonmarkingreturn" horiz-adv-x="322" 
 />
    <glyph glyph-name="uni0E10.alt" horiz-adv-x="414" 
d="M152 0l-40.002 159.998c-2 5.33301 -4.5 8.33301 -7.5 9s-7.16699 1 -12.5 1h-20v50h40c15.333 0 26.5 -2.5 33.5 -7.5s12.5 -12.5 16.5 -22.5l40 -140c22 0 41.167 5.16699 57.5 15.5s29.833 23.666 40.5 39.999s18.667 35 24 56s8 42.167 8 63.5
c0 28.667 -4.5 53.334 -13.5 74.001s-20.667 37.834 -35 51.501s-30.5 23.667 -48.5 30s-35.667 9.5 -53 9.5c-25.333 0 -46.833 -4.66699 -64.5 -14s-32.167 -19.666 -43.5 -30.999c-13.333 -13.333 -24 -28.333 -32 -45l-20 50c6.66699 16.667 17 31.667 31 45
c12 11.333 28.333 21.666 49 30.999s47.334 14 80.001 14c28.667 0 55.334 -4.66699 80.001 -14c6.66699 2 14.167 4.83301 22.5 8.5s16 8.16699 23 13.5s12.833 11.333 17.5 18s7 14.667 7 24h60c0 -13.333 -2.66699 -25 -8 -35s-12 -18.667 -20 -26
s-16.833 -13.333 -26.5 -18s-19.167 -8.33398 -28.5 -11.001c26.667 -20 47.167 -45.333 61.5 -76s21.5 -63.667 21.5 -99c0 -31.333 -4.33301 -60.666 -13 -87.999s-21 -51.166 -37 -71.499s-35.833 -36.333 -59.5 -48s-50.5 -17.5 -80.5 -17.5h-50z" />
    <glyph glyph-name="uni0E0D.alt" horiz-adv-x="689" 
d="M332 280c0 22.667 -4.1709 41.167 -12.5039 55.5s-19.166 25.5 -32.499 33.5s-28 13.5 -44 16.5s-31.333 4.5 -46 4.5c-19.333 0 -36.166 -3.16699 -50.499 -9.5s-26.166 -13.166 -35.499 -20.499c-11.333 -8.66699 -21 -18.667 -29 -30l60 -50
c-4 -4.66699 -7.33301 -10.667 -10 -18c-2.66699 -6.66699 -5 -14.834 -7 -24.501s-3 -22.167 -3 -37.5v-130c0 -5.33301 0.333008 -9.83301 1 -13.5s3.66699 -5.83398 9 -6.50098h30v-50h-40c-20 0 -35 5.33301 -45 16s-15 28.667 -15 54v130c0 12.667 1 23.834 3 33.501
s4.33301 18.167 7 25.5c2.66699 8 6 15 10 21l-30 25l-20.5 16.5c-6.33301 5 -9.5 7.83301 -9.5 8.5c10.667 20 24.334 38.333 41.001 55c14 13.333 31.833 25.833 53.5 37.5s48.5 17.5 80.5 17.5c22.667 0 45.5 -2.66699 68.5 -8s43.833 -13.5 62.5 -24.5
s34 -25.5 46 -43.5s18 -39.333 18 -64v-157c0 -11.333 1 -23 3 -35s5.83301 -23 11.5 -33s13.5 -18.333 23.5 -25s23 -10 39 -10h42c16 0 29.167 3.33301 39.5 10s18.5 15 24.5 25s10.333 21 13 33s4 23.667 4 35v287h60v-283c0 -19.333 -2.33301 -38.333 -7 -57
s-12.167 -35.167 -22.5 -49.5s-23.5 -26 -39.5 -35s-35.333 -13.5 -58 -13.5h-80c-22.667 0 -41.334 4.5 -56.001 13.5s-26.167 20.667 -34.5 35s-14.166 30.833 -17.499 49.5s-5 37.667 -5 57v133z" />
    <glyph glyph-name="uni0E47.sm" 
d="M-208 655c15.333 0 27.835 1.49902 37.502 4.49902s17.834 6.5 24.501 10.5c7.33301 4 13.333 9 18 15v-50c-4.66699 -4 -10.667 -7.33301 -18 -10c-6.66699 -2.66699 -14.834 -5 -24.501 -7s-22.167 -3 -37.5 -3h-50c-20 0 -33.333 -4.33301 -40 -13
s-10 -17.667 -10 -27c0 -6 1.5 -12.5 4.5 -19.5s8.16699 -10.5 15.5 -10.5s13.166 1.5 17.499 4.5s7.5 6.5 9.5 10.5c2.66699 4 4 9 4 15h19c1.33301 -6 3.33301 -11 6 -15c2 -4 4.83301 -7.5 8.5 -10.5s8.83398 -4.5 15.501 -4.5c10 0 17.5 3.66699 22.5 11
s7.5 13.666 7.5 18.999h50c0 -20 -6.66699 -36.667 -20 -50s-30 -20 -50 -20c-7.33301 0 -14 1 -20 3s-11.333 4.33301 -16 7c-5.33301 2.66699 -10 6 -14 10c-2.66699 -4 -6 -7.33301 -10 -10s-9.16699 -5 -15.5 -7s-14.5 -3 -24.5 -3c-5.33301 0 -11.5 1 -18.5 3
s-13.5 5.66699 -19.5 11s-11.167 12.5 -15.5 21.5s-6.5 20.5 -6.5 34.5c0 17.333 3.33301 31.333 10 42s14.667 18.834 24 24.501s19.166 9.33398 29.499 11.001s19.166 2.5 26.499 2.5h60z" />
    <glyph glyph-name="uni0E49.sm" 
d="M20 710l-20 -50h-98c-15.333 0 -27.5 4.16699 -36.5 12.5s-13.5 17.5 -13.5 27.5c0 8.66699 -2 14.167 -6 16.5s-8 3.5 -12 3.5h-32v50h70c10 0 19.167 -4.16699 27.5 -12.5s12.5 -17.5 12.5 -27.5c0 -5.33301 2 -10 6 -14s8.66699 -6 14 -6h88z" />
    <glyph glyph-name="uni0E4A.sm" 
d="M-133 750c1.33301 4 3.3291 7.33105 5.99609 9.99805s6.33398 5 11.001 7s10.667 3 18 3c20 0 35 -5.16699 45 -15.5s15 -21.833 15 -34.5c0 -5.33301 1 -8.33301 3 -9s4.66699 -1 8 -1h47l-20 -50h-41c-18.667 0 -31.167 4.16699 -37.5 12.5s-9.5 17.5 -9.5 27.5
c0 7.33301 -1.66699 14.166 -5 20.499s-8.33301 9.5 -15 9.5c-5.33301 0 -9.16602 -3.16699 -11.499 -9.5s-3.5 -13.166 -3.5 -20.499h-20c0 6.66699 -1.16699 13.334 -3.5 20.001s-6.16602 10 -11.499 10s-10 -3.16699 -14 -9.5s-6 -13.166 -6 -20.499s1 -13.5 3 -18.5
s4.33301 -9.16699 7 -12.5s6 -6.33301 10 -9h-60c-4 2.66699 -7.33301 5.66699 -10 9s-5 7.5 -7 12.5s-3 11.167 -3 18.5c0 20 6.66699 36.667 20 50s30 20 50 20c7.33301 0 13.333 -1 18 -3s8.33398 -4.33301 11.001 -7s4.66699 -6 6 -10z" />
    <glyph glyph-name="uni0E24_uni0E45" horiz-adv-x="709" 
d="M392 -148c0 -9.33301 -2.00391 -17.4961 -6.00391 -24.4961s-8.66699 -13.167 -14 -18.5c-6 -6.66699 -12.667 -12.334 -20 -17.001h-20v488c0 22.667 -4.16699 41.167 -12.5 55.5s-19.166 25.5 -32.499 33.5s-28 13.5 -44 16.5s-31.333 4.5 -46 4.5
c-19.333 0 -36.166 -3.16699 -50.499 -9.5s-26.166 -13.166 -35.499 -20.499c-11.333 -8.66699 -21 -18.667 -29 -30l60 -50c-4 -4.66699 -7.33301 -10.667 -10 -18c-2.66699 -6.66699 -5 -14.834 -7 -24.501s-3 -22.167 -3 -37.5v-130c0 -6.66699 1.16699 -11.5 3.5 -14.5
s5.5 -4.83301 9.5 -5.5s8.33301 -0.833984 13 -0.500977s9.33398 0.5 14.001 0.5v-50h-40c-20 0 -35 5.33301 -45 16s-15 28.667 -15 54v130c0 12.667 1 23.834 3 33.501s4.33301 18.167 7 25.5c2.66699 8 6 15 10 21l-30 25l-20.5 16.5c-6.33301 5 -9.5 7.83301 -9.5 8.5
c10.667 20 24.334 38.333 41.001 55c14 13.333 31.833 25.833 53.5 37.5s48.5 17.5 80.5 17.5c16 0 32.333 -1.33301 49 -4s32.667 -6.83398 48 -12.501s29.5 -13 42.5 -22s24.167 -19.5 33.5 -31.5c2.66699 5.33301 7.16699 12 13.5 20s14.833 15.667 25.5 23
s23.5 13.666 38.5 18.999s33.167 8 54.5 8c19.333 0 39 -3.16699 59 -9.5s38.333 -16 55 -29s30.167 -29.5 40.5 -49.5s15.5 -44 15.5 -72v-428c0 -9.33301 -2 -17.5 -6 -24.5s-8.66699 -13.167 -14 -18.5c-6 -6.66699 -12.667 -12.334 -20 -17.001h-20v478
c0 20.667 -3.33301 38.667 -10 54s-15.5 27.833 -26.5 37.5s-23.667 16.834 -38 21.501s-29.5 7 -45.5 7c-24.667 0 -43.834 -4.5 -57.501 -13.5s-23.667 -19 -30 -30s-10 -21.333 -11 -31s-1.5 -14.834 -1.5 -15.501v-448z" />
    <glyph glyph-name="uni0E26_uni0E45" horiz-adv-x="709" 
d="M122 70c0 -25.333 -5.00195 -43.332 -15.002 -53.999s-25 -16 -45 -16h-40v50h30c4 0.666992 6.66699 3.33398 8 8.00098s2.16602 10.167 2.49902 16.5s0.333008 13 0 20s-0.5 13.167 -0.5 18.5v87c0 12.667 1 23.834 3 33.501s4.33301 18.167 7 25.5
c2.66699 8 6 15 10 21l-30 25l-20.5 16.5c-6.33301 5 -9.5 7.83301 -9.5 8.5c10.667 20 24.334 38.333 41.001 55c14 13.333 31.833 25.833 53.5 37.5s48.5 17.5 80.5 17.5c16 0 32.333 -1.33301 49 -4s32.667 -6.83398 48 -12.501s29.5 -13 42.5 -22
s24.167 -19.5 33.5 -31.5c2.66699 5.33301 7.16699 12 13.5 20s14.833 15.667 25.5 23s23.5 13.666 38.5 18.999s33.167 8 54.5 8c19.333 0 39 -3.16699 59 -9.5s38.333 -16 55 -29s30.167 -29.5 40.5 -49.5s15.5 -44 15.5 -72v-428c0 -9.33301 -2 -17.5 -6 -24.5
s-8.66699 -13.167 -14 -18.5c-6 -6.66699 -12.667 -12.334 -20 -17.001h-20v478c0 20.667 -3.33301 38.667 -10 54s-15.5 27.833 -26.5 37.5s-23.667 16.834 -38 21.501s-29.5 7 -45.5 7c-17.333 0 -31.833 -2 -43.5 -6s-21.5 -9.33301 -29.5 -16
s-14.167 -14.167 -18.5 -22.5s-7.5 -16.833 -9.5 -25.5c-4.66699 -20.667 -4.33398 -44 0.999023 -70v-398c0 -9.33301 -2 -17.5 -6 -24.5s-8.66699 -13.167 -14 -18.5c-6 -6.66699 -12.667 -12.334 -20 -17.001h-20v488c0 22.667 -4.16699 41.167 -12.5 55.5
s-19.166 25.5 -32.499 33.5s-28 13.5 -44 16.5s-31.333 4.5 -46 4.5c-19.333 0 -36.166 -3.16699 -50.499 -9.5s-26.166 -13.166 -35.499 -20.499c-11.333 -8.66699 -21 -18.667 -29 -30l60 -50c-4 -4.66699 -7.33301 -10.667 -10 -18
c-2.66699 -6.66699 -5 -14.834 -7 -24.501s-3 -22.167 -3 -37.5v-130z" />
  </font>
</defs>
</svg>
